%TF.GenerationSoftware,KiCad,Pcbnew,9.0.7*%
%TF.CreationDate,2026-03-24T21:52:54-06:00*%
%TF.ProjectId,Void_Player,566f6964-5f50-46c6-9179-65722e6b6963,rev?*%
%TF.SameCoordinates,Original*%
%TF.FileFunction,Copper,L1,Top*%
%TF.FilePolarity,Positive*%
%FSLAX46Y46*%
G04 Gerber Fmt 4.6, Leading zero omitted, Abs format (unit mm)*
G04 Created by KiCad (PCBNEW 9.0.7) date 2026-03-24 21:52:54*
%MOMM*%
%LPD*%
G01*
G04 APERTURE LIST*
%TA.AperFunction,ComponentPad*%
%ADD10C,2.000000*%
%TD*%
%TA.AperFunction,ComponentPad*%
%ADD11R,1.700000X1.700000*%
%TD*%
%TA.AperFunction,ComponentPad*%
%ADD12C,1.700000*%
%TD*%
%TA.AperFunction,ComponentPad*%
%ADD13O,1.700000X1.700000*%
%TD*%
%TA.AperFunction,ViaPad*%
%ADD14C,0.600000*%
%TD*%
%TA.AperFunction,Conductor*%
%ADD15C,0.500000*%
%TD*%
G04 APERTURE END LIST*
D10*
%TO.P,SW4,1,1*%
%TO.N,Previous*%
X69550000Y-89050000D03*
X69550000Y-95550000D03*
%TO.P,SW4,2,2*%
%TO.N,GND*%
X65049999Y-89050000D03*
X65050000Y-95550001D03*
%TD*%
%TO.P,SW6,1,1*%
%TO.N,Vol_Down*%
X77050000Y-99500000D03*
X77050000Y-106000000D03*
%TO.P,SW6,2,2*%
%TO.N,GND*%
X72549999Y-99500000D03*
X72550000Y-106000001D03*
%TD*%
%TO.P,SW3,1,1*%
%TO.N,Next*%
X80050000Y-95550000D03*
X80050000Y-89050000D03*
%TO.P,SW3,2,2*%
%TO.N,GND*%
X84550001Y-95550000D03*
X84550000Y-89049999D03*
%TD*%
D11*
%TO.P,U2,GND,GND*%
%TO.N,GND*%
X73820000Y-49400000D03*
D12*
%TO.P,U2,SCK,SCK*%
%TO.N,SCK*%
X78900000Y-49400000D03*
%TO.P,U2,SDA,SDA*%
%TO.N,SDA*%
X81440000Y-49400000D03*
%TO.P,U2,VDD,VDD*%
%TO.N,+3.3V*%
X76360000Y-49400000D03*
%TD*%
D10*
%TO.P,SW5,1,1*%
%TO.N,Vol_Up*%
X77000000Y-78500000D03*
X77000000Y-85000000D03*
%TO.P,SW5,2,2*%
%TO.N,GND*%
X72499999Y-78500000D03*
X72500000Y-85000001D03*
%TD*%
%TO.P,SW2,1,1*%
%TO.N,Center*%
X77050000Y-89050000D03*
X77050000Y-95550000D03*
%TO.P,SW2,2,2*%
%TO.N,GND*%
X72549999Y-89050000D03*
X72550000Y-95550001D03*
%TD*%
%TO.P,SW1,1,1*%
%TO.N,Menu*%
X69500000Y-78500000D03*
X69500000Y-85000000D03*
%TO.P,SW1,2,2*%
%TO.N,GND*%
X64999999Y-78500000D03*
X65000000Y-85000001D03*
%TD*%
D11*
%TO.P,U1,1,3V3_1*%
%TO.N,+3.3V*%
X88260000Y-54540000D03*
D13*
%TO.P,U1,2,5V_2*%
%TO.N,RASPI_LOAD*%
X90800000Y-54540000D03*
%TO.P,U1,3,GPIO2/SDA1*%
%TO.N,SDA*%
X88260000Y-57080000D03*
%TO.P,U1,4,5V_4*%
%TO.N,RASPI_LOAD*%
X90800000Y-57080000D03*
%TO.P,U1,5,GPIO3/SCL*%
%TO.N,SCK*%
X88260000Y-59620000D03*
%TO.P,U1,6,GND_6*%
%TO.N,GND*%
X90800000Y-59620000D03*
%TO.P,U1,7,GPIO4/GPIO_GCLK*%
%TO.N,unconnected-(U1-GPIO4{slash}GPIO_GCLK-Pad7)*%
X88260000Y-62160000D03*
%TO.P,U1,8,GPIO14/TXD0*%
%TO.N,unconnected-(U1-GPIO14{slash}TXD0-Pad8)*%
X90800000Y-62160000D03*
%TO.P,U1,9,GND_9*%
%TO.N,GND*%
X88260000Y-64700000D03*
%TO.P,U1,10,GPIO15/RXD0*%
%TO.N,unconnected-(U1-GPIO15{slash}RXD0-Pad10)*%
X90800000Y-64700000D03*
%TO.P,U1,11,GPIO17/GPIO_GEN0*%
%TO.N,Menu*%
X88260000Y-67240000D03*
%TO.P,U1,12,GPIO18/GPIO_GEN1*%
%TO.N,unconnected-(U1-GPIO18{slash}GPIO_GEN1-Pad12)*%
X90800000Y-67240000D03*
%TO.P,U1,13,GPIO27/GPIO_GEN2*%
%TO.N,Vol_Up*%
X88260000Y-69780000D03*
%TO.P,U1,14,GND_14*%
%TO.N,GND*%
X90800000Y-69780000D03*
%TO.P,U1,15,GPIO22/GPIO_GEN3*%
%TO.N,unconnected-(U1-GPIO22{slash}GPIO_GEN3-Pad15)*%
X88260000Y-72320000D03*
%TO.P,U1,16,GPIO23/GPIO_GEN4*%
%TO.N,unconnected-(U1-GPIO23{slash}GPIO_GEN4-Pad16)*%
X90800000Y-72320000D03*
%TO.P,U1,17,3V3_17*%
%TO.N,+3.3V*%
X88260000Y-74860000D03*
%TO.P,U1,18,GPIO24/GPIO_GEN5*%
%TO.N,unconnected-(U1-GPIO24{slash}GPIO_GEN5-Pad18)*%
X90800000Y-74860000D03*
%TO.P,U1,19,GPIO10/SPI_MOSI*%
%TO.N,Previous*%
X88260000Y-77400000D03*
%TO.P,U1,20,GND_20*%
%TO.N,GND*%
X90800000Y-77400000D03*
%TO.P,U1,21,GPIO9/SPI_MISO*%
%TO.N,Center*%
X88260000Y-79940000D03*
%TO.P,U1,22,GPIO25/GPIO_GEN6*%
%TO.N,unconnected-(U1-GPIO25{slash}GPIO_GEN6-Pad22)*%
X90800000Y-79940000D03*
%TO.P,U1,23,GPIO11/SPI_SCLK*%
%TO.N,Next*%
X88260000Y-82480000D03*
%TO.P,U1,24,GPIO8/SPI_~{CE0}*%
%TO.N,unconnected-(U1-GPIO8{slash}SPI_~{CE0}-Pad24)*%
X90800000Y-82480000D03*
%TO.P,U1,25,GND_25*%
%TO.N,GND*%
X88260000Y-85020000D03*
%TO.P,U1,26,GPIO7/SPI_~{CE1}*%
%TO.N,unconnected-(U1-GPIO7{slash}SPI_~{CE1}-Pad26)*%
X90800000Y-85020000D03*
%TO.P,U1,27,ID_SD*%
%TO.N,unconnected-(U1-ID_SD-Pad27)*%
X88260000Y-87560000D03*
%TO.P,U1,28,ID_SC*%
%TO.N,unconnected-(U1-ID_SC-Pad28)*%
X90800000Y-87560000D03*
%TO.P,U1,29,GPIO5*%
%TO.N,unconnected-(U1-GPIO5-Pad29)*%
X88260000Y-90100000D03*
%TO.P,U1,30,GND_30*%
%TO.N,GND*%
X90800000Y-90100000D03*
%TO.P,U1,31,GPIO6*%
%TO.N,unconnected-(U1-GPIO6-Pad31)*%
X88260000Y-92640000D03*
%TO.P,U1,32,GPIO12*%
%TO.N,unconnected-(U1-GPIO12-Pad32)*%
X90800000Y-92640000D03*
%TO.P,U1,33,GPIO13*%
%TO.N,unconnected-(U1-GPIO13-Pad33)*%
X88260000Y-95180000D03*
%TO.P,U1,34,GND_34*%
%TO.N,GND*%
X90800000Y-95180000D03*
%TO.P,U1,35,GPIO19*%
%TO.N,Vol_Down*%
X88260000Y-97720000D03*
%TO.P,U1,36,GPIO16*%
%TO.N,unconnected-(U1-GPIO16-Pad36)*%
X90800000Y-97720000D03*
%TO.P,U1,37,GPIO26*%
%TO.N,unconnected-(U1-GPIO26-Pad37)*%
X88260000Y-100260000D03*
%TO.P,U1,38,GPIO20*%
%TO.N,unconnected-(U1-GPIO20-Pad38)*%
X90800000Y-100260000D03*
%TO.P,U1,39,GND_39*%
%TO.N,GND*%
X88260000Y-102800000D03*
%TO.P,U1,40,GPIO21*%
%TO.N,unconnected-(U1-GPIO21-Pad40)*%
X90800000Y-102800000D03*
%TD*%
D14*
%TO.N,GND*%
X74600000Y-88700000D03*
X69250000Y-51500000D03*
X74700000Y-52500000D03*
X82700000Y-99500000D03*
X70800000Y-81500000D03*
X73000000Y-64500000D03*
X67750000Y-53000000D03*
X67900000Y-62800000D03*
X83500000Y-71200000D03*
X82400000Y-96300000D03*
X78000000Y-55200000D03*
X69250000Y-53000000D03*
X67900000Y-65400000D03*
X78600000Y-66300000D03*
X86000000Y-65000000D03*
X79300000Y-67600000D03*
X74800000Y-85000000D03*
X68000000Y-57900000D03*
X76300000Y-80700000D03*
X75100000Y-70100000D03*
X71400000Y-67000000D03*
X80700000Y-57600000D03*
X73500000Y-68100000D03*
%TD*%
D15*
%TO.N,+3.3V*%
X88260000Y-52760000D02*
X88260000Y-54540000D01*
X76360000Y-49400000D02*
X78260000Y-47500000D01*
X78260000Y-47500000D02*
X83000000Y-47500000D01*
X83000000Y-47500000D02*
X88260000Y-52760000D01*
%TO.N,SCK*%
X78900000Y-49400000D02*
X78900000Y-52400000D01*
X78900000Y-52400000D02*
X86120000Y-59620000D01*
X86120000Y-59620000D02*
X88260000Y-59620000D01*
%TO.N,SDA*%
X81440000Y-49400000D02*
X81440000Y-51940000D01*
X81440000Y-51940000D02*
X86580000Y-57080000D01*
X86580000Y-57080000D02*
X88260000Y-57080000D01*
%TD*%
%TA.AperFunction,Conductor*%
%TO.N,GND*%
G36*
X77838767Y-46670185D02*
G01*
X77884522Y-46722989D01*
X77894466Y-46792147D01*
X77865441Y-46855703D01*
X77840618Y-46877602D01*
X77781588Y-46917044D01*
X77781580Y-46917050D01*
X76668806Y-48029824D01*
X76607483Y-48063309D01*
X76561726Y-48064616D01*
X76466291Y-48049500D01*
X76466287Y-48049500D01*
X76253713Y-48049500D01*
X76205042Y-48057208D01*
X76043760Y-48082753D01*
X75841585Y-48148444D01*
X75652179Y-48244951D01*
X75480215Y-48369889D01*
X75366285Y-48483819D01*
X75304962Y-48517303D01*
X75235270Y-48512319D01*
X75179337Y-48470447D01*
X75162422Y-48439470D01*
X75113354Y-48307913D01*
X75113350Y-48307906D01*
X75027190Y-48192812D01*
X75027187Y-48192809D01*
X74912093Y-48106649D01*
X74912086Y-48106645D01*
X74777379Y-48056403D01*
X74777372Y-48056401D01*
X74717844Y-48050000D01*
X74070000Y-48050000D01*
X74070000Y-48966988D01*
X74012993Y-48934075D01*
X73885826Y-48900000D01*
X73754174Y-48900000D01*
X73627007Y-48934075D01*
X73570000Y-48966988D01*
X73570000Y-48050000D01*
X72922155Y-48050000D01*
X72862627Y-48056401D01*
X72862620Y-48056403D01*
X72727913Y-48106645D01*
X72727906Y-48106649D01*
X72612812Y-48192809D01*
X72612809Y-48192812D01*
X72526649Y-48307906D01*
X72526645Y-48307913D01*
X72476403Y-48442620D01*
X72476401Y-48442627D01*
X72470000Y-48502155D01*
X72470000Y-49150000D01*
X73386988Y-49150000D01*
X73354075Y-49207007D01*
X73320000Y-49334174D01*
X73320000Y-49465826D01*
X73354075Y-49592993D01*
X73386988Y-49650000D01*
X72470000Y-49650000D01*
X72470000Y-50297844D01*
X72476401Y-50357372D01*
X72476403Y-50357379D01*
X72526645Y-50492086D01*
X72526649Y-50492093D01*
X72612809Y-50607187D01*
X72612812Y-50607190D01*
X72727906Y-50693350D01*
X72727913Y-50693354D01*
X72862620Y-50743596D01*
X72862627Y-50743598D01*
X72922155Y-50749999D01*
X72922172Y-50750000D01*
X73570000Y-50750000D01*
X73570000Y-49833012D01*
X73627007Y-49865925D01*
X73754174Y-49900000D01*
X73885826Y-49900000D01*
X74012993Y-49865925D01*
X74070000Y-49833012D01*
X74070000Y-50750000D01*
X74717828Y-50750000D01*
X74717844Y-50749999D01*
X74777372Y-50743598D01*
X74777379Y-50743596D01*
X74912086Y-50693354D01*
X74912093Y-50693350D01*
X75027187Y-50607190D01*
X75027190Y-50607187D01*
X75113350Y-50492093D01*
X75113354Y-50492086D01*
X75162422Y-50360529D01*
X75204293Y-50304595D01*
X75269757Y-50280178D01*
X75338030Y-50295030D01*
X75366285Y-50316181D01*
X75480213Y-50430109D01*
X75652179Y-50555048D01*
X75652181Y-50555049D01*
X75652184Y-50555051D01*
X75841588Y-50651557D01*
X76043757Y-50717246D01*
X76253713Y-50750500D01*
X76253714Y-50750500D01*
X76466286Y-50750500D01*
X76466287Y-50750500D01*
X76676243Y-50717246D01*
X76878412Y-50651557D01*
X77067816Y-50555051D01*
X77154471Y-50492093D01*
X77239786Y-50430109D01*
X77239788Y-50430106D01*
X77239792Y-50430104D01*
X77390104Y-50279792D01*
X77390106Y-50279788D01*
X77390109Y-50279786D01*
X77515048Y-50107820D01*
X77515047Y-50107820D01*
X77515051Y-50107816D01*
X77519514Y-50099054D01*
X77567488Y-50048259D01*
X77635308Y-50031463D01*
X77701444Y-50053999D01*
X77740486Y-50099056D01*
X77744951Y-50107820D01*
X77869890Y-50279786D01*
X77869896Y-50279792D01*
X78020208Y-50430104D01*
X78098384Y-50486902D01*
X78141051Y-50542231D01*
X78149500Y-50587220D01*
X78149500Y-52473918D01*
X78149500Y-52473920D01*
X78149499Y-52473920D01*
X78178340Y-52618907D01*
X78178343Y-52618917D01*
X78234914Y-52755492D01*
X78267812Y-52804727D01*
X78267813Y-52804730D01*
X78317046Y-52878414D01*
X78317052Y-52878421D01*
X85641584Y-60202952D01*
X85641586Y-60202954D01*
X85671058Y-60222645D01*
X85715270Y-60252186D01*
X85764505Y-60285084D01*
X85764506Y-60285084D01*
X85764507Y-60285085D01*
X85764509Y-60285086D01*
X85867039Y-60327555D01*
X85901087Y-60341658D01*
X85901091Y-60341658D01*
X85901092Y-60341659D01*
X86046079Y-60370500D01*
X86046082Y-60370500D01*
X86046083Y-60370500D01*
X86193917Y-60370500D01*
X87072779Y-60370500D01*
X87139818Y-60390185D01*
X87173097Y-60421615D01*
X87229892Y-60499788D01*
X87380213Y-60650109D01*
X87552182Y-60775050D01*
X87560946Y-60779516D01*
X87611742Y-60827491D01*
X87628536Y-60895312D01*
X87605998Y-60961447D01*
X87560946Y-61000484D01*
X87552182Y-61004949D01*
X87380213Y-61129890D01*
X87229890Y-61280213D01*
X87104951Y-61452179D01*
X87008444Y-61641585D01*
X86942753Y-61843760D01*
X86909500Y-62053713D01*
X86909500Y-62266287D01*
X86942754Y-62476243D01*
X86989296Y-62619485D01*
X87008444Y-62678414D01*
X87104951Y-62867820D01*
X87229890Y-63039786D01*
X87380213Y-63190109D01*
X87552179Y-63315048D01*
X87552181Y-63315049D01*
X87552184Y-63315051D01*
X87561493Y-63319794D01*
X87612290Y-63367766D01*
X87629087Y-63435587D01*
X87606552Y-63501722D01*
X87561502Y-63540762D01*
X87552443Y-63545378D01*
X87380540Y-63670272D01*
X87380535Y-63670276D01*
X87230276Y-63820535D01*
X87230272Y-63820540D01*
X87105379Y-63992442D01*
X87008904Y-64181782D01*
X86943242Y-64383870D01*
X86943242Y-64383873D01*
X86932769Y-64450000D01*
X87826988Y-64450000D01*
X87794075Y-64507007D01*
X87760000Y-64634174D01*
X87760000Y-64765826D01*
X87794075Y-64892993D01*
X87826988Y-64950000D01*
X86932769Y-64950000D01*
X86943242Y-65016126D01*
X86943242Y-65016129D01*
X87008904Y-65218217D01*
X87105379Y-65407557D01*
X87230272Y-65579459D01*
X87230276Y-65579464D01*
X87380535Y-65729723D01*
X87380540Y-65729727D01*
X87552444Y-65854622D01*
X87561495Y-65859234D01*
X87612292Y-65907208D01*
X87629087Y-65975029D01*
X87606550Y-66041164D01*
X87561499Y-66080202D01*
X87552182Y-66084949D01*
X87380213Y-66209890D01*
X87229890Y-66360213D01*
X87104951Y-66532179D01*
X87008444Y-66721585D01*
X86942753Y-66923760D01*
X86909500Y-67133713D01*
X86909500Y-67346286D01*
X86942753Y-67556239D01*
X87008444Y-67758414D01*
X87104951Y-67947820D01*
X87229890Y-68119786D01*
X87380213Y-68270109D01*
X87552182Y-68395050D01*
X87560946Y-68399516D01*
X87611742Y-68447491D01*
X87628536Y-68515312D01*
X87605998Y-68581447D01*
X87560946Y-68620484D01*
X87552182Y-68624949D01*
X87380213Y-68749890D01*
X87229890Y-68900213D01*
X87104951Y-69072179D01*
X87008444Y-69261585D01*
X86942753Y-69463760D01*
X86909500Y-69673713D01*
X86909500Y-69886286D01*
X86942753Y-70096239D01*
X87008444Y-70298414D01*
X87104951Y-70487820D01*
X87229890Y-70659786D01*
X87380213Y-70810109D01*
X87552182Y-70935050D01*
X87560946Y-70939516D01*
X87611742Y-70987491D01*
X87628536Y-71055312D01*
X87605998Y-71121447D01*
X87560946Y-71160484D01*
X87552182Y-71164949D01*
X87380213Y-71289890D01*
X87229890Y-71440213D01*
X87104951Y-71612179D01*
X87008444Y-71801585D01*
X86942753Y-72003760D01*
X86909500Y-72213713D01*
X86909500Y-72426286D01*
X86942753Y-72636239D01*
X87008444Y-72838414D01*
X87104951Y-73027820D01*
X87229890Y-73199786D01*
X87380213Y-73350109D01*
X87552182Y-73475050D01*
X87560946Y-73479516D01*
X87611742Y-73527491D01*
X87628536Y-73595312D01*
X87605998Y-73661447D01*
X87560946Y-73700484D01*
X87552182Y-73704949D01*
X87380213Y-73829890D01*
X87229890Y-73980213D01*
X87104951Y-74152179D01*
X87008444Y-74341585D01*
X86942753Y-74543760D01*
X86909500Y-74753713D01*
X86909500Y-74966286D01*
X86942753Y-75176239D01*
X87008444Y-75378414D01*
X87104951Y-75567820D01*
X87229890Y-75739786D01*
X87380213Y-75890109D01*
X87552182Y-76015050D01*
X87560946Y-76019516D01*
X87611742Y-76067491D01*
X87628536Y-76135312D01*
X87605998Y-76201447D01*
X87560946Y-76240484D01*
X87552182Y-76244949D01*
X87380213Y-76369890D01*
X87229890Y-76520213D01*
X87104951Y-76692179D01*
X87008444Y-76881585D01*
X86942753Y-77083760D01*
X86909500Y-77293713D01*
X86909500Y-77506286D01*
X86942753Y-77716239D01*
X87008444Y-77918414D01*
X87104951Y-78107820D01*
X87229890Y-78279786D01*
X87380213Y-78430109D01*
X87552182Y-78555050D01*
X87560946Y-78559516D01*
X87611742Y-78607491D01*
X87628536Y-78675312D01*
X87605998Y-78741447D01*
X87560946Y-78780484D01*
X87552182Y-78784949D01*
X87380213Y-78909890D01*
X87229890Y-79060213D01*
X87104951Y-79232179D01*
X87008444Y-79421585D01*
X86942753Y-79623760D01*
X86909500Y-79833713D01*
X86909500Y-80046286D01*
X86942753Y-80256239D01*
X87008444Y-80458414D01*
X87104951Y-80647820D01*
X87229890Y-80819786D01*
X87380213Y-80970109D01*
X87552182Y-81095050D01*
X87560946Y-81099516D01*
X87611742Y-81147491D01*
X87628536Y-81215312D01*
X87605998Y-81281447D01*
X87560946Y-81320484D01*
X87552182Y-81324949D01*
X87380213Y-81449890D01*
X87229890Y-81600213D01*
X87104951Y-81772179D01*
X87008444Y-81961585D01*
X86942753Y-82163760D01*
X86909500Y-82373713D01*
X86909500Y-82586286D01*
X86942753Y-82796239D01*
X87008444Y-82998414D01*
X87104951Y-83187820D01*
X87229890Y-83359786D01*
X87380213Y-83510109D01*
X87552179Y-83635048D01*
X87552181Y-83635049D01*
X87552184Y-83635051D01*
X87561493Y-83639794D01*
X87612290Y-83687766D01*
X87629087Y-83755587D01*
X87606552Y-83821722D01*
X87561502Y-83860762D01*
X87552443Y-83865378D01*
X87380540Y-83990272D01*
X87380535Y-83990276D01*
X87230276Y-84140535D01*
X87230272Y-84140540D01*
X87105379Y-84312442D01*
X87008904Y-84501782D01*
X86943242Y-84703870D01*
X86943242Y-84703873D01*
X86932769Y-84770000D01*
X87826988Y-84770000D01*
X87794075Y-84827007D01*
X87760000Y-84954174D01*
X87760000Y-85085826D01*
X87794075Y-85212993D01*
X87826988Y-85270000D01*
X86932769Y-85270000D01*
X86943242Y-85336126D01*
X86943242Y-85336129D01*
X87008904Y-85538217D01*
X87105379Y-85727557D01*
X87230272Y-85899459D01*
X87230276Y-85899464D01*
X87380535Y-86049723D01*
X87380540Y-86049727D01*
X87552444Y-86174622D01*
X87561495Y-86179234D01*
X87612292Y-86227208D01*
X87629087Y-86295029D01*
X87606550Y-86361164D01*
X87561499Y-86400202D01*
X87552182Y-86404949D01*
X87380213Y-86529890D01*
X87229890Y-86680213D01*
X87104951Y-86852179D01*
X87008444Y-87041585D01*
X86942753Y-87243760D01*
X86909500Y-87453713D01*
X86909500Y-87666287D01*
X86942754Y-87876243D01*
X87006518Y-88072488D01*
X87008444Y-88078414D01*
X87104951Y-88267820D01*
X87229890Y-88439786D01*
X87380213Y-88590109D01*
X87552182Y-88715050D01*
X87560946Y-88719516D01*
X87611742Y-88767491D01*
X87628536Y-88835312D01*
X87605998Y-88901447D01*
X87560946Y-88940484D01*
X87552182Y-88944949D01*
X87380213Y-89069890D01*
X87229890Y-89220213D01*
X87104951Y-89392179D01*
X87008444Y-89581585D01*
X86942753Y-89783760D01*
X86909500Y-89993713D01*
X86909500Y-90206286D01*
X86929556Y-90332918D01*
X86942754Y-90416243D01*
X86986214Y-90550000D01*
X87008444Y-90618414D01*
X87104951Y-90807820D01*
X87229890Y-90979786D01*
X87380213Y-91130109D01*
X87552182Y-91255050D01*
X87560946Y-91259516D01*
X87611742Y-91307491D01*
X87628536Y-91375312D01*
X87605998Y-91441447D01*
X87560946Y-91480484D01*
X87552182Y-91484949D01*
X87380213Y-91609890D01*
X87229890Y-91760213D01*
X87104951Y-91932179D01*
X87008444Y-92121585D01*
X86942753Y-92323760D01*
X86909500Y-92533713D01*
X86909500Y-92746286D01*
X86942753Y-92956239D01*
X87008444Y-93158414D01*
X87104951Y-93347820D01*
X87229890Y-93519786D01*
X87380213Y-93670109D01*
X87552182Y-93795050D01*
X87560946Y-93799516D01*
X87611742Y-93847491D01*
X87628536Y-93915312D01*
X87605998Y-93981447D01*
X87560946Y-94020484D01*
X87552182Y-94024949D01*
X87380213Y-94149890D01*
X87229890Y-94300213D01*
X87104951Y-94472179D01*
X87008444Y-94661585D01*
X86942753Y-94863760D01*
X86909500Y-95073713D01*
X86909500Y-95286286D01*
X86939799Y-95477591D01*
X86942754Y-95496243D01*
X86998591Y-95668092D01*
X87008444Y-95698414D01*
X87104951Y-95887820D01*
X87229890Y-96059786D01*
X87380213Y-96210109D01*
X87552182Y-96335050D01*
X87560946Y-96339516D01*
X87611742Y-96387491D01*
X87628536Y-96455312D01*
X87605998Y-96521447D01*
X87560946Y-96560484D01*
X87552182Y-96564949D01*
X87380213Y-96689890D01*
X87229890Y-96840213D01*
X87104951Y-97012179D01*
X87008444Y-97201585D01*
X86942753Y-97403760D01*
X86909500Y-97613713D01*
X86909500Y-97826286D01*
X86937013Y-98000000D01*
X86942754Y-98036243D01*
X87001374Y-98216657D01*
X87008444Y-98238414D01*
X87104951Y-98427820D01*
X87229890Y-98599786D01*
X87380213Y-98750109D01*
X87552182Y-98875050D01*
X87560946Y-98879516D01*
X87611742Y-98927491D01*
X87628536Y-98995312D01*
X87605998Y-99061447D01*
X87560946Y-99100484D01*
X87552182Y-99104949D01*
X87380213Y-99229890D01*
X87229890Y-99380213D01*
X87104951Y-99552179D01*
X87008444Y-99741585D01*
X86942753Y-99943760D01*
X86921840Y-100075802D01*
X86909500Y-100153713D01*
X86909500Y-100366287D01*
X86942754Y-100576243D01*
X86990327Y-100722658D01*
X87008444Y-100778414D01*
X87104951Y-100967820D01*
X87229890Y-101139786D01*
X87380213Y-101290109D01*
X87552179Y-101415048D01*
X87552181Y-101415049D01*
X87552184Y-101415051D01*
X87561493Y-101419794D01*
X87612290Y-101467766D01*
X87629087Y-101535587D01*
X87606552Y-101601722D01*
X87561502Y-101640762D01*
X87552443Y-101645378D01*
X87380540Y-101770272D01*
X87380535Y-101770276D01*
X87230276Y-101920535D01*
X87230272Y-101920540D01*
X87105379Y-102092442D01*
X87008904Y-102281782D01*
X86943242Y-102483870D01*
X86943242Y-102483873D01*
X86932769Y-102550000D01*
X87826988Y-102550000D01*
X87794075Y-102607007D01*
X87760000Y-102734174D01*
X87760000Y-102865826D01*
X87794075Y-102992993D01*
X87826988Y-103050000D01*
X86932769Y-103050000D01*
X86943242Y-103116126D01*
X86943242Y-103116129D01*
X87008904Y-103318217D01*
X87105379Y-103507557D01*
X87230272Y-103679459D01*
X87230276Y-103679464D01*
X87380535Y-103829723D01*
X87380540Y-103829727D01*
X87552442Y-103954620D01*
X87741782Y-104051095D01*
X87943871Y-104116757D01*
X88010000Y-104127231D01*
X88010000Y-103233012D01*
X88067007Y-103265925D01*
X88194174Y-103300000D01*
X88325826Y-103300000D01*
X88452993Y-103265925D01*
X88510000Y-103233012D01*
X88510000Y-104127230D01*
X88576126Y-104116757D01*
X88576129Y-104116757D01*
X88778217Y-104051095D01*
X88967557Y-103954620D01*
X89139459Y-103829727D01*
X89139464Y-103829723D01*
X89289723Y-103679464D01*
X89289727Y-103679459D01*
X89414620Y-103507558D01*
X89419232Y-103498507D01*
X89467205Y-103447709D01*
X89535025Y-103430912D01*
X89601161Y-103453447D01*
X89640204Y-103498504D01*
X89644949Y-103507817D01*
X89769890Y-103679786D01*
X89920213Y-103830109D01*
X90092179Y-103955048D01*
X90092181Y-103955049D01*
X90092184Y-103955051D01*
X90281588Y-104051557D01*
X90483757Y-104117246D01*
X90693713Y-104150500D01*
X90693714Y-104150500D01*
X90906286Y-104150500D01*
X90906287Y-104150500D01*
X91116243Y-104117246D01*
X91318412Y-104051557D01*
X91507816Y-103955051D01*
X91529789Y-103939086D01*
X91679786Y-103830109D01*
X91679788Y-103830106D01*
X91679792Y-103830104D01*
X91830104Y-103679792D01*
X91830106Y-103679788D01*
X91830109Y-103679786D01*
X91955048Y-103507820D01*
X91955050Y-103507817D01*
X91955051Y-103507816D01*
X92051557Y-103318412D01*
X92117246Y-103116243D01*
X92150500Y-102906287D01*
X92150500Y-102693713D01*
X92117246Y-102483757D01*
X92051557Y-102281588D01*
X91955051Y-102092184D01*
X91955049Y-102092181D01*
X91955048Y-102092179D01*
X91830109Y-101920213D01*
X91679786Y-101769890D01*
X91507820Y-101644951D01*
X91499600Y-101640763D01*
X91499054Y-101640485D01*
X91448259Y-101592512D01*
X91431463Y-101524692D01*
X91453999Y-101458556D01*
X91499054Y-101419515D01*
X91507816Y-101415051D01*
X91529789Y-101399086D01*
X91679786Y-101290109D01*
X91679788Y-101290106D01*
X91679792Y-101290104D01*
X91830104Y-101139792D01*
X91830106Y-101139788D01*
X91830109Y-101139786D01*
X91955048Y-100967820D01*
X91955047Y-100967820D01*
X91955051Y-100967816D01*
X92051557Y-100778412D01*
X92117246Y-100576243D01*
X92150500Y-100366287D01*
X92150500Y-100153713D01*
X92117246Y-99943757D01*
X92051557Y-99741588D01*
X91955051Y-99552184D01*
X91955049Y-99552181D01*
X91955048Y-99552179D01*
X91830109Y-99380213D01*
X91679786Y-99229890D01*
X91507820Y-99104951D01*
X91507115Y-99104591D01*
X91499054Y-99100485D01*
X91448259Y-99052512D01*
X91431463Y-98984692D01*
X91453999Y-98918556D01*
X91499054Y-98879515D01*
X91507816Y-98875051D01*
X91529789Y-98859086D01*
X91679786Y-98750109D01*
X91679788Y-98750106D01*
X91679792Y-98750104D01*
X91830104Y-98599792D01*
X91830106Y-98599788D01*
X91830109Y-98599786D01*
X91955048Y-98427820D01*
X91955047Y-98427820D01*
X91955051Y-98427816D01*
X92051557Y-98238412D01*
X92117246Y-98036243D01*
X92150500Y-97826287D01*
X92150500Y-97613713D01*
X92117246Y-97403757D01*
X92051557Y-97201588D01*
X91955051Y-97012184D01*
X91955049Y-97012181D01*
X91955048Y-97012179D01*
X91830109Y-96840213D01*
X91679786Y-96689890D01*
X91507817Y-96564949D01*
X91498504Y-96560204D01*
X91447707Y-96512230D01*
X91430912Y-96444409D01*
X91453449Y-96378274D01*
X91498507Y-96339232D01*
X91507558Y-96334620D01*
X91679459Y-96209727D01*
X91679464Y-96209723D01*
X91829723Y-96059464D01*
X91829727Y-96059459D01*
X91954620Y-95887557D01*
X92051095Y-95698217D01*
X92116757Y-95496129D01*
X92116757Y-95496126D01*
X92127231Y-95430000D01*
X91233012Y-95430000D01*
X91265925Y-95372993D01*
X91300000Y-95245826D01*
X91300000Y-95114174D01*
X91265925Y-94987007D01*
X91233012Y-94930000D01*
X92127231Y-94930000D01*
X92116757Y-94863873D01*
X92116757Y-94863870D01*
X92051095Y-94661782D01*
X91954620Y-94472442D01*
X91829727Y-94300540D01*
X91829723Y-94300535D01*
X91679464Y-94150276D01*
X91679459Y-94150272D01*
X91507555Y-94025377D01*
X91498500Y-94020763D01*
X91447706Y-93972788D01*
X91430912Y-93904966D01*
X91453451Y-93838832D01*
X91498508Y-93799793D01*
X91507816Y-93795051D01*
X91587007Y-93737515D01*
X91679786Y-93670109D01*
X91679788Y-93670106D01*
X91679792Y-93670104D01*
X91830104Y-93519792D01*
X91830106Y-93519788D01*
X91830109Y-93519786D01*
X91955048Y-93347820D01*
X91955047Y-93347820D01*
X91955051Y-93347816D01*
X92051557Y-93158412D01*
X92117246Y-92956243D01*
X92150500Y-92746287D01*
X92150500Y-92533713D01*
X92117246Y-92323757D01*
X92051557Y-92121588D01*
X91955051Y-91932184D01*
X91955049Y-91932181D01*
X91955048Y-91932179D01*
X91830109Y-91760213D01*
X91679786Y-91609890D01*
X91507817Y-91484949D01*
X91498504Y-91480204D01*
X91447707Y-91432230D01*
X91430912Y-91364409D01*
X91453449Y-91298274D01*
X91498507Y-91259232D01*
X91507558Y-91254620D01*
X91679459Y-91129727D01*
X91679464Y-91129723D01*
X91829723Y-90979464D01*
X91829727Y-90979459D01*
X91954620Y-90807557D01*
X92051095Y-90618217D01*
X92116757Y-90416129D01*
X92116757Y-90416126D01*
X92127231Y-90350000D01*
X91233012Y-90350000D01*
X91265925Y-90292993D01*
X91300000Y-90165826D01*
X91300000Y-90034174D01*
X91265925Y-89907007D01*
X91233012Y-89850000D01*
X92127231Y-89850000D01*
X92116757Y-89783873D01*
X92116757Y-89783870D01*
X92051095Y-89581782D01*
X91954620Y-89392442D01*
X91829727Y-89220540D01*
X91829723Y-89220535D01*
X91679464Y-89070276D01*
X91679459Y-89070272D01*
X91507555Y-88945377D01*
X91498500Y-88940763D01*
X91447706Y-88892788D01*
X91430912Y-88824966D01*
X91453451Y-88758832D01*
X91498508Y-88719793D01*
X91507816Y-88715051D01*
X91652559Y-88609890D01*
X91679786Y-88590109D01*
X91679788Y-88590106D01*
X91679792Y-88590104D01*
X91830104Y-88439792D01*
X91830106Y-88439788D01*
X91830109Y-88439786D01*
X91955048Y-88267820D01*
X91955047Y-88267820D01*
X91955051Y-88267816D01*
X92051557Y-88078412D01*
X92117246Y-87876243D01*
X92150500Y-87666287D01*
X92150500Y-87453713D01*
X92117246Y-87243757D01*
X92051557Y-87041588D01*
X91955051Y-86852184D01*
X91955049Y-86852181D01*
X91955048Y-86852179D01*
X91830109Y-86680213D01*
X91679786Y-86529890D01*
X91507820Y-86404951D01*
X91507115Y-86404591D01*
X91499054Y-86400485D01*
X91448259Y-86352512D01*
X91431463Y-86284692D01*
X91453999Y-86218556D01*
X91499054Y-86179515D01*
X91507816Y-86175051D01*
X91549847Y-86144514D01*
X91679786Y-86050109D01*
X91679788Y-86050106D01*
X91679792Y-86050104D01*
X91830104Y-85899792D01*
X91830106Y-85899788D01*
X91830109Y-85899786D01*
X91955048Y-85727820D01*
X91955050Y-85727817D01*
X91955051Y-85727816D01*
X92051557Y-85538412D01*
X92117246Y-85336243D01*
X92150500Y-85126287D01*
X92150500Y-84913713D01*
X92117246Y-84703757D01*
X92051557Y-84501588D01*
X91955051Y-84312184D01*
X91955049Y-84312181D01*
X91955048Y-84312179D01*
X91830109Y-84140213D01*
X91679786Y-83989890D01*
X91507820Y-83864951D01*
X91499600Y-83860763D01*
X91499054Y-83860485D01*
X91448259Y-83812512D01*
X91431463Y-83744692D01*
X91453999Y-83678556D01*
X91499054Y-83639515D01*
X91507816Y-83635051D01*
X91543078Y-83609432D01*
X91679786Y-83510109D01*
X91679788Y-83510106D01*
X91679792Y-83510104D01*
X91830104Y-83359792D01*
X91830106Y-83359788D01*
X91830109Y-83359786D01*
X91955048Y-83187820D01*
X91955047Y-83187820D01*
X91955051Y-83187816D01*
X92051557Y-82998412D01*
X92117246Y-82796243D01*
X92150500Y-82586287D01*
X92150500Y-82373713D01*
X92117246Y-82163757D01*
X92051557Y-81961588D01*
X91955051Y-81772184D01*
X91955049Y-81772181D01*
X91955048Y-81772179D01*
X91830109Y-81600213D01*
X91679786Y-81449890D01*
X91507820Y-81324951D01*
X91507115Y-81324591D01*
X91499054Y-81320485D01*
X91448259Y-81272512D01*
X91431463Y-81204692D01*
X91453999Y-81138556D01*
X91499054Y-81099515D01*
X91507816Y-81095051D01*
X91529789Y-81079086D01*
X91679786Y-80970109D01*
X91679788Y-80970106D01*
X91679792Y-80970104D01*
X91830104Y-80819792D01*
X91830106Y-80819788D01*
X91830109Y-80819786D01*
X91955048Y-80647820D01*
X91955047Y-80647820D01*
X91955051Y-80647816D01*
X92051557Y-80458412D01*
X92117246Y-80256243D01*
X92150500Y-80046287D01*
X92150500Y-79833713D01*
X92117246Y-79623757D01*
X92051557Y-79421588D01*
X91955051Y-79232184D01*
X91955049Y-79232181D01*
X91955048Y-79232179D01*
X91830109Y-79060213D01*
X91679786Y-78909890D01*
X91507817Y-78784949D01*
X91498504Y-78780204D01*
X91447707Y-78732230D01*
X91430912Y-78664409D01*
X91453449Y-78598274D01*
X91498507Y-78559232D01*
X91507558Y-78554620D01*
X91679459Y-78429727D01*
X91679464Y-78429723D01*
X91829723Y-78279464D01*
X91829727Y-78279459D01*
X91954620Y-78107557D01*
X92051095Y-77918217D01*
X92116757Y-77716129D01*
X92116757Y-77716126D01*
X92127231Y-77650000D01*
X91233012Y-77650000D01*
X91265925Y-77592993D01*
X91300000Y-77465826D01*
X91300000Y-77334174D01*
X91265925Y-77207007D01*
X91233012Y-77150000D01*
X92127231Y-77150000D01*
X92116757Y-77083873D01*
X92116757Y-77083870D01*
X92051095Y-76881782D01*
X91954620Y-76692442D01*
X91829727Y-76520540D01*
X91829723Y-76520535D01*
X91679464Y-76370276D01*
X91679459Y-76370272D01*
X91507555Y-76245377D01*
X91498500Y-76240763D01*
X91447706Y-76192788D01*
X91430912Y-76124966D01*
X91453451Y-76058832D01*
X91498508Y-76019793D01*
X91507816Y-76015051D01*
X91587007Y-75957515D01*
X91679786Y-75890109D01*
X91679788Y-75890106D01*
X91679792Y-75890104D01*
X91830104Y-75739792D01*
X91830106Y-75739788D01*
X91830109Y-75739786D01*
X91955048Y-75567820D01*
X91955047Y-75567820D01*
X91955051Y-75567816D01*
X92051557Y-75378412D01*
X92117246Y-75176243D01*
X92150500Y-74966287D01*
X92150500Y-74753713D01*
X92117246Y-74543757D01*
X92051557Y-74341588D01*
X91955051Y-74152184D01*
X91955049Y-74152181D01*
X91955048Y-74152179D01*
X91830109Y-73980213D01*
X91679786Y-73829890D01*
X91507820Y-73704951D01*
X91507115Y-73704591D01*
X91499054Y-73700485D01*
X91448259Y-73652512D01*
X91431463Y-73584692D01*
X91453999Y-73518556D01*
X91499054Y-73479515D01*
X91507816Y-73475051D01*
X91529789Y-73459086D01*
X91679786Y-73350109D01*
X91679788Y-73350106D01*
X91679792Y-73350104D01*
X91830104Y-73199792D01*
X91830106Y-73199788D01*
X91830109Y-73199786D01*
X91955048Y-73027820D01*
X91955047Y-73027820D01*
X91955051Y-73027816D01*
X92051557Y-72838412D01*
X92117246Y-72636243D01*
X92150500Y-72426287D01*
X92150500Y-72213713D01*
X92117246Y-72003757D01*
X92051557Y-71801588D01*
X91955051Y-71612184D01*
X91955049Y-71612181D01*
X91955048Y-71612179D01*
X91830109Y-71440213D01*
X91679786Y-71289890D01*
X91507817Y-71164949D01*
X91498504Y-71160204D01*
X91447707Y-71112230D01*
X91430912Y-71044409D01*
X91453449Y-70978274D01*
X91498507Y-70939232D01*
X91507558Y-70934620D01*
X91679459Y-70809727D01*
X91679464Y-70809723D01*
X91829723Y-70659464D01*
X91829727Y-70659459D01*
X91954620Y-70487557D01*
X92051095Y-70298217D01*
X92116757Y-70096129D01*
X92116757Y-70096126D01*
X92127231Y-70030000D01*
X91233012Y-70030000D01*
X91265925Y-69972993D01*
X91300000Y-69845826D01*
X91300000Y-69714174D01*
X91265925Y-69587007D01*
X91233012Y-69530000D01*
X92127231Y-69530000D01*
X92116757Y-69463873D01*
X92116757Y-69463870D01*
X92051095Y-69261782D01*
X91954620Y-69072442D01*
X91829727Y-68900540D01*
X91829723Y-68900535D01*
X91679464Y-68750276D01*
X91679459Y-68750272D01*
X91507555Y-68625377D01*
X91498500Y-68620763D01*
X91447706Y-68572788D01*
X91430912Y-68504966D01*
X91453451Y-68438832D01*
X91498508Y-68399793D01*
X91507816Y-68395051D01*
X91587007Y-68337515D01*
X91679786Y-68270109D01*
X91679788Y-68270106D01*
X91679792Y-68270104D01*
X91830104Y-68119792D01*
X91830106Y-68119788D01*
X91830109Y-68119786D01*
X91955048Y-67947820D01*
X91955047Y-67947820D01*
X91955051Y-67947816D01*
X92051557Y-67758412D01*
X92117246Y-67556243D01*
X92150500Y-67346287D01*
X92150500Y-67133713D01*
X92117246Y-66923757D01*
X92051557Y-66721588D01*
X91955051Y-66532184D01*
X91955049Y-66532181D01*
X91955048Y-66532179D01*
X91830109Y-66360213D01*
X91679786Y-66209890D01*
X91507820Y-66084951D01*
X91507115Y-66084591D01*
X91499054Y-66080485D01*
X91448259Y-66032512D01*
X91431463Y-65964692D01*
X91453999Y-65898556D01*
X91499054Y-65859515D01*
X91507816Y-65855051D01*
X91529789Y-65839086D01*
X91679786Y-65730109D01*
X91679788Y-65730106D01*
X91679792Y-65730104D01*
X91830104Y-65579792D01*
X91830106Y-65579788D01*
X91830109Y-65579786D01*
X91955048Y-65407820D01*
X91955050Y-65407817D01*
X91955051Y-65407816D01*
X92051557Y-65218412D01*
X92117246Y-65016243D01*
X92150500Y-64806287D01*
X92150500Y-64593713D01*
X92117246Y-64383757D01*
X92051557Y-64181588D01*
X91955051Y-63992184D01*
X91955049Y-63992181D01*
X91955048Y-63992179D01*
X91830109Y-63820213D01*
X91679786Y-63669890D01*
X91507820Y-63544951D01*
X91499600Y-63540763D01*
X91499054Y-63540485D01*
X91448259Y-63492512D01*
X91431463Y-63424692D01*
X91453999Y-63358556D01*
X91499054Y-63319515D01*
X91507816Y-63315051D01*
X91529789Y-63299086D01*
X91679786Y-63190109D01*
X91679788Y-63190106D01*
X91679792Y-63190104D01*
X91830104Y-63039792D01*
X91830106Y-63039788D01*
X91830109Y-63039786D01*
X91955048Y-62867820D01*
X91955047Y-62867820D01*
X91955051Y-62867816D01*
X92051557Y-62678412D01*
X92117246Y-62476243D01*
X92150500Y-62266287D01*
X92150500Y-62053713D01*
X92117246Y-61843757D01*
X92051557Y-61641588D01*
X91955051Y-61452184D01*
X91955049Y-61452181D01*
X91955048Y-61452179D01*
X91830109Y-61280213D01*
X91679786Y-61129890D01*
X91507817Y-61004949D01*
X91498504Y-61000204D01*
X91447707Y-60952230D01*
X91430912Y-60884409D01*
X91453449Y-60818274D01*
X91498507Y-60779232D01*
X91507558Y-60774620D01*
X91679459Y-60649727D01*
X91679464Y-60649723D01*
X91829723Y-60499464D01*
X91829727Y-60499459D01*
X91954620Y-60327557D01*
X92051095Y-60138217D01*
X92116757Y-59936129D01*
X92116757Y-59936126D01*
X92127231Y-59870000D01*
X91233012Y-59870000D01*
X91265925Y-59812993D01*
X91300000Y-59685826D01*
X91300000Y-59554174D01*
X91265925Y-59427007D01*
X91233012Y-59370000D01*
X92127231Y-59370000D01*
X92116757Y-59303873D01*
X92116757Y-59303870D01*
X92051095Y-59101782D01*
X91954620Y-58912442D01*
X91829727Y-58740540D01*
X91829723Y-58740535D01*
X91679464Y-58590276D01*
X91679459Y-58590272D01*
X91507555Y-58465377D01*
X91498500Y-58460763D01*
X91447706Y-58412788D01*
X91430912Y-58344966D01*
X91453451Y-58278832D01*
X91498508Y-58239793D01*
X91507816Y-58235051D01*
X91587007Y-58177515D01*
X91679786Y-58110109D01*
X91679788Y-58110106D01*
X91679792Y-58110104D01*
X91830104Y-57959792D01*
X91830106Y-57959788D01*
X91830109Y-57959786D01*
X91955048Y-57787820D01*
X91955047Y-57787820D01*
X91955051Y-57787816D01*
X92051557Y-57598412D01*
X92117246Y-57396243D01*
X92150500Y-57186287D01*
X92150500Y-56973713D01*
X92117246Y-56763757D01*
X92051557Y-56561588D01*
X91955051Y-56372184D01*
X91955049Y-56372181D01*
X91955048Y-56372179D01*
X91830109Y-56200213D01*
X91679786Y-56049890D01*
X91507820Y-55924951D01*
X91507115Y-55924591D01*
X91499054Y-55920485D01*
X91448259Y-55872512D01*
X91431463Y-55804692D01*
X91453999Y-55738556D01*
X91499054Y-55699515D01*
X91507816Y-55695051D01*
X91594138Y-55632335D01*
X91679786Y-55570109D01*
X91679788Y-55570106D01*
X91679792Y-55570104D01*
X91830104Y-55419792D01*
X91830106Y-55419788D01*
X91830109Y-55419786D01*
X91955048Y-55247820D01*
X91955047Y-55247820D01*
X91955051Y-55247816D01*
X92051557Y-55058412D01*
X92117246Y-54856243D01*
X92150500Y-54646287D01*
X92150500Y-54433713D01*
X92117246Y-54223757D01*
X92051557Y-54021588D01*
X91955051Y-53832184D01*
X91955049Y-53832181D01*
X91955048Y-53832179D01*
X91830109Y-53660213D01*
X91679786Y-53509890D01*
X91507820Y-53384951D01*
X91318414Y-53288444D01*
X91318413Y-53288443D01*
X91318412Y-53288443D01*
X91116243Y-53222754D01*
X91116241Y-53222753D01*
X91116240Y-53222753D01*
X90954957Y-53197208D01*
X90906287Y-53189500D01*
X90693713Y-53189500D01*
X90645042Y-53197208D01*
X90483760Y-53222753D01*
X90281585Y-53288444D01*
X90092179Y-53384951D01*
X89920215Y-53509889D01*
X89806673Y-53623431D01*
X89745350Y-53656915D01*
X89675658Y-53651931D01*
X89619725Y-53610059D01*
X89602810Y-53579082D01*
X89553797Y-53447671D01*
X89553793Y-53447664D01*
X89467547Y-53332455D01*
X89467544Y-53332452D01*
X89352335Y-53246206D01*
X89352328Y-53246202D01*
X89217482Y-53195908D01*
X89217483Y-53195908D01*
X89157883Y-53189501D01*
X89157881Y-53189500D01*
X89157873Y-53189500D01*
X89157865Y-53189500D01*
X89134500Y-53189500D01*
X89067461Y-53169815D01*
X89021706Y-53117011D01*
X89010500Y-53065500D01*
X89010500Y-52686079D01*
X88981659Y-52541092D01*
X88981658Y-52541091D01*
X88981658Y-52541087D01*
X88953836Y-52473918D01*
X88925087Y-52404511D01*
X88925080Y-52404498D01*
X88842952Y-52281585D01*
X88842951Y-52281584D01*
X88738416Y-52177049D01*
X87471229Y-50909862D01*
X86186247Y-49624879D01*
X86103438Y-49542070D01*
X87904500Y-49542070D01*
X87904500Y-49797930D01*
X87915270Y-49865925D01*
X87944526Y-50050640D01*
X88023588Y-50293972D01*
X88023589Y-50293975D01*
X88057501Y-50360529D01*
X88138848Y-50520181D01*
X88139750Y-50521950D01*
X88290132Y-50728935D01*
X88290136Y-50728940D01*
X88471059Y-50909863D01*
X88471064Y-50909867D01*
X88651607Y-51041038D01*
X88678053Y-51060252D01*
X88827080Y-51136185D01*
X88906024Y-51176410D01*
X88906027Y-51176411D01*
X89027693Y-51215942D01*
X89149361Y-51255474D01*
X89402070Y-51295500D01*
X89402071Y-51295500D01*
X89657929Y-51295500D01*
X89657930Y-51295500D01*
X89910639Y-51255474D01*
X90153975Y-51176410D01*
X90381947Y-51060252D01*
X90588942Y-50909862D01*
X90769862Y-50728942D01*
X90920252Y-50521947D01*
X91036410Y-50293975D01*
X91115474Y-50050639D01*
X91155500Y-49797930D01*
X91155500Y-49542070D01*
X91115474Y-49289361D01*
X91036410Y-49046025D01*
X91036410Y-49046024D01*
X90962006Y-48900000D01*
X90920252Y-48818053D01*
X90884276Y-48768536D01*
X90769867Y-48611064D01*
X90769863Y-48611059D01*
X90588940Y-48430136D01*
X90588935Y-48430132D01*
X90381950Y-48279750D01*
X90381949Y-48279749D01*
X90381947Y-48279748D01*
X90308910Y-48242533D01*
X90153975Y-48163589D01*
X90153972Y-48163588D01*
X89910640Y-48084526D01*
X89733068Y-48056401D01*
X89657930Y-48044500D01*
X89402070Y-48044500D01*
X89326932Y-48056401D01*
X89149359Y-48084526D01*
X88906027Y-48163588D01*
X88906024Y-48163589D01*
X88678049Y-48279750D01*
X88471064Y-48430132D01*
X88471059Y-48430136D01*
X88290136Y-48611059D01*
X88290132Y-48611064D01*
X88139750Y-48818049D01*
X88023589Y-49046024D01*
X88023588Y-49046027D01*
X87944526Y-49289359D01*
X87916700Y-49465046D01*
X87904500Y-49542070D01*
X86103438Y-49542070D01*
X83478421Y-46917052D01*
X83478414Y-46917046D01*
X83419381Y-46877602D01*
X83374575Y-46823990D01*
X83365868Y-46754665D01*
X83396022Y-46691638D01*
X83455465Y-46654918D01*
X83488271Y-46650500D01*
X89484108Y-46650500D01*
X89546754Y-46650500D01*
X89553243Y-46650669D01*
X89634298Y-46654918D01*
X89857046Y-46666592D01*
X89869953Y-46667949D01*
X90001089Y-46688718D01*
X90167209Y-46715028D01*
X90179896Y-46717724D01*
X90470625Y-46795625D01*
X90482965Y-46799635D01*
X90763938Y-46907490D01*
X90775790Y-46912767D01*
X91043968Y-47049411D01*
X91055199Y-47055896D01*
X91307608Y-47219812D01*
X91318109Y-47227441D01*
X91552010Y-47416850D01*
X91561655Y-47425535D01*
X91774464Y-47638344D01*
X91783149Y-47647989D01*
X91972558Y-47881890D01*
X91980187Y-47892391D01*
X92144101Y-48144796D01*
X92150591Y-48156036D01*
X92287231Y-48424206D01*
X92292510Y-48436064D01*
X92400363Y-48717033D01*
X92404374Y-48729376D01*
X92482273Y-49020097D01*
X92484971Y-49032794D01*
X92532050Y-49330046D01*
X92533407Y-49342953D01*
X92549330Y-49646756D01*
X92549500Y-49653246D01*
X92549500Y-107646753D01*
X92549330Y-107653243D01*
X92533407Y-107957046D01*
X92532050Y-107969953D01*
X92484971Y-108267205D01*
X92482273Y-108279902D01*
X92404374Y-108570623D01*
X92400363Y-108582966D01*
X92292510Y-108863935D01*
X92287231Y-108875793D01*
X92150591Y-109143963D01*
X92144101Y-109155203D01*
X91980187Y-109407608D01*
X91972558Y-109418109D01*
X91783149Y-109652010D01*
X91774464Y-109661655D01*
X91561655Y-109874464D01*
X91552010Y-109883149D01*
X91318109Y-110072558D01*
X91307608Y-110080187D01*
X91055203Y-110244101D01*
X91043963Y-110250591D01*
X90775793Y-110387231D01*
X90763935Y-110392510D01*
X90482966Y-110500363D01*
X90470623Y-110504374D01*
X90179902Y-110582273D01*
X90167205Y-110584971D01*
X89869953Y-110632050D01*
X89857046Y-110633407D01*
X89553244Y-110649330D01*
X89546754Y-110649500D01*
X66553246Y-110649500D01*
X66546756Y-110649330D01*
X66242953Y-110633407D01*
X66230046Y-110632050D01*
X65932794Y-110584971D01*
X65920097Y-110582273D01*
X65629376Y-110504374D01*
X65617033Y-110500363D01*
X65336064Y-110392510D01*
X65324206Y-110387231D01*
X65056036Y-110250591D01*
X65044796Y-110244101D01*
X64792391Y-110080187D01*
X64781890Y-110072558D01*
X64547989Y-109883149D01*
X64538344Y-109874464D01*
X64325535Y-109661655D01*
X64316850Y-109652010D01*
X64127441Y-109418109D01*
X64119812Y-109407608D01*
X64047008Y-109295500D01*
X63955896Y-109155199D01*
X63949408Y-109143963D01*
X63906753Y-109060249D01*
X63812767Y-108875790D01*
X63807489Y-108863935D01*
X63755670Y-108728942D01*
X63699635Y-108582965D01*
X63695625Y-108570623D01*
X63617726Y-108279902D01*
X63615028Y-108267205D01*
X63567949Y-107969953D01*
X63566592Y-107957046D01*
X63550670Y-107653243D01*
X63550500Y-107646753D01*
X63550500Y-107542070D01*
X64904500Y-107542070D01*
X64904500Y-107797929D01*
X64944526Y-108050640D01*
X65023588Y-108293972D01*
X65023589Y-108293975D01*
X65139750Y-108521950D01*
X65290132Y-108728935D01*
X65290136Y-108728940D01*
X65471059Y-108909863D01*
X65471064Y-108909867D01*
X65651607Y-109041038D01*
X65678053Y-109060252D01*
X65827080Y-109136185D01*
X65906024Y-109176410D01*
X65906027Y-109176411D01*
X66027693Y-109215942D01*
X66149361Y-109255474D01*
X66402070Y-109295500D01*
X66402071Y-109295500D01*
X66657929Y-109295500D01*
X66657930Y-109295500D01*
X66910639Y-109255474D01*
X67153975Y-109176410D01*
X67381947Y-109060252D01*
X67588942Y-108909862D01*
X67769862Y-108728942D01*
X67920252Y-108521947D01*
X68036410Y-108293975D01*
X68115474Y-108050639D01*
X68155500Y-107797930D01*
X68155500Y-107542070D01*
X87904500Y-107542070D01*
X87904500Y-107797929D01*
X87944526Y-108050640D01*
X88023588Y-108293972D01*
X88023589Y-108293975D01*
X88139750Y-108521950D01*
X88290132Y-108728935D01*
X88290136Y-108728940D01*
X88471059Y-108909863D01*
X88471064Y-108909867D01*
X88651607Y-109041038D01*
X88678053Y-109060252D01*
X88827080Y-109136185D01*
X88906024Y-109176410D01*
X88906027Y-109176411D01*
X89027693Y-109215942D01*
X89149361Y-109255474D01*
X89402070Y-109295500D01*
X89402071Y-109295500D01*
X89657929Y-109295500D01*
X89657930Y-109295500D01*
X89910639Y-109255474D01*
X90153975Y-109176410D01*
X90381947Y-109060252D01*
X90588942Y-108909862D01*
X90769862Y-108728942D01*
X90920252Y-108521947D01*
X91036410Y-108293975D01*
X91115474Y-108050639D01*
X91155500Y-107797930D01*
X91155500Y-107542070D01*
X91115474Y-107289361D01*
X91036410Y-107046025D01*
X91036410Y-107046024D01*
X90996185Y-106967080D01*
X90920252Y-106818053D01*
X90897083Y-106786164D01*
X90769867Y-106611064D01*
X90769863Y-106611059D01*
X90588940Y-106430136D01*
X90588935Y-106430132D01*
X90381950Y-106279750D01*
X90381949Y-106279749D01*
X90381947Y-106279748D01*
X90249560Y-106212293D01*
X90153975Y-106163589D01*
X90153972Y-106163588D01*
X89910640Y-106084526D01*
X89784284Y-106064513D01*
X89657930Y-106044500D01*
X89402070Y-106044500D01*
X89317833Y-106057842D01*
X89149359Y-106084526D01*
X88906027Y-106163588D01*
X88906024Y-106163589D01*
X88678049Y-106279750D01*
X88471064Y-106430132D01*
X88471059Y-106430136D01*
X88290136Y-106611059D01*
X88290132Y-106611064D01*
X88139750Y-106818049D01*
X88023589Y-107046024D01*
X88023588Y-107046027D01*
X87944526Y-107289359D01*
X87904500Y-107542070D01*
X68155500Y-107542070D01*
X68115474Y-107289361D01*
X68113519Y-107283343D01*
X68090897Y-107213717D01*
X68036411Y-107046027D01*
X68036410Y-107046024D01*
X67996185Y-106967080D01*
X67920252Y-106818053D01*
X67897083Y-106786164D01*
X67769867Y-106611064D01*
X67769863Y-106611059D01*
X67588940Y-106430136D01*
X67588935Y-106430132D01*
X67381950Y-106279750D01*
X67381949Y-106279749D01*
X67381947Y-106279748D01*
X67249560Y-106212293D01*
X67153975Y-106163589D01*
X67153972Y-106163588D01*
X66910640Y-106084526D01*
X66784284Y-106064513D01*
X66657930Y-106044500D01*
X66402070Y-106044500D01*
X66317833Y-106057842D01*
X66149359Y-106084526D01*
X65906027Y-106163588D01*
X65906024Y-106163589D01*
X65678049Y-106279750D01*
X65471064Y-106430132D01*
X65471059Y-106430136D01*
X65290136Y-106611059D01*
X65290132Y-106611064D01*
X65139750Y-106818049D01*
X65023589Y-107046024D01*
X65023588Y-107046027D01*
X64944526Y-107289359D01*
X64904500Y-107542070D01*
X63550500Y-107542070D01*
X63550500Y-105881948D01*
X71050000Y-105881948D01*
X71050000Y-106118053D01*
X71086934Y-106351248D01*
X71159897Y-106575803D01*
X71267087Y-106786175D01*
X71327338Y-106869105D01*
X71327340Y-106869106D01*
X72026212Y-106170234D01*
X72037482Y-106212293D01*
X72109890Y-106337709D01*
X72212292Y-106440111D01*
X72337708Y-106512519D01*
X72379765Y-106523788D01*
X71680893Y-107222659D01*
X71763828Y-107282915D01*
X71974197Y-107390103D01*
X72198752Y-107463066D01*
X72198751Y-107463066D01*
X72431948Y-107500001D01*
X72668052Y-107500001D01*
X72901247Y-107463066D01*
X73125802Y-107390103D01*
X73336163Y-107282919D01*
X73336169Y-107282915D01*
X73419104Y-107222659D01*
X73419105Y-107222659D01*
X72720233Y-106523788D01*
X72762292Y-106512519D01*
X72887708Y-106440111D01*
X72990110Y-106337709D01*
X73062518Y-106212293D01*
X73073787Y-106170235D01*
X73772658Y-106869106D01*
X73772658Y-106869105D01*
X73832914Y-106786170D01*
X73832918Y-106786164D01*
X73940102Y-106575803D01*
X74013065Y-106351248D01*
X74050000Y-106118053D01*
X74050000Y-105881948D01*
X74049993Y-105881902D01*
X75549500Y-105881902D01*
X75549500Y-106118097D01*
X75586446Y-106351368D01*
X75659433Y-106575996D01*
X75766520Y-106786164D01*
X75766657Y-106786433D01*
X75905483Y-106977510D01*
X76072490Y-107144517D01*
X76263567Y-107283343D01*
X76362991Y-107334002D01*
X76474003Y-107390566D01*
X76474005Y-107390566D01*
X76474008Y-107390568D01*
X76562334Y-107419267D01*
X76698631Y-107463553D01*
X76931903Y-107500500D01*
X76931908Y-107500500D01*
X77168097Y-107500500D01*
X77401368Y-107463553D01*
X77402867Y-107463066D01*
X77625992Y-107390568D01*
X77836433Y-107283343D01*
X78027510Y-107144517D01*
X78194517Y-106977510D01*
X78333343Y-106786433D01*
X78440568Y-106575992D01*
X78513553Y-106351368D01*
X78524896Y-106279750D01*
X78550500Y-106118097D01*
X78550500Y-105881902D01*
X78513553Y-105648631D01*
X78461192Y-105487483D01*
X78440568Y-105424008D01*
X78440566Y-105424005D01*
X78440566Y-105424003D01*
X78384002Y-105312991D01*
X78333343Y-105213567D01*
X78194517Y-105022490D01*
X78027510Y-104855483D01*
X77836433Y-104716657D01*
X77625996Y-104609433D01*
X77401368Y-104536446D01*
X77168097Y-104499500D01*
X77168092Y-104499500D01*
X76931908Y-104499500D01*
X76931903Y-104499500D01*
X76698631Y-104536446D01*
X76474003Y-104609433D01*
X76263566Y-104716657D01*
X76180043Y-104777341D01*
X76072490Y-104855483D01*
X76072488Y-104855485D01*
X76072487Y-104855485D01*
X75905485Y-105022487D01*
X75905485Y-105022488D01*
X75905483Y-105022490D01*
X75845862Y-105104550D01*
X75766657Y-105213566D01*
X75659433Y-105424003D01*
X75586446Y-105648631D01*
X75549500Y-105881902D01*
X74049993Y-105881902D01*
X74013065Y-105648753D01*
X73940102Y-105424198D01*
X73832914Y-105213829D01*
X73772658Y-105130895D01*
X73772658Y-105130894D01*
X73073787Y-105829766D01*
X73062518Y-105787709D01*
X72990110Y-105662293D01*
X72887708Y-105559891D01*
X72762292Y-105487483D01*
X72720234Y-105476213D01*
X73419105Y-104777341D01*
X73419104Y-104777339D01*
X73336174Y-104717088D01*
X73125802Y-104609898D01*
X72901247Y-104536935D01*
X72901248Y-104536935D01*
X72668052Y-104500001D01*
X72431948Y-104500001D01*
X72198752Y-104536935D01*
X71974197Y-104609898D01*
X71763830Y-104717085D01*
X71680894Y-104777341D01*
X72379766Y-105476213D01*
X72337708Y-105487483D01*
X72212292Y-105559891D01*
X72109890Y-105662293D01*
X72037482Y-105787709D01*
X72026212Y-105829767D01*
X71327340Y-105130895D01*
X71267084Y-105213831D01*
X71159897Y-105424198D01*
X71086934Y-105648753D01*
X71050000Y-105881948D01*
X63550500Y-105881948D01*
X63550500Y-99381947D01*
X71049999Y-99381947D01*
X71049999Y-99618052D01*
X71086933Y-99851247D01*
X71159896Y-100075802D01*
X71267086Y-100286174D01*
X71327337Y-100369104D01*
X71327339Y-100369105D01*
X72026211Y-99670233D01*
X72037481Y-99712292D01*
X72109889Y-99837708D01*
X72212291Y-99940110D01*
X72337707Y-100012518D01*
X72379764Y-100023787D01*
X71680892Y-100722658D01*
X71763827Y-100782914D01*
X71974196Y-100890102D01*
X72198751Y-100963065D01*
X72198750Y-100963065D01*
X72431947Y-101000000D01*
X72668051Y-101000000D01*
X72901246Y-100963065D01*
X73125801Y-100890102D01*
X73336162Y-100782918D01*
X73336168Y-100782914D01*
X73419103Y-100722658D01*
X73419104Y-100722658D01*
X72720232Y-100023787D01*
X72762291Y-100012518D01*
X72887707Y-99940110D01*
X72990109Y-99837708D01*
X73062517Y-99712292D01*
X73073786Y-99670233D01*
X73772657Y-100369105D01*
X73772657Y-100369104D01*
X73832913Y-100286169D01*
X73832917Y-100286163D01*
X73940101Y-100075802D01*
X74013064Y-99851247D01*
X74049999Y-99618052D01*
X74049999Y-99381947D01*
X74049992Y-99381902D01*
X75549500Y-99381902D01*
X75549500Y-99618097D01*
X75586446Y-99851368D01*
X75659433Y-100075996D01*
X75766519Y-100286163D01*
X75766657Y-100286433D01*
X75905483Y-100477510D01*
X76072490Y-100644517D01*
X76263567Y-100783343D01*
X76362991Y-100834002D01*
X76474003Y-100890566D01*
X76474005Y-100890566D01*
X76474008Y-100890568D01*
X76546121Y-100913999D01*
X76698631Y-100963553D01*
X76931903Y-101000500D01*
X76931908Y-101000500D01*
X77168097Y-101000500D01*
X77401368Y-100963553D01*
X77415208Y-100959056D01*
X77625992Y-100890568D01*
X77836433Y-100783343D01*
X78027510Y-100644517D01*
X78194517Y-100477510D01*
X78333343Y-100286433D01*
X78440568Y-100075992D01*
X78513553Y-99851368D01*
X78521950Y-99798349D01*
X78550500Y-99618097D01*
X78550500Y-99381902D01*
X78513553Y-99148631D01*
X78460285Y-98984692D01*
X78440568Y-98924008D01*
X78440566Y-98924005D01*
X78440566Y-98924003D01*
X78351962Y-98750109D01*
X78333343Y-98713567D01*
X78194517Y-98522490D01*
X78027510Y-98355483D01*
X77836433Y-98216657D01*
X77625996Y-98109433D01*
X77401368Y-98036446D01*
X77168097Y-97999500D01*
X77168092Y-97999500D01*
X76931908Y-97999500D01*
X76931903Y-97999500D01*
X76698631Y-98036446D01*
X76474003Y-98109433D01*
X76263566Y-98216657D01*
X76180047Y-98277338D01*
X76072490Y-98355483D01*
X76072488Y-98355485D01*
X76072487Y-98355485D01*
X75905485Y-98522487D01*
X75905485Y-98522488D01*
X75905483Y-98522490D01*
X75849324Y-98599786D01*
X75766657Y-98713566D01*
X75659433Y-98924003D01*
X75586446Y-99148631D01*
X75549500Y-99381902D01*
X74049992Y-99381902D01*
X74013064Y-99148752D01*
X73940101Y-98924197D01*
X73832913Y-98713828D01*
X73772657Y-98630894D01*
X73772657Y-98630893D01*
X73073786Y-99329765D01*
X73062517Y-99287708D01*
X72990109Y-99162292D01*
X72887707Y-99059890D01*
X72762291Y-98987482D01*
X72720233Y-98976212D01*
X73419104Y-98277340D01*
X73419103Y-98277338D01*
X73336173Y-98217087D01*
X73125801Y-98109897D01*
X72901246Y-98036934D01*
X72901247Y-98036934D01*
X72668051Y-98000000D01*
X72431947Y-98000000D01*
X72198751Y-98036934D01*
X71974196Y-98109897D01*
X71763829Y-98217084D01*
X71680893Y-98277340D01*
X72379765Y-98976212D01*
X72337707Y-98987482D01*
X72212291Y-99059890D01*
X72109889Y-99162292D01*
X72037481Y-99287708D01*
X72026211Y-99329766D01*
X71327339Y-98630894D01*
X71267083Y-98713830D01*
X71159896Y-98924197D01*
X71086933Y-99148752D01*
X71049999Y-99381947D01*
X63550500Y-99381947D01*
X63550500Y-96419701D01*
X63570185Y-96352662D01*
X63622989Y-96306907D01*
X63692147Y-96296963D01*
X63755703Y-96325988D01*
X63774818Y-96346816D01*
X63827339Y-96419105D01*
X63827340Y-96419106D01*
X64526212Y-95720234D01*
X64537482Y-95762293D01*
X64609890Y-95887709D01*
X64712292Y-95990111D01*
X64837708Y-96062519D01*
X64879765Y-96073788D01*
X64180893Y-96772659D01*
X64263828Y-96832915D01*
X64474197Y-96940103D01*
X64698752Y-97013066D01*
X64698751Y-97013066D01*
X64931948Y-97050001D01*
X65168052Y-97050001D01*
X65401247Y-97013066D01*
X65625802Y-96940103D01*
X65836163Y-96832919D01*
X65836169Y-96832915D01*
X65919104Y-96772659D01*
X65919105Y-96772659D01*
X65220233Y-96073788D01*
X65262292Y-96062519D01*
X65387708Y-95990111D01*
X65490110Y-95887709D01*
X65562518Y-95762293D01*
X65573787Y-95720235D01*
X66272658Y-96419106D01*
X66272658Y-96419105D01*
X66332914Y-96336170D01*
X66332918Y-96336164D01*
X66440102Y-96125803D01*
X66513065Y-95901248D01*
X66550000Y-95668053D01*
X66550000Y-95431948D01*
X66549993Y-95431902D01*
X68049500Y-95431902D01*
X68049500Y-95668097D01*
X68086446Y-95901368D01*
X68159433Y-96125996D01*
X68246546Y-96296963D01*
X68266657Y-96336433D01*
X68405483Y-96527510D01*
X68572490Y-96694517D01*
X68763567Y-96833343D01*
X68862991Y-96884002D01*
X68974003Y-96940566D01*
X68974005Y-96940566D01*
X68974008Y-96940568D01*
X69094412Y-96979689D01*
X69198631Y-97013553D01*
X69431903Y-97050500D01*
X69431908Y-97050500D01*
X69668097Y-97050500D01*
X69901368Y-97013553D01*
X69905597Y-97012179D01*
X70125992Y-96940568D01*
X70336433Y-96833343D01*
X70527510Y-96694517D01*
X70694517Y-96527510D01*
X70833343Y-96336433D01*
X70939796Y-96127506D01*
X70987769Y-96076712D01*
X71055590Y-96059917D01*
X71121725Y-96082454D01*
X71160765Y-96127508D01*
X71267087Y-96336175D01*
X71327338Y-96419105D01*
X71327340Y-96419106D01*
X72026212Y-95720234D01*
X72037482Y-95762293D01*
X72109890Y-95887709D01*
X72212292Y-95990111D01*
X72337708Y-96062519D01*
X72379765Y-96073788D01*
X71680893Y-96772659D01*
X71763828Y-96832915D01*
X71974197Y-96940103D01*
X72198752Y-97013066D01*
X72198751Y-97013066D01*
X72431948Y-97050001D01*
X72668052Y-97050001D01*
X72901247Y-97013066D01*
X73125802Y-96940103D01*
X73336163Y-96832919D01*
X73336169Y-96832915D01*
X73419104Y-96772659D01*
X73419105Y-96772659D01*
X72720233Y-96073788D01*
X72762292Y-96062519D01*
X72887708Y-95990111D01*
X72990110Y-95887709D01*
X73062518Y-95762293D01*
X73073787Y-95720235D01*
X73772658Y-96419106D01*
X73772658Y-96419105D01*
X73832914Y-96336170D01*
X73832918Y-96336164D01*
X73940102Y-96125803D01*
X74013065Y-95901248D01*
X74050000Y-95668053D01*
X74050000Y-95431948D01*
X74049993Y-95431902D01*
X75549500Y-95431902D01*
X75549500Y-95668097D01*
X75586446Y-95901368D01*
X75659433Y-96125996D01*
X75746546Y-96296963D01*
X75766657Y-96336433D01*
X75905483Y-96527510D01*
X76072490Y-96694517D01*
X76263567Y-96833343D01*
X76362991Y-96884002D01*
X76474003Y-96940566D01*
X76474005Y-96940566D01*
X76474008Y-96940568D01*
X76594412Y-96979689D01*
X76698631Y-97013553D01*
X76931903Y-97050500D01*
X76931908Y-97050500D01*
X77168097Y-97050500D01*
X77401368Y-97013553D01*
X77405597Y-97012179D01*
X77625992Y-96940568D01*
X77836433Y-96833343D01*
X78027510Y-96694517D01*
X78194517Y-96527510D01*
X78333343Y-96336433D01*
X78439515Y-96128057D01*
X78487489Y-96077262D01*
X78555310Y-96060467D01*
X78621445Y-96083004D01*
X78660484Y-96128057D01*
X78766657Y-96336433D01*
X78905483Y-96527510D01*
X79072490Y-96694517D01*
X79263567Y-96833343D01*
X79362991Y-96884002D01*
X79474003Y-96940566D01*
X79474005Y-96940566D01*
X79474008Y-96940568D01*
X79594412Y-96979689D01*
X79698631Y-97013553D01*
X79931903Y-97050500D01*
X79931908Y-97050500D01*
X80168097Y-97050500D01*
X80401368Y-97013553D01*
X80405597Y-97012179D01*
X80625992Y-96940568D01*
X80836433Y-96833343D01*
X81027510Y-96694517D01*
X81194517Y-96527510D01*
X81333343Y-96336433D01*
X81440568Y-96125992D01*
X81513553Y-95901368D01*
X81527880Y-95810911D01*
X81550500Y-95668097D01*
X81550500Y-95431947D01*
X83050001Y-95431947D01*
X83050001Y-95668052D01*
X83086935Y-95901247D01*
X83159898Y-96125802D01*
X83267088Y-96336174D01*
X83327339Y-96419104D01*
X83327341Y-96419105D01*
X84026213Y-95720233D01*
X84037483Y-95762292D01*
X84109891Y-95887708D01*
X84212293Y-95990110D01*
X84337709Y-96062518D01*
X84379766Y-96073787D01*
X83680894Y-96772658D01*
X83763829Y-96832914D01*
X83974198Y-96940102D01*
X84198753Y-97013065D01*
X84198752Y-97013065D01*
X84431949Y-97050000D01*
X84668053Y-97050000D01*
X84901248Y-97013065D01*
X85125803Y-96940102D01*
X85336164Y-96832918D01*
X85336170Y-96832914D01*
X85419105Y-96772658D01*
X85419106Y-96772658D01*
X84720234Y-96073787D01*
X84762293Y-96062518D01*
X84887709Y-95990110D01*
X84990111Y-95887708D01*
X85062519Y-95762292D01*
X85073788Y-95720233D01*
X85772659Y-96419105D01*
X85772659Y-96419104D01*
X85832915Y-96336169D01*
X85832919Y-96336163D01*
X85940103Y-96125802D01*
X86013066Y-95901247D01*
X86050001Y-95668052D01*
X86050001Y-95431947D01*
X86013066Y-95198752D01*
X85940103Y-94974197D01*
X85832915Y-94763828D01*
X85772659Y-94680894D01*
X85772659Y-94680893D01*
X85073788Y-95379765D01*
X85062519Y-95337708D01*
X84990111Y-95212292D01*
X84887709Y-95109890D01*
X84762293Y-95037482D01*
X84720235Y-95026212D01*
X85419106Y-94327340D01*
X85419105Y-94327338D01*
X85336175Y-94267087D01*
X85125803Y-94159897D01*
X84901248Y-94086934D01*
X84901249Y-94086934D01*
X84668053Y-94050000D01*
X84431949Y-94050000D01*
X84198753Y-94086934D01*
X83974198Y-94159897D01*
X83763831Y-94267084D01*
X83680895Y-94327340D01*
X84379767Y-95026212D01*
X84337709Y-95037482D01*
X84212293Y-95109890D01*
X84109891Y-95212292D01*
X84037483Y-95337708D01*
X84026213Y-95379766D01*
X83327341Y-94680894D01*
X83267085Y-94763830D01*
X83159898Y-94974197D01*
X83086935Y-95198752D01*
X83050001Y-95431947D01*
X81550500Y-95431947D01*
X81550500Y-95431902D01*
X81513553Y-95198631D01*
X81454535Y-95016995D01*
X81440568Y-94974008D01*
X81440566Y-94974005D01*
X81440566Y-94974003D01*
X81349793Y-94795852D01*
X81333343Y-94763567D01*
X81194517Y-94572490D01*
X81027510Y-94405483D01*
X80836433Y-94266657D01*
X80625996Y-94159433D01*
X80401368Y-94086446D01*
X80168097Y-94049500D01*
X80168092Y-94049500D01*
X79931908Y-94049500D01*
X79931903Y-94049500D01*
X79698631Y-94086446D01*
X79474003Y-94159433D01*
X79263566Y-94266657D01*
X79180044Y-94327340D01*
X79072490Y-94405483D01*
X79072488Y-94405485D01*
X79072487Y-94405485D01*
X78905485Y-94572487D01*
X78905485Y-94572488D01*
X78905483Y-94572490D01*
X78845862Y-94654550D01*
X78766657Y-94763566D01*
X78660485Y-94971941D01*
X78612510Y-95022737D01*
X78544689Y-95039532D01*
X78478554Y-95016995D01*
X78439515Y-94971941D01*
X78349793Y-94795852D01*
X78333343Y-94763567D01*
X78194517Y-94572490D01*
X78027510Y-94405483D01*
X77836433Y-94266657D01*
X77625996Y-94159433D01*
X77401368Y-94086446D01*
X77168097Y-94049500D01*
X77168092Y-94049500D01*
X76931908Y-94049500D01*
X76931903Y-94049500D01*
X76698631Y-94086446D01*
X76474003Y-94159433D01*
X76263566Y-94266657D01*
X76180044Y-94327340D01*
X76072490Y-94405483D01*
X76072488Y-94405485D01*
X76072487Y-94405485D01*
X75905485Y-94572487D01*
X75905485Y-94572488D01*
X75905483Y-94572490D01*
X75845862Y-94654550D01*
X75766657Y-94763566D01*
X75659433Y-94974003D01*
X75586446Y-95198631D01*
X75549500Y-95431902D01*
X74049993Y-95431902D01*
X74013065Y-95198753D01*
X73940102Y-94974198D01*
X73832914Y-94763829D01*
X73772658Y-94680895D01*
X73772658Y-94680894D01*
X73073787Y-95379766D01*
X73062518Y-95337709D01*
X72990110Y-95212293D01*
X72887708Y-95109891D01*
X72762292Y-95037483D01*
X72720234Y-95026213D01*
X73419105Y-94327341D01*
X73419104Y-94327339D01*
X73336174Y-94267088D01*
X73125802Y-94159898D01*
X72901247Y-94086935D01*
X72901248Y-94086935D01*
X72668052Y-94050001D01*
X72431948Y-94050001D01*
X72198752Y-94086935D01*
X71974197Y-94159898D01*
X71763830Y-94267085D01*
X71680894Y-94327341D01*
X72379766Y-95026213D01*
X72337708Y-95037483D01*
X72212292Y-95109891D01*
X72109890Y-95212293D01*
X72037482Y-95337709D01*
X72026212Y-95379767D01*
X71327340Y-94680895D01*
X71267084Y-94763831D01*
X71160766Y-94972492D01*
X71112791Y-95023288D01*
X71044970Y-95040083D01*
X70978835Y-95017545D01*
X70939796Y-94972492D01*
X70849793Y-94795852D01*
X70833343Y-94763567D01*
X70694517Y-94572490D01*
X70527510Y-94405483D01*
X70336433Y-94266657D01*
X70125996Y-94159433D01*
X69901368Y-94086446D01*
X69668097Y-94049500D01*
X69668092Y-94049500D01*
X69431908Y-94049500D01*
X69431903Y-94049500D01*
X69198631Y-94086446D01*
X68974003Y-94159433D01*
X68763566Y-94266657D01*
X68680044Y-94327340D01*
X68572490Y-94405483D01*
X68572488Y-94405485D01*
X68572487Y-94405485D01*
X68405485Y-94572487D01*
X68405485Y-94572488D01*
X68405483Y-94572490D01*
X68345862Y-94654550D01*
X68266657Y-94763566D01*
X68159433Y-94974003D01*
X68086446Y-95198631D01*
X68049500Y-95431902D01*
X66549993Y-95431902D01*
X66513065Y-95198753D01*
X66440102Y-94974198D01*
X66332914Y-94763829D01*
X66272658Y-94680895D01*
X66272658Y-94680894D01*
X65573787Y-95379766D01*
X65562518Y-95337709D01*
X65490110Y-95212293D01*
X65387708Y-95109891D01*
X65262292Y-95037483D01*
X65220234Y-95026213D01*
X65919105Y-94327341D01*
X65919104Y-94327339D01*
X65836174Y-94267088D01*
X65625802Y-94159898D01*
X65401247Y-94086935D01*
X65401248Y-94086935D01*
X65168052Y-94050001D01*
X64931948Y-94050001D01*
X64698752Y-94086935D01*
X64474197Y-94159898D01*
X64263830Y-94267085D01*
X64180894Y-94327341D01*
X64879766Y-95026213D01*
X64837708Y-95037483D01*
X64712292Y-95109891D01*
X64609890Y-95212293D01*
X64537482Y-95337709D01*
X64526212Y-95379767D01*
X63827340Y-94680895D01*
X63827339Y-94680895D01*
X63774818Y-94753186D01*
X63719489Y-94795852D01*
X63649875Y-94801831D01*
X63588080Y-94769226D01*
X63553723Y-94708387D01*
X63550500Y-94680301D01*
X63550500Y-89919701D01*
X63570185Y-89852662D01*
X63622989Y-89806907D01*
X63692147Y-89796963D01*
X63755703Y-89825988D01*
X63774819Y-89846816D01*
X63827339Y-89919105D01*
X64526211Y-89220233D01*
X64537481Y-89262292D01*
X64609889Y-89387708D01*
X64712291Y-89490110D01*
X64837707Y-89562518D01*
X64879764Y-89573787D01*
X64180892Y-90272658D01*
X64263827Y-90332914D01*
X64474196Y-90440102D01*
X64698751Y-90513065D01*
X64698750Y-90513065D01*
X64931947Y-90550000D01*
X65168051Y-90550000D01*
X65401246Y-90513065D01*
X65625801Y-90440102D01*
X65836162Y-90332918D01*
X65836168Y-90332914D01*
X65919103Y-90272658D01*
X65919104Y-90272658D01*
X65220232Y-89573787D01*
X65262291Y-89562518D01*
X65387707Y-89490110D01*
X65490109Y-89387708D01*
X65562517Y-89262292D01*
X65573786Y-89220234D01*
X66272657Y-89919105D01*
X66272657Y-89919104D01*
X66332913Y-89836169D01*
X66332917Y-89836163D01*
X66440101Y-89625802D01*
X66513064Y-89401247D01*
X66549999Y-89168052D01*
X66549999Y-88931947D01*
X66549992Y-88931902D01*
X68049500Y-88931902D01*
X68049500Y-89168097D01*
X68086446Y-89401368D01*
X68159433Y-89625996D01*
X68239817Y-89783757D01*
X68266657Y-89836433D01*
X68405483Y-90027510D01*
X68572490Y-90194517D01*
X68763567Y-90333343D01*
X68862991Y-90384002D01*
X68974003Y-90440566D01*
X68974005Y-90440566D01*
X68974008Y-90440568D01*
X69094412Y-90479689D01*
X69198631Y-90513553D01*
X69431903Y-90550500D01*
X69431908Y-90550500D01*
X69668097Y-90550500D01*
X69901368Y-90513553D01*
X69942775Y-90500099D01*
X70125992Y-90440568D01*
X70336433Y-90333343D01*
X70527510Y-90194517D01*
X70694517Y-90027510D01*
X70833343Y-89836433D01*
X70939796Y-89627506D01*
X70987769Y-89576712D01*
X71055590Y-89559917D01*
X71121725Y-89582454D01*
X71160765Y-89627508D01*
X71267086Y-89836174D01*
X71327337Y-89919104D01*
X71327339Y-89919105D01*
X72026211Y-89220233D01*
X72037481Y-89262292D01*
X72109889Y-89387708D01*
X72212291Y-89490110D01*
X72337707Y-89562518D01*
X72379764Y-89573787D01*
X71680892Y-90272658D01*
X71763827Y-90332914D01*
X71974196Y-90440102D01*
X72198751Y-90513065D01*
X72198750Y-90513065D01*
X72431947Y-90550000D01*
X72668051Y-90550000D01*
X72901246Y-90513065D01*
X73125801Y-90440102D01*
X73336162Y-90332918D01*
X73336168Y-90332914D01*
X73419103Y-90272658D01*
X73419104Y-90272658D01*
X72720232Y-89573787D01*
X72762291Y-89562518D01*
X72887707Y-89490110D01*
X72990109Y-89387708D01*
X73062517Y-89262292D01*
X73073786Y-89220233D01*
X73772657Y-89919105D01*
X73772657Y-89919104D01*
X73832913Y-89836169D01*
X73832917Y-89836163D01*
X73940101Y-89625802D01*
X74013064Y-89401247D01*
X74049999Y-89168052D01*
X74049999Y-88931947D01*
X74049992Y-88931902D01*
X75549500Y-88931902D01*
X75549500Y-89168097D01*
X75586446Y-89401368D01*
X75659433Y-89625996D01*
X75739817Y-89783757D01*
X75766657Y-89836433D01*
X75905483Y-90027510D01*
X76072490Y-90194517D01*
X76263567Y-90333343D01*
X76362991Y-90384002D01*
X76474003Y-90440566D01*
X76474005Y-90440566D01*
X76474008Y-90440568D01*
X76594412Y-90479689D01*
X76698631Y-90513553D01*
X76931903Y-90550500D01*
X76931908Y-90550500D01*
X77168097Y-90550500D01*
X77401368Y-90513553D01*
X77442775Y-90500099D01*
X77625992Y-90440568D01*
X77836433Y-90333343D01*
X78027510Y-90194517D01*
X78194517Y-90027510D01*
X78333343Y-89836433D01*
X78439515Y-89628057D01*
X78487489Y-89577262D01*
X78555310Y-89560467D01*
X78621445Y-89583004D01*
X78660484Y-89628057D01*
X78766657Y-89836433D01*
X78905483Y-90027510D01*
X79072490Y-90194517D01*
X79263567Y-90333343D01*
X79362991Y-90384002D01*
X79474003Y-90440566D01*
X79474005Y-90440566D01*
X79474008Y-90440568D01*
X79594412Y-90479689D01*
X79698631Y-90513553D01*
X79931903Y-90550500D01*
X79931908Y-90550500D01*
X80168097Y-90550500D01*
X80401368Y-90513553D01*
X80442775Y-90500099D01*
X80625992Y-90440568D01*
X80836433Y-90333343D01*
X81027510Y-90194517D01*
X81194517Y-90027510D01*
X81333343Y-89836433D01*
X81440568Y-89625992D01*
X81513553Y-89401368D01*
X81515717Y-89387707D01*
X81550500Y-89168097D01*
X81550500Y-88931946D01*
X83050000Y-88931946D01*
X83050000Y-89168051D01*
X83086934Y-89401246D01*
X83159897Y-89625801D01*
X83267087Y-89836173D01*
X83327338Y-89919103D01*
X83327340Y-89919104D01*
X84026212Y-89220232D01*
X84037482Y-89262291D01*
X84109890Y-89387707D01*
X84212292Y-89490109D01*
X84337708Y-89562517D01*
X84379765Y-89573786D01*
X83680893Y-90272657D01*
X83763828Y-90332913D01*
X83974197Y-90440101D01*
X84198752Y-90513064D01*
X84198751Y-90513064D01*
X84431948Y-90549999D01*
X84668052Y-90549999D01*
X84901247Y-90513064D01*
X85125802Y-90440101D01*
X85336163Y-90332917D01*
X85336169Y-90332913D01*
X85419104Y-90272657D01*
X85419105Y-90272657D01*
X84720233Y-89573786D01*
X84762292Y-89562517D01*
X84887708Y-89490109D01*
X84990110Y-89387707D01*
X85062518Y-89262291D01*
X85073787Y-89220233D01*
X85772658Y-89919104D01*
X85772658Y-89919103D01*
X85832914Y-89836168D01*
X85832918Y-89836162D01*
X85940102Y-89625801D01*
X86013065Y-89401246D01*
X86050000Y-89168051D01*
X86050000Y-88931946D01*
X86013065Y-88698751D01*
X85940102Y-88474196D01*
X85832914Y-88263827D01*
X85772658Y-88180893D01*
X85772658Y-88180892D01*
X85073787Y-88879764D01*
X85062518Y-88837707D01*
X84990110Y-88712291D01*
X84887708Y-88609889D01*
X84762292Y-88537481D01*
X84720234Y-88526211D01*
X85419105Y-87827339D01*
X85419104Y-87827337D01*
X85336174Y-87767086D01*
X85125802Y-87659896D01*
X84901247Y-87586933D01*
X84901248Y-87586933D01*
X84668052Y-87549999D01*
X84431948Y-87549999D01*
X84198752Y-87586933D01*
X83974197Y-87659896D01*
X83763830Y-87767083D01*
X83680894Y-87827339D01*
X84379766Y-88526211D01*
X84337708Y-88537481D01*
X84212292Y-88609889D01*
X84109890Y-88712291D01*
X84037482Y-88837707D01*
X84026212Y-88879765D01*
X83327340Y-88180893D01*
X83267084Y-88263829D01*
X83159897Y-88474196D01*
X83086934Y-88698751D01*
X83050000Y-88931946D01*
X81550500Y-88931946D01*
X81550500Y-88931902D01*
X81513553Y-88698631D01*
X81440566Y-88474003D01*
X81349791Y-88295849D01*
X81333343Y-88263567D01*
X81194517Y-88072490D01*
X81027510Y-87905483D01*
X80836433Y-87766657D01*
X80625996Y-87659433D01*
X80401368Y-87586446D01*
X80168097Y-87549500D01*
X80168092Y-87549500D01*
X79931908Y-87549500D01*
X79931903Y-87549500D01*
X79698631Y-87586446D01*
X79474003Y-87659433D01*
X79263566Y-87766657D01*
X79180044Y-87827340D01*
X79072490Y-87905483D01*
X79072488Y-87905485D01*
X79072487Y-87905485D01*
X78905485Y-88072487D01*
X78905485Y-88072488D01*
X78905483Y-88072490D01*
X78901179Y-88078414D01*
X78766657Y-88263566D01*
X78660485Y-88471941D01*
X78612510Y-88522737D01*
X78544689Y-88539532D01*
X78478554Y-88516995D01*
X78439515Y-88471941D01*
X78349791Y-88295849D01*
X78333343Y-88263567D01*
X78194517Y-88072490D01*
X78027510Y-87905483D01*
X77836433Y-87766657D01*
X77625996Y-87659433D01*
X77401368Y-87586446D01*
X77168097Y-87549500D01*
X77168092Y-87549500D01*
X76931908Y-87549500D01*
X76931903Y-87549500D01*
X76698631Y-87586446D01*
X76474003Y-87659433D01*
X76263566Y-87766657D01*
X76180044Y-87827340D01*
X76072490Y-87905483D01*
X76072488Y-87905485D01*
X76072487Y-87905485D01*
X75905485Y-88072487D01*
X75905485Y-88072488D01*
X75905483Y-88072490D01*
X75901179Y-88078414D01*
X75766657Y-88263566D01*
X75659433Y-88474003D01*
X75586446Y-88698631D01*
X75549500Y-88931902D01*
X74049992Y-88931902D01*
X74013064Y-88698752D01*
X73940101Y-88474197D01*
X73832913Y-88263828D01*
X73772657Y-88180894D01*
X73772657Y-88180893D01*
X73073786Y-88879765D01*
X73062517Y-88837708D01*
X72990109Y-88712292D01*
X72887707Y-88609890D01*
X72762291Y-88537482D01*
X72720233Y-88526212D01*
X73419104Y-87827340D01*
X73419103Y-87827338D01*
X73336173Y-87767087D01*
X73125801Y-87659897D01*
X72901246Y-87586934D01*
X72901247Y-87586934D01*
X72668051Y-87550000D01*
X72431947Y-87550000D01*
X72198751Y-87586934D01*
X71974196Y-87659897D01*
X71763829Y-87767084D01*
X71680893Y-87827340D01*
X72379765Y-88526212D01*
X72337707Y-88537482D01*
X72212291Y-88609890D01*
X72109889Y-88712292D01*
X72037481Y-88837708D01*
X72026211Y-88879766D01*
X71327339Y-88180894D01*
X71267083Y-88263830D01*
X71160765Y-88472491D01*
X71112790Y-88523287D01*
X71044969Y-88540082D01*
X70978834Y-88517544D01*
X70939795Y-88472491D01*
X70849791Y-88295849D01*
X70833343Y-88263567D01*
X70694517Y-88072490D01*
X70527510Y-87905483D01*
X70336433Y-87766657D01*
X70125996Y-87659433D01*
X69901368Y-87586446D01*
X69668097Y-87549500D01*
X69668092Y-87549500D01*
X69431908Y-87549500D01*
X69431903Y-87549500D01*
X69198631Y-87586446D01*
X68974003Y-87659433D01*
X68763566Y-87766657D01*
X68680044Y-87827340D01*
X68572490Y-87905483D01*
X68572488Y-87905485D01*
X68572487Y-87905485D01*
X68405485Y-88072487D01*
X68405485Y-88072488D01*
X68405483Y-88072490D01*
X68401179Y-88078414D01*
X68266657Y-88263566D01*
X68159433Y-88474003D01*
X68086446Y-88698631D01*
X68049500Y-88931902D01*
X66549992Y-88931902D01*
X66513064Y-88698752D01*
X66440101Y-88474197D01*
X66332913Y-88263828D01*
X66272657Y-88180894D01*
X66272657Y-88180893D01*
X65573786Y-88879765D01*
X65562517Y-88837708D01*
X65490109Y-88712292D01*
X65387707Y-88609890D01*
X65262291Y-88537482D01*
X65220233Y-88526212D01*
X65919104Y-87827340D01*
X65919103Y-87827338D01*
X65836173Y-87767087D01*
X65625801Y-87659897D01*
X65401246Y-87586934D01*
X65401247Y-87586934D01*
X65168051Y-87550000D01*
X64931947Y-87550000D01*
X64698751Y-87586934D01*
X64474196Y-87659897D01*
X64263829Y-87767084D01*
X64180893Y-87827340D01*
X64879765Y-88526212D01*
X64837707Y-88537482D01*
X64712291Y-88609890D01*
X64609889Y-88712292D01*
X64537481Y-88837708D01*
X64526211Y-88879766D01*
X63827339Y-88180894D01*
X63827338Y-88180894D01*
X63774818Y-88253183D01*
X63719488Y-88295849D01*
X63649875Y-88301828D01*
X63588080Y-88269223D01*
X63553723Y-88208384D01*
X63550500Y-88180298D01*
X63550500Y-85938521D01*
X63570185Y-85871482D01*
X63622989Y-85825727D01*
X63692147Y-85815783D01*
X63755703Y-85844808D01*
X63774818Y-85865636D01*
X63777339Y-85869105D01*
X63777340Y-85869106D01*
X64476212Y-85170234D01*
X64487482Y-85212293D01*
X64559890Y-85337709D01*
X64662292Y-85440111D01*
X64787708Y-85512519D01*
X64829765Y-85523788D01*
X64130893Y-86222659D01*
X64213828Y-86282915D01*
X64424197Y-86390103D01*
X64648752Y-86463066D01*
X64648751Y-86463066D01*
X64881948Y-86500001D01*
X65118052Y-86500001D01*
X65351247Y-86463066D01*
X65575802Y-86390103D01*
X65786163Y-86282919D01*
X65786169Y-86282915D01*
X65869104Y-86222659D01*
X65869105Y-86222659D01*
X65170233Y-85523788D01*
X65212292Y-85512519D01*
X65337708Y-85440111D01*
X65440110Y-85337709D01*
X65512518Y-85212293D01*
X65523787Y-85170234D01*
X66222658Y-85869106D01*
X66222658Y-85869105D01*
X66282914Y-85786170D01*
X66282918Y-85786164D01*
X66390102Y-85575803D01*
X66463065Y-85351248D01*
X66500000Y-85118053D01*
X66500000Y-84881948D01*
X66499993Y-84881902D01*
X67999500Y-84881902D01*
X67999500Y-85118097D01*
X68036446Y-85351368D01*
X68109433Y-85575996D01*
X68186792Y-85727820D01*
X68216657Y-85786433D01*
X68355483Y-85977510D01*
X68522490Y-86144517D01*
X68713567Y-86283343D01*
X68762829Y-86308443D01*
X68924003Y-86390566D01*
X68924005Y-86390566D01*
X68924008Y-86390568D01*
X69044412Y-86429689D01*
X69148631Y-86463553D01*
X69381903Y-86500500D01*
X69381908Y-86500500D01*
X69618097Y-86500500D01*
X69851368Y-86463553D01*
X69852867Y-86463066D01*
X70075992Y-86390568D01*
X70286433Y-86283343D01*
X70477510Y-86144517D01*
X70644517Y-85977510D01*
X70783343Y-85786433D01*
X70889796Y-85577506D01*
X70937769Y-85526712D01*
X71005590Y-85509917D01*
X71071725Y-85532454D01*
X71110765Y-85577508D01*
X71217087Y-85786175D01*
X71277338Y-85869105D01*
X71277340Y-85869106D01*
X71976212Y-85170234D01*
X71987482Y-85212293D01*
X72059890Y-85337709D01*
X72162292Y-85440111D01*
X72287708Y-85512519D01*
X72329765Y-85523788D01*
X71630893Y-86222659D01*
X71713828Y-86282915D01*
X71924197Y-86390103D01*
X72148752Y-86463066D01*
X72148751Y-86463066D01*
X72381948Y-86500001D01*
X72618052Y-86500001D01*
X72851247Y-86463066D01*
X73075802Y-86390103D01*
X73286163Y-86282919D01*
X73286169Y-86282915D01*
X73369104Y-86222659D01*
X73369105Y-86222659D01*
X72670233Y-85523788D01*
X72712292Y-85512519D01*
X72837708Y-85440111D01*
X72940110Y-85337709D01*
X73012518Y-85212293D01*
X73023787Y-85170235D01*
X73722658Y-85869106D01*
X73722658Y-85869105D01*
X73782914Y-85786170D01*
X73782918Y-85786164D01*
X73890102Y-85575803D01*
X73963065Y-85351248D01*
X74000000Y-85118053D01*
X74000000Y-84881948D01*
X73999993Y-84881902D01*
X75499500Y-84881902D01*
X75499500Y-85118097D01*
X75536446Y-85351368D01*
X75609433Y-85575996D01*
X75686792Y-85727820D01*
X75716657Y-85786433D01*
X75855483Y-85977510D01*
X76022490Y-86144517D01*
X76213567Y-86283343D01*
X76262829Y-86308443D01*
X76424003Y-86390566D01*
X76424005Y-86390566D01*
X76424008Y-86390568D01*
X76544412Y-86429689D01*
X76648631Y-86463553D01*
X76881903Y-86500500D01*
X76881908Y-86500500D01*
X77118097Y-86500500D01*
X77351368Y-86463553D01*
X77352867Y-86463066D01*
X77575992Y-86390568D01*
X77786433Y-86283343D01*
X77977510Y-86144517D01*
X78144517Y-85977510D01*
X78283343Y-85786433D01*
X78390568Y-85575992D01*
X78463553Y-85351368D01*
X78467411Y-85327007D01*
X78500500Y-85118097D01*
X78500500Y-84881902D01*
X78463553Y-84648631D01*
X78404714Y-84467545D01*
X78390568Y-84424008D01*
X78390566Y-84424005D01*
X78390566Y-84424003D01*
X78333588Y-84312179D01*
X78283343Y-84213567D01*
X78144517Y-84022490D01*
X77977510Y-83855483D01*
X77786433Y-83716657D01*
X77575996Y-83609433D01*
X77351368Y-83536446D01*
X77118097Y-83499500D01*
X77118092Y-83499500D01*
X76881908Y-83499500D01*
X76881903Y-83499500D01*
X76648631Y-83536446D01*
X76424003Y-83609433D01*
X76213566Y-83716657D01*
X76130043Y-83777341D01*
X76022490Y-83855483D01*
X76022488Y-83855485D01*
X76022487Y-83855485D01*
X75855485Y-84022487D01*
X75855485Y-84022488D01*
X75855483Y-84022490D01*
X75795862Y-84104550D01*
X75716657Y-84213566D01*
X75609433Y-84424003D01*
X75536446Y-84648631D01*
X75499500Y-84881902D01*
X73999993Y-84881902D01*
X73963065Y-84648753D01*
X73890102Y-84424198D01*
X73782914Y-84213829D01*
X73722658Y-84130895D01*
X73722658Y-84130894D01*
X73023787Y-84829766D01*
X73012518Y-84787709D01*
X72940110Y-84662293D01*
X72837708Y-84559891D01*
X72712292Y-84487483D01*
X72670234Y-84476213D01*
X73369105Y-83777341D01*
X73369104Y-83777339D01*
X73286174Y-83717088D01*
X73075802Y-83609898D01*
X72851247Y-83536935D01*
X72851248Y-83536935D01*
X72618052Y-83500001D01*
X72381948Y-83500001D01*
X72148752Y-83536935D01*
X71924197Y-83609898D01*
X71713830Y-83717085D01*
X71630894Y-83777341D01*
X72329766Y-84476213D01*
X72287708Y-84487483D01*
X72162292Y-84559891D01*
X72059890Y-84662293D01*
X71987482Y-84787709D01*
X71976212Y-84829767D01*
X71277340Y-84130895D01*
X71217084Y-84213831D01*
X71110766Y-84422492D01*
X71062791Y-84473288D01*
X70994970Y-84490083D01*
X70928835Y-84467545D01*
X70889796Y-84422492D01*
X70833588Y-84312179D01*
X70783343Y-84213567D01*
X70644517Y-84022490D01*
X70477510Y-83855483D01*
X70286433Y-83716657D01*
X70075996Y-83609433D01*
X69851368Y-83536446D01*
X69618097Y-83499500D01*
X69618092Y-83499500D01*
X69381908Y-83499500D01*
X69381903Y-83499500D01*
X69148631Y-83536446D01*
X68924003Y-83609433D01*
X68713566Y-83716657D01*
X68630043Y-83777341D01*
X68522490Y-83855483D01*
X68522488Y-83855485D01*
X68522487Y-83855485D01*
X68355485Y-84022487D01*
X68355485Y-84022488D01*
X68355483Y-84022490D01*
X68295862Y-84104550D01*
X68216657Y-84213566D01*
X68109433Y-84424003D01*
X68036446Y-84648631D01*
X67999500Y-84881902D01*
X66499993Y-84881902D01*
X66463065Y-84648753D01*
X66390102Y-84424198D01*
X66282914Y-84213829D01*
X66222658Y-84130895D01*
X66222658Y-84130894D01*
X65523787Y-84829766D01*
X65512518Y-84787709D01*
X65440110Y-84662293D01*
X65337708Y-84559891D01*
X65212292Y-84487483D01*
X65170234Y-84476213D01*
X65869105Y-83777341D01*
X65869104Y-83777339D01*
X65786174Y-83717088D01*
X65575802Y-83609898D01*
X65351247Y-83536935D01*
X65351248Y-83536935D01*
X65118052Y-83500001D01*
X64881948Y-83500001D01*
X64648752Y-83536935D01*
X64424197Y-83609898D01*
X64213830Y-83717085D01*
X64130894Y-83777341D01*
X64829766Y-84476213D01*
X64787708Y-84487483D01*
X64662292Y-84559891D01*
X64559890Y-84662293D01*
X64487482Y-84787709D01*
X64476212Y-84829767D01*
X63777340Y-84130895D01*
X63777339Y-84130895D01*
X63774818Y-84134366D01*
X63749836Y-84153630D01*
X63726011Y-84174275D01*
X63722388Y-84174795D01*
X63719489Y-84177032D01*
X63688068Y-84179730D01*
X63656853Y-84184219D01*
X63653521Y-84182697D01*
X63649875Y-84183011D01*
X63621984Y-84168295D01*
X63593297Y-84155194D01*
X63591317Y-84152114D01*
X63588080Y-84150406D01*
X63572573Y-84122947D01*
X63555523Y-84096416D01*
X63554816Y-84091503D01*
X63553723Y-84089567D01*
X63550500Y-84061481D01*
X63550500Y-79438521D01*
X63570185Y-79371482D01*
X63622989Y-79325727D01*
X63692147Y-79315783D01*
X63755703Y-79344808D01*
X63774819Y-79365636D01*
X63777339Y-79369105D01*
X64476211Y-78670233D01*
X64487481Y-78712292D01*
X64559889Y-78837708D01*
X64662291Y-78940110D01*
X64787707Y-79012518D01*
X64829764Y-79023787D01*
X64130892Y-79722658D01*
X64213827Y-79782914D01*
X64424196Y-79890102D01*
X64648751Y-79963065D01*
X64648750Y-79963065D01*
X64881947Y-80000000D01*
X65118051Y-80000000D01*
X65351246Y-79963065D01*
X65575801Y-79890102D01*
X65786162Y-79782918D01*
X65786168Y-79782914D01*
X65869103Y-79722658D01*
X65869104Y-79722658D01*
X65170232Y-79023787D01*
X65212291Y-79012518D01*
X65337707Y-78940110D01*
X65440109Y-78837708D01*
X65512517Y-78712292D01*
X65523786Y-78670233D01*
X66222657Y-79369105D01*
X66222657Y-79369104D01*
X66282913Y-79286169D01*
X66282917Y-79286163D01*
X66390101Y-79075802D01*
X66463064Y-78851247D01*
X66499999Y-78618052D01*
X66499999Y-78381947D01*
X66499992Y-78381902D01*
X67999500Y-78381902D01*
X67999500Y-78618097D01*
X68036446Y-78851368D01*
X68109433Y-79075996D01*
X68193480Y-79240946D01*
X68216657Y-79286433D01*
X68355483Y-79477510D01*
X68522490Y-79644517D01*
X68713567Y-79783343D01*
X68812424Y-79833713D01*
X68924003Y-79890566D01*
X68924005Y-79890566D01*
X68924008Y-79890568D01*
X69044412Y-79929689D01*
X69148631Y-79963553D01*
X69381903Y-80000500D01*
X69381908Y-80000500D01*
X69618097Y-80000500D01*
X69851368Y-79963553D01*
X69852870Y-79963065D01*
X70075992Y-79890568D01*
X70286433Y-79783343D01*
X70477510Y-79644517D01*
X70644517Y-79477510D01*
X70783343Y-79286433D01*
X70889796Y-79077506D01*
X70937769Y-79026712D01*
X71005590Y-79009917D01*
X71071725Y-79032454D01*
X71110765Y-79077508D01*
X71217086Y-79286174D01*
X71277337Y-79369104D01*
X71277339Y-79369105D01*
X71976211Y-78670233D01*
X71987481Y-78712292D01*
X72059889Y-78837708D01*
X72162291Y-78940110D01*
X72287707Y-79012518D01*
X72329764Y-79023787D01*
X71630892Y-79722658D01*
X71713827Y-79782914D01*
X71924196Y-79890102D01*
X72148751Y-79963065D01*
X72148750Y-79963065D01*
X72381947Y-80000000D01*
X72618051Y-80000000D01*
X72851246Y-79963065D01*
X73075801Y-79890102D01*
X73286162Y-79782918D01*
X73286168Y-79782914D01*
X73369103Y-79722658D01*
X73369104Y-79722658D01*
X72670232Y-79023787D01*
X72712291Y-79012518D01*
X72837707Y-78940110D01*
X72940109Y-78837708D01*
X73012517Y-78712292D01*
X73023786Y-78670234D01*
X73722657Y-79369105D01*
X73722657Y-79369104D01*
X73782913Y-79286169D01*
X73782917Y-79286163D01*
X73890101Y-79075802D01*
X73963064Y-78851247D01*
X73999999Y-78618052D01*
X73999999Y-78381947D01*
X73999992Y-78381902D01*
X75499500Y-78381902D01*
X75499500Y-78618097D01*
X75536446Y-78851368D01*
X75609433Y-79075996D01*
X75693480Y-79240946D01*
X75716657Y-79286433D01*
X75855483Y-79477510D01*
X76022490Y-79644517D01*
X76213567Y-79783343D01*
X76312424Y-79833713D01*
X76424003Y-79890566D01*
X76424005Y-79890566D01*
X76424008Y-79890568D01*
X76544412Y-79929689D01*
X76648631Y-79963553D01*
X76881903Y-80000500D01*
X76881908Y-80000500D01*
X77118097Y-80000500D01*
X77351368Y-79963553D01*
X77352870Y-79963065D01*
X77575992Y-79890568D01*
X77786433Y-79783343D01*
X77977510Y-79644517D01*
X78144517Y-79477510D01*
X78283343Y-79286433D01*
X78390568Y-79075992D01*
X78463553Y-78851368D01*
X78465717Y-78837708D01*
X78500500Y-78618097D01*
X78500500Y-78381902D01*
X78463553Y-78148631D01*
X78390566Y-77924003D01*
X78284648Y-77716129D01*
X78283343Y-77713567D01*
X78144517Y-77522490D01*
X77977510Y-77355483D01*
X77786433Y-77216657D01*
X77767404Y-77206961D01*
X77575996Y-77109433D01*
X77351368Y-77036446D01*
X77118097Y-76999500D01*
X77118092Y-76999500D01*
X76881908Y-76999500D01*
X76881903Y-76999500D01*
X76648631Y-77036446D01*
X76424003Y-77109433D01*
X76213566Y-77216657D01*
X76134641Y-77274000D01*
X76022490Y-77355483D01*
X76022488Y-77355485D01*
X76022487Y-77355485D01*
X75855485Y-77522487D01*
X75855485Y-77522488D01*
X75855483Y-77522490D01*
X75804259Y-77592993D01*
X75716657Y-77713566D01*
X75609433Y-77924003D01*
X75536446Y-78148631D01*
X75499500Y-78381902D01*
X73999992Y-78381902D01*
X73963064Y-78148752D01*
X73890101Y-77924197D01*
X73782913Y-77713828D01*
X73722657Y-77630894D01*
X73722657Y-77630893D01*
X73023786Y-78329765D01*
X73012517Y-78287708D01*
X72940109Y-78162292D01*
X72837707Y-78059890D01*
X72712291Y-77987482D01*
X72670233Y-77976212D01*
X73369104Y-77277340D01*
X73369103Y-77277338D01*
X73286173Y-77217087D01*
X73075801Y-77109897D01*
X72851246Y-77036934D01*
X72851247Y-77036934D01*
X72618051Y-77000000D01*
X72381947Y-77000000D01*
X72148751Y-77036934D01*
X71924196Y-77109897D01*
X71713829Y-77217084D01*
X71630893Y-77277340D01*
X72329765Y-77976212D01*
X72287707Y-77987482D01*
X72162291Y-78059890D01*
X72059889Y-78162292D01*
X71987481Y-78287708D01*
X71976211Y-78329766D01*
X71277339Y-77630894D01*
X71217083Y-77713830D01*
X71110765Y-77922491D01*
X71062790Y-77973287D01*
X70994969Y-77990082D01*
X70928834Y-77967544D01*
X70889795Y-77922491D01*
X70784648Y-77716129D01*
X70783343Y-77713567D01*
X70644517Y-77522490D01*
X70477510Y-77355483D01*
X70286433Y-77216657D01*
X70267404Y-77206961D01*
X70075996Y-77109433D01*
X69851368Y-77036446D01*
X69618097Y-76999500D01*
X69618092Y-76999500D01*
X69381908Y-76999500D01*
X69381903Y-76999500D01*
X69148631Y-77036446D01*
X68924003Y-77109433D01*
X68713566Y-77216657D01*
X68634641Y-77274000D01*
X68522490Y-77355483D01*
X68522488Y-77355485D01*
X68522487Y-77355485D01*
X68355485Y-77522487D01*
X68355485Y-77522488D01*
X68355483Y-77522490D01*
X68304259Y-77592993D01*
X68216657Y-77713566D01*
X68109433Y-77924003D01*
X68036446Y-78148631D01*
X67999500Y-78381902D01*
X66499992Y-78381902D01*
X66463064Y-78148752D01*
X66390101Y-77924197D01*
X66282913Y-77713828D01*
X66222657Y-77630894D01*
X66222657Y-77630893D01*
X65523786Y-78329765D01*
X65512517Y-78287708D01*
X65440109Y-78162292D01*
X65337707Y-78059890D01*
X65212291Y-77987482D01*
X65170233Y-77976212D01*
X65869104Y-77277340D01*
X65869103Y-77277338D01*
X65786173Y-77217087D01*
X65575801Y-77109897D01*
X65351246Y-77036934D01*
X65351247Y-77036934D01*
X65118051Y-77000000D01*
X64881947Y-77000000D01*
X64648751Y-77036934D01*
X64424196Y-77109897D01*
X64213829Y-77217084D01*
X64130893Y-77277340D01*
X64829765Y-77976212D01*
X64787707Y-77987482D01*
X64662291Y-78059890D01*
X64559889Y-78162292D01*
X64487481Y-78287708D01*
X64476211Y-78329766D01*
X63777339Y-77630894D01*
X63777338Y-77630894D01*
X63774818Y-77634364D01*
X63749834Y-77653628D01*
X63726011Y-77674272D01*
X63722387Y-77674792D01*
X63719488Y-77677029D01*
X63688069Y-77679727D01*
X63656853Y-77684216D01*
X63653521Y-77682694D01*
X63649874Y-77683008D01*
X63621983Y-77668291D01*
X63593297Y-77655191D01*
X63591317Y-77652110D01*
X63588079Y-77650402D01*
X63572570Y-77622939D01*
X63555523Y-77596413D01*
X63554816Y-77591501D01*
X63553722Y-77589563D01*
X63550500Y-77561478D01*
X63550500Y-63004234D01*
X68779500Y-63004234D01*
X68779500Y-63155765D01*
X68818719Y-63302136D01*
X68851294Y-63358556D01*
X68894485Y-63433365D01*
X69001635Y-63540515D01*
X69132865Y-63616281D01*
X69279234Y-63655500D01*
X69279236Y-63655500D01*
X69430764Y-63655500D01*
X69430766Y-63655500D01*
X69577135Y-63616281D01*
X69708365Y-63540515D01*
X69815515Y-63433365D01*
X69891281Y-63302135D01*
X69930500Y-63155766D01*
X69930500Y-63004234D01*
X69891281Y-62857865D01*
X69815515Y-62726635D01*
X69708365Y-62619485D01*
X69642750Y-62581602D01*
X69577136Y-62543719D01*
X69503950Y-62524109D01*
X69430766Y-62504500D01*
X69279234Y-62504500D01*
X69132863Y-62543719D01*
X69001635Y-62619485D01*
X69001632Y-62619487D01*
X68894487Y-62726632D01*
X68894485Y-62726635D01*
X68818719Y-62857863D01*
X68779500Y-63004234D01*
X63550500Y-63004234D01*
X63550500Y-57224234D01*
X68779500Y-57224234D01*
X68779500Y-57375765D01*
X68818719Y-57522136D01*
X68829986Y-57541650D01*
X68894485Y-57653365D01*
X69001635Y-57760515D01*
X69132865Y-57836281D01*
X69279234Y-57875500D01*
X69279236Y-57875500D01*
X69430764Y-57875500D01*
X69430766Y-57875500D01*
X69577135Y-57836281D01*
X69708365Y-57760515D01*
X69815515Y-57653365D01*
X69891281Y-57522135D01*
X69930500Y-57375766D01*
X69930500Y-57224234D01*
X69891281Y-57077865D01*
X69815515Y-56946635D01*
X69708365Y-56839485D01*
X69642750Y-56801602D01*
X69577136Y-56763719D01*
X69503950Y-56744109D01*
X69430766Y-56724500D01*
X69279234Y-56724500D01*
X69132863Y-56763719D01*
X69001635Y-56839485D01*
X69001632Y-56839487D01*
X68894487Y-56946632D01*
X68894485Y-56946635D01*
X68818719Y-57077863D01*
X68779500Y-57224234D01*
X63550500Y-57224234D01*
X63550500Y-49653246D01*
X63550670Y-49646756D01*
X63556157Y-49542070D01*
X64904500Y-49542070D01*
X64904500Y-49797930D01*
X64915270Y-49865925D01*
X64944526Y-50050640D01*
X65023588Y-50293972D01*
X65023589Y-50293975D01*
X65057501Y-50360529D01*
X65138848Y-50520181D01*
X65139750Y-50521950D01*
X65290132Y-50728935D01*
X65290136Y-50728940D01*
X65471059Y-50909863D01*
X65471064Y-50909867D01*
X65651607Y-51041038D01*
X65678053Y-51060252D01*
X65827080Y-51136185D01*
X65906024Y-51176410D01*
X65906027Y-51176411D01*
X66027693Y-51215942D01*
X66149361Y-51255474D01*
X66402070Y-51295500D01*
X66402071Y-51295500D01*
X66657929Y-51295500D01*
X66657930Y-51295500D01*
X66910639Y-51255474D01*
X67153975Y-51176410D01*
X67381947Y-51060252D01*
X67588942Y-50909862D01*
X67769862Y-50728942D01*
X67920252Y-50521947D01*
X68036410Y-50293975D01*
X68115474Y-50050639D01*
X68155500Y-49797930D01*
X68155500Y-49542070D01*
X68115474Y-49289361D01*
X68036410Y-49046025D01*
X68036410Y-49046024D01*
X67962006Y-48900000D01*
X67920252Y-48818053D01*
X67884276Y-48768536D01*
X67769867Y-48611064D01*
X67769863Y-48611059D01*
X67588940Y-48430136D01*
X67588935Y-48430132D01*
X67381950Y-48279750D01*
X67381949Y-48279749D01*
X67381947Y-48279748D01*
X67308910Y-48242533D01*
X67153975Y-48163589D01*
X67153972Y-48163588D01*
X66910640Y-48084526D01*
X66733068Y-48056401D01*
X66657930Y-48044500D01*
X66402070Y-48044500D01*
X66326932Y-48056401D01*
X66149359Y-48084526D01*
X65906027Y-48163588D01*
X65906024Y-48163589D01*
X65678049Y-48279750D01*
X65471064Y-48430132D01*
X65471059Y-48430136D01*
X65290136Y-48611059D01*
X65290132Y-48611064D01*
X65139750Y-48818049D01*
X65023589Y-49046024D01*
X65023588Y-49046027D01*
X64944526Y-49289359D01*
X64916700Y-49465046D01*
X64904500Y-49542070D01*
X63556157Y-49542070D01*
X63556752Y-49530708D01*
X63566592Y-49342953D01*
X63567949Y-49330046D01*
X63606956Y-49083760D01*
X63615029Y-49032786D01*
X63617723Y-49020107D01*
X63695627Y-48729368D01*
X63699636Y-48717033D01*
X63807493Y-48436054D01*
X63812763Y-48424215D01*
X63949415Y-48156023D01*
X63955891Y-48144808D01*
X64119819Y-47892380D01*
X64127434Y-47881899D01*
X64316858Y-47647979D01*
X64325525Y-47638354D01*
X64538354Y-47425525D01*
X64547979Y-47416858D01*
X64781899Y-47227434D01*
X64792380Y-47219819D01*
X65044808Y-47055891D01*
X65056023Y-47049415D01*
X65324215Y-46912763D01*
X65336054Y-46907493D01*
X65617040Y-46799633D01*
X65629368Y-46795627D01*
X65920107Y-46717723D01*
X65932786Y-46715029D01*
X66230046Y-46667949D01*
X66242951Y-46666592D01*
X66546756Y-46650669D01*
X66553246Y-46650500D01*
X66615892Y-46650500D01*
X77771728Y-46650500D01*
X77838767Y-46670185D01*
G37*
%TD.AperFunction*%
%TD*%
M02*
