%TF.GenerationSoftware,KiCad,Pcbnew,9.0.7*%
%TF.CreationDate,2026-03-24T21:52:54-06:00*%
%TF.ProjectId,Void_Player,566f6964-5f50-46c6-9179-65722e6b6963,rev?*%
%TF.SameCoordinates,Original*%
%TF.FileFunction,Legend,Bot*%
%TF.FilePolarity,Positive*%
%FSLAX46Y46*%
G04 Gerber Fmt 4.6, Leading zero omitted, Abs format (unit mm)*
G04 Created by KiCad (PCBNEW 9.0.7) date 2026-03-24 21:52:54*
%MOMM*%
%LPD*%
G01*
G04 APERTURE LIST*
%ADD10C,0.150000*%
%ADD11C,0.120000*%
G04 APERTURE END LIST*
D10*
X74566666Y-63034818D02*
X74899999Y-62558627D01*
X75138094Y-63034818D02*
X75138094Y-62034818D01*
X75138094Y-62034818D02*
X74757142Y-62034818D01*
X74757142Y-62034818D02*
X74661904Y-62082437D01*
X74661904Y-62082437D02*
X74614285Y-62130056D01*
X74614285Y-62130056D02*
X74566666Y-62225294D01*
X74566666Y-62225294D02*
X74566666Y-62368151D01*
X74566666Y-62368151D02*
X74614285Y-62463389D01*
X74614285Y-62463389D02*
X74661904Y-62511008D01*
X74661904Y-62511008D02*
X74757142Y-62558627D01*
X74757142Y-62558627D02*
X75138094Y-62558627D01*
X74233332Y-62034818D02*
X73614285Y-62034818D01*
X73614285Y-62034818D02*
X73947618Y-62415770D01*
X73947618Y-62415770D02*
X73804761Y-62415770D01*
X73804761Y-62415770D02*
X73709523Y-62463389D01*
X73709523Y-62463389D02*
X73661904Y-62511008D01*
X73661904Y-62511008D02*
X73614285Y-62606246D01*
X73614285Y-62606246D02*
X73614285Y-62844341D01*
X73614285Y-62844341D02*
X73661904Y-62939579D01*
X73661904Y-62939579D02*
X73709523Y-62987199D01*
X73709523Y-62987199D02*
X73804761Y-63034818D01*
X73804761Y-63034818D02*
X74090475Y-63034818D01*
X74090475Y-63034818D02*
X74185713Y-62987199D01*
X74185713Y-62987199D02*
X74233332Y-62939579D01*
X75359580Y-64333333D02*
X75407200Y-64285714D01*
X75407200Y-64285714D02*
X75454819Y-64142857D01*
X75454819Y-64142857D02*
X75454819Y-64047619D01*
X75454819Y-64047619D02*
X75407200Y-63904762D01*
X75407200Y-63904762D02*
X75311961Y-63809524D01*
X75311961Y-63809524D02*
X75216723Y-63761905D01*
X75216723Y-63761905D02*
X75026247Y-63714286D01*
X75026247Y-63714286D02*
X74883390Y-63714286D01*
X74883390Y-63714286D02*
X74692914Y-63761905D01*
X74692914Y-63761905D02*
X74597676Y-63809524D01*
X74597676Y-63809524D02*
X74502438Y-63904762D01*
X74502438Y-63904762D02*
X74454819Y-64047619D01*
X74454819Y-64047619D02*
X74454819Y-64142857D01*
X74454819Y-64142857D02*
X74502438Y-64285714D01*
X74502438Y-64285714D02*
X74550057Y-64333333D01*
X75454819Y-65285714D02*
X75454819Y-64714286D01*
X75454819Y-65000000D02*
X74454819Y-65000000D01*
X74454819Y-65000000D02*
X74597676Y-64904762D01*
X74597676Y-64904762D02*
X74692914Y-64809524D01*
X74692914Y-64809524D02*
X74740533Y-64714286D01*
X72310181Y-59533333D02*
X71595896Y-59533333D01*
X71595896Y-59533333D02*
X71453039Y-59580952D01*
X71453039Y-59580952D02*
X71357801Y-59676190D01*
X71357801Y-59676190D02*
X71310181Y-59819047D01*
X71310181Y-59819047D02*
X71310181Y-59914285D01*
X72214943Y-59104761D02*
X72262562Y-59057142D01*
X72262562Y-59057142D02*
X72310181Y-58961904D01*
X72310181Y-58961904D02*
X72310181Y-58723809D01*
X72310181Y-58723809D02*
X72262562Y-58628571D01*
X72262562Y-58628571D02*
X72214943Y-58580952D01*
X72214943Y-58580952D02*
X72119705Y-58533333D01*
X72119705Y-58533333D02*
X72024467Y-58533333D01*
X72024467Y-58533333D02*
X71881610Y-58580952D01*
X71881610Y-58580952D02*
X71310181Y-59152380D01*
X71310181Y-59152380D02*
X71310181Y-58533333D01*
X85034818Y-74761905D02*
X84034818Y-74761905D01*
X84034818Y-74761905D02*
X84034818Y-75000000D01*
X84034818Y-75000000D02*
X84082437Y-75142857D01*
X84082437Y-75142857D02*
X84177675Y-75238095D01*
X84177675Y-75238095D02*
X84272913Y-75285714D01*
X84272913Y-75285714D02*
X84463389Y-75333333D01*
X84463389Y-75333333D02*
X84606246Y-75333333D01*
X84606246Y-75333333D02*
X84796722Y-75285714D01*
X84796722Y-75285714D02*
X84891960Y-75238095D01*
X84891960Y-75238095D02*
X84987199Y-75142857D01*
X84987199Y-75142857D02*
X85034818Y-75000000D01*
X85034818Y-75000000D02*
X85034818Y-74761905D01*
X85034818Y-76285714D02*
X85034818Y-75714286D01*
X85034818Y-76000000D02*
X84034818Y-76000000D01*
X84034818Y-76000000D02*
X84177675Y-75904762D01*
X84177675Y-75904762D02*
X84272913Y-75809524D01*
X84272913Y-75809524D02*
X84320532Y-75714286D01*
X74254819Y-71166666D02*
X74969104Y-71166666D01*
X74969104Y-71166666D02*
X75111961Y-71119047D01*
X75111961Y-71119047D02*
X75207200Y-71023809D01*
X75207200Y-71023809D02*
X75254819Y-70880952D01*
X75254819Y-70880952D02*
X75254819Y-70785714D01*
X75254819Y-72166666D02*
X75254819Y-71595238D01*
X75254819Y-71880952D02*
X74254819Y-71880952D01*
X74254819Y-71880952D02*
X74397676Y-71785714D01*
X74397676Y-71785714D02*
X74492914Y-71690476D01*
X74492914Y-71690476D02*
X74540533Y-71595238D01*
X85966666Y-63859580D02*
X86014285Y-63907200D01*
X86014285Y-63907200D02*
X86157142Y-63954819D01*
X86157142Y-63954819D02*
X86252380Y-63954819D01*
X86252380Y-63954819D02*
X86395237Y-63907200D01*
X86395237Y-63907200D02*
X86490475Y-63811961D01*
X86490475Y-63811961D02*
X86538094Y-63716723D01*
X86538094Y-63716723D02*
X86585713Y-63526247D01*
X86585713Y-63526247D02*
X86585713Y-63383390D01*
X86585713Y-63383390D02*
X86538094Y-63192914D01*
X86538094Y-63192914D02*
X86490475Y-63097676D01*
X86490475Y-63097676D02*
X86395237Y-63002438D01*
X86395237Y-63002438D02*
X86252380Y-62954819D01*
X86252380Y-62954819D02*
X86157142Y-62954819D01*
X86157142Y-62954819D02*
X86014285Y-63002438D01*
X86014285Y-63002438D02*
X85966666Y-63050057D01*
X85109523Y-62954819D02*
X85299999Y-62954819D01*
X85299999Y-62954819D02*
X85395237Y-63002438D01*
X85395237Y-63002438D02*
X85442856Y-63050057D01*
X85442856Y-63050057D02*
X85538094Y-63192914D01*
X85538094Y-63192914D02*
X85585713Y-63383390D01*
X85585713Y-63383390D02*
X85585713Y-63764342D01*
X85585713Y-63764342D02*
X85538094Y-63859580D01*
X85538094Y-63859580D02*
X85490475Y-63907200D01*
X85490475Y-63907200D02*
X85395237Y-63954819D01*
X85395237Y-63954819D02*
X85204761Y-63954819D01*
X85204761Y-63954819D02*
X85109523Y-63907200D01*
X85109523Y-63907200D02*
X85061904Y-63859580D01*
X85061904Y-63859580D02*
X85014285Y-63764342D01*
X85014285Y-63764342D02*
X85014285Y-63526247D01*
X85014285Y-63526247D02*
X85061904Y-63431009D01*
X85061904Y-63431009D02*
X85109523Y-63383390D01*
X85109523Y-63383390D02*
X85204761Y-63335771D01*
X85204761Y-63335771D02*
X85395237Y-63335771D01*
X85395237Y-63335771D02*
X85490475Y-63383390D01*
X85490475Y-63383390D02*
X85538094Y-63431009D01*
X85538094Y-63431009D02*
X85585713Y-63526247D01*
X80166666Y-81054819D02*
X80499999Y-80578628D01*
X80738094Y-81054819D02*
X80738094Y-80054819D01*
X80738094Y-80054819D02*
X80357142Y-80054819D01*
X80357142Y-80054819D02*
X80261904Y-80102438D01*
X80261904Y-80102438D02*
X80214285Y-80150057D01*
X80214285Y-80150057D02*
X80166666Y-80245295D01*
X80166666Y-80245295D02*
X80166666Y-80388152D01*
X80166666Y-80388152D02*
X80214285Y-80483390D01*
X80214285Y-80483390D02*
X80261904Y-80531009D01*
X80261904Y-80531009D02*
X80357142Y-80578628D01*
X80357142Y-80578628D02*
X80738094Y-80578628D01*
X79785713Y-80150057D02*
X79738094Y-80102438D01*
X79738094Y-80102438D02*
X79642856Y-80054819D01*
X79642856Y-80054819D02*
X79404761Y-80054819D01*
X79404761Y-80054819D02*
X79309523Y-80102438D01*
X79309523Y-80102438D02*
X79261904Y-80150057D01*
X79261904Y-80150057D02*
X79214285Y-80245295D01*
X79214285Y-80245295D02*
X79214285Y-80340533D01*
X79214285Y-80340533D02*
X79261904Y-80483390D01*
X79261904Y-80483390D02*
X79833332Y-81054819D01*
X79833332Y-81054819D02*
X79214285Y-81054819D01*
X78761904Y-74354819D02*
X78761904Y-75164342D01*
X78761904Y-75164342D02*
X78714285Y-75259580D01*
X78714285Y-75259580D02*
X78666666Y-75307200D01*
X78666666Y-75307200D02*
X78571428Y-75354819D01*
X78571428Y-75354819D02*
X78380952Y-75354819D01*
X78380952Y-75354819D02*
X78285714Y-75307200D01*
X78285714Y-75307200D02*
X78238095Y-75259580D01*
X78238095Y-75259580D02*
X78190476Y-75164342D01*
X78190476Y-75164342D02*
X78190476Y-74354819D01*
X77809523Y-74354819D02*
X77190476Y-74354819D01*
X77190476Y-74354819D02*
X77523809Y-74735771D01*
X77523809Y-74735771D02*
X77380952Y-74735771D01*
X77380952Y-74735771D02*
X77285714Y-74783390D01*
X77285714Y-74783390D02*
X77238095Y-74831009D01*
X77238095Y-74831009D02*
X77190476Y-74926247D01*
X77190476Y-74926247D02*
X77190476Y-75164342D01*
X77190476Y-75164342D02*
X77238095Y-75259580D01*
X77238095Y-75259580D02*
X77285714Y-75307200D01*
X77285714Y-75307200D02*
X77380952Y-75354819D01*
X77380952Y-75354819D02*
X77666666Y-75354819D01*
X77666666Y-75354819D02*
X77761904Y-75307200D01*
X77761904Y-75307200D02*
X77809523Y-75259580D01*
X80138094Y-62554819D02*
X80138094Y-61554819D01*
X80138094Y-61554819D02*
X79899999Y-61554819D01*
X79899999Y-61554819D02*
X79757142Y-61602438D01*
X79757142Y-61602438D02*
X79661904Y-61697676D01*
X79661904Y-61697676D02*
X79614285Y-61792914D01*
X79614285Y-61792914D02*
X79566666Y-61983390D01*
X79566666Y-61983390D02*
X79566666Y-62126247D01*
X79566666Y-62126247D02*
X79614285Y-62316723D01*
X79614285Y-62316723D02*
X79661904Y-62411961D01*
X79661904Y-62411961D02*
X79757142Y-62507200D01*
X79757142Y-62507200D02*
X79899999Y-62554819D01*
X79899999Y-62554819D02*
X80138094Y-62554819D01*
X79233332Y-61554819D02*
X78614285Y-61554819D01*
X78614285Y-61554819D02*
X78947618Y-61935771D01*
X78947618Y-61935771D02*
X78804761Y-61935771D01*
X78804761Y-61935771D02*
X78709523Y-61983390D01*
X78709523Y-61983390D02*
X78661904Y-62031009D01*
X78661904Y-62031009D02*
X78614285Y-62126247D01*
X78614285Y-62126247D02*
X78614285Y-62364342D01*
X78614285Y-62364342D02*
X78661904Y-62459580D01*
X78661904Y-62459580D02*
X78709523Y-62507200D01*
X78709523Y-62507200D02*
X78804761Y-62554819D01*
X78804761Y-62554819D02*
X79090475Y-62554819D01*
X79090475Y-62554819D02*
X79185713Y-62507200D01*
X79185713Y-62507200D02*
X79233332Y-62459580D01*
X85866666Y-67859580D02*
X85914285Y-67907200D01*
X85914285Y-67907200D02*
X86057142Y-67954819D01*
X86057142Y-67954819D02*
X86152380Y-67954819D01*
X86152380Y-67954819D02*
X86295237Y-67907200D01*
X86295237Y-67907200D02*
X86390475Y-67811961D01*
X86390475Y-67811961D02*
X86438094Y-67716723D01*
X86438094Y-67716723D02*
X86485713Y-67526247D01*
X86485713Y-67526247D02*
X86485713Y-67383390D01*
X86485713Y-67383390D02*
X86438094Y-67192914D01*
X86438094Y-67192914D02*
X86390475Y-67097676D01*
X86390475Y-67097676D02*
X86295237Y-67002438D01*
X86295237Y-67002438D02*
X86152380Y-66954819D01*
X86152380Y-66954819D02*
X86057142Y-66954819D01*
X86057142Y-66954819D02*
X85914285Y-67002438D01*
X85914285Y-67002438D02*
X85866666Y-67050057D01*
X84961904Y-66954819D02*
X85438094Y-66954819D01*
X85438094Y-66954819D02*
X85485713Y-67431009D01*
X85485713Y-67431009D02*
X85438094Y-67383390D01*
X85438094Y-67383390D02*
X85342856Y-67335771D01*
X85342856Y-67335771D02*
X85104761Y-67335771D01*
X85104761Y-67335771D02*
X85009523Y-67383390D01*
X85009523Y-67383390D02*
X84961904Y-67431009D01*
X84961904Y-67431009D02*
X84914285Y-67526247D01*
X84914285Y-67526247D02*
X84914285Y-67764342D01*
X84914285Y-67764342D02*
X84961904Y-67859580D01*
X84961904Y-67859580D02*
X85009523Y-67907200D01*
X85009523Y-67907200D02*
X85104761Y-67954819D01*
X85104761Y-67954819D02*
X85342856Y-67954819D01*
X85342856Y-67954819D02*
X85438094Y-67907200D01*
X85438094Y-67907200D02*
X85485713Y-67859580D01*
X74166666Y-59724817D02*
X74499999Y-59248626D01*
X74738094Y-59724817D02*
X74738094Y-58724817D01*
X74738094Y-58724817D02*
X74357142Y-58724817D01*
X74357142Y-58724817D02*
X74261904Y-58772436D01*
X74261904Y-58772436D02*
X74214285Y-58820055D01*
X74214285Y-58820055D02*
X74166666Y-58915293D01*
X74166666Y-58915293D02*
X74166666Y-59058150D01*
X74166666Y-59058150D02*
X74214285Y-59153388D01*
X74214285Y-59153388D02*
X74261904Y-59201007D01*
X74261904Y-59201007D02*
X74357142Y-59248626D01*
X74357142Y-59248626D02*
X74738094Y-59248626D01*
X73309523Y-59058150D02*
X73309523Y-59724817D01*
X73547618Y-58677198D02*
X73785713Y-59391483D01*
X73785713Y-59391483D02*
X73166666Y-59391483D01*
X78995238Y-64350057D02*
X79090476Y-64302438D01*
X79090476Y-64302438D02*
X79185714Y-64207200D01*
X79185714Y-64207200D02*
X79328571Y-64064342D01*
X79328571Y-64064342D02*
X79423809Y-64016723D01*
X79423809Y-64016723D02*
X79519047Y-64016723D01*
X79471428Y-64254819D02*
X79566666Y-64207200D01*
X79566666Y-64207200D02*
X79661904Y-64111961D01*
X79661904Y-64111961D02*
X79709523Y-63921485D01*
X79709523Y-63921485D02*
X79709523Y-63588152D01*
X79709523Y-63588152D02*
X79661904Y-63397676D01*
X79661904Y-63397676D02*
X79566666Y-63302438D01*
X79566666Y-63302438D02*
X79471428Y-63254819D01*
X79471428Y-63254819D02*
X79280952Y-63254819D01*
X79280952Y-63254819D02*
X79185714Y-63302438D01*
X79185714Y-63302438D02*
X79090476Y-63397676D01*
X79090476Y-63397676D02*
X79042857Y-63588152D01*
X79042857Y-63588152D02*
X79042857Y-63921485D01*
X79042857Y-63921485D02*
X79090476Y-64111961D01*
X79090476Y-64111961D02*
X79185714Y-64207200D01*
X79185714Y-64207200D02*
X79280952Y-64254819D01*
X79280952Y-64254819D02*
X79471428Y-64254819D01*
X78090476Y-64254819D02*
X78661904Y-64254819D01*
X78376190Y-64254819D02*
X78376190Y-63254819D01*
X78376190Y-63254819D02*
X78471428Y-63397676D01*
X78471428Y-63397676D02*
X78566666Y-63492914D01*
X78566666Y-63492914D02*
X78661904Y-63540533D01*
X79195238Y-69050057D02*
X79290476Y-69002438D01*
X79290476Y-69002438D02*
X79385714Y-68907200D01*
X79385714Y-68907200D02*
X79528571Y-68764342D01*
X79528571Y-68764342D02*
X79623809Y-68716723D01*
X79623809Y-68716723D02*
X79719047Y-68716723D01*
X79671428Y-68954819D02*
X79766666Y-68907200D01*
X79766666Y-68907200D02*
X79861904Y-68811961D01*
X79861904Y-68811961D02*
X79909523Y-68621485D01*
X79909523Y-68621485D02*
X79909523Y-68288152D01*
X79909523Y-68288152D02*
X79861904Y-68097676D01*
X79861904Y-68097676D02*
X79766666Y-68002438D01*
X79766666Y-68002438D02*
X79671428Y-67954819D01*
X79671428Y-67954819D02*
X79480952Y-67954819D01*
X79480952Y-67954819D02*
X79385714Y-68002438D01*
X79385714Y-68002438D02*
X79290476Y-68097676D01*
X79290476Y-68097676D02*
X79242857Y-68288152D01*
X79242857Y-68288152D02*
X79242857Y-68621485D01*
X79242857Y-68621485D02*
X79290476Y-68811961D01*
X79290476Y-68811961D02*
X79385714Y-68907200D01*
X79385714Y-68907200D02*
X79480952Y-68954819D01*
X79480952Y-68954819D02*
X79671428Y-68954819D01*
X78861904Y-68050057D02*
X78814285Y-68002438D01*
X78814285Y-68002438D02*
X78719047Y-67954819D01*
X78719047Y-67954819D02*
X78480952Y-67954819D01*
X78480952Y-67954819D02*
X78385714Y-68002438D01*
X78385714Y-68002438D02*
X78338095Y-68050057D01*
X78338095Y-68050057D02*
X78290476Y-68145295D01*
X78290476Y-68145295D02*
X78290476Y-68240533D01*
X78290476Y-68240533D02*
X78338095Y-68383390D01*
X78338095Y-68383390D02*
X78909523Y-68954819D01*
X78909523Y-68954819D02*
X78290476Y-68954819D01*
X80161904Y-53954819D02*
X80161904Y-54764342D01*
X80161904Y-54764342D02*
X80114285Y-54859580D01*
X80114285Y-54859580D02*
X80066666Y-54907200D01*
X80066666Y-54907200D02*
X79971428Y-54954819D01*
X79971428Y-54954819D02*
X79780952Y-54954819D01*
X79780952Y-54954819D02*
X79685714Y-54907200D01*
X79685714Y-54907200D02*
X79638095Y-54859580D01*
X79638095Y-54859580D02*
X79590476Y-54764342D01*
X79590476Y-54764342D02*
X79590476Y-53954819D01*
X78638095Y-53954819D02*
X79114285Y-53954819D01*
X79114285Y-53954819D02*
X79161904Y-54431009D01*
X79161904Y-54431009D02*
X79114285Y-54383390D01*
X79114285Y-54383390D02*
X79019047Y-54335771D01*
X79019047Y-54335771D02*
X78780952Y-54335771D01*
X78780952Y-54335771D02*
X78685714Y-54383390D01*
X78685714Y-54383390D02*
X78638095Y-54431009D01*
X78638095Y-54431009D02*
X78590476Y-54526247D01*
X78590476Y-54526247D02*
X78590476Y-54764342D01*
X78590476Y-54764342D02*
X78638095Y-54859580D01*
X78638095Y-54859580D02*
X78685714Y-54907200D01*
X78685714Y-54907200D02*
X78780952Y-54954819D01*
X78780952Y-54954819D02*
X79019047Y-54954819D01*
X79019047Y-54954819D02*
X79114285Y-54907200D01*
X79114285Y-54907200D02*
X79161904Y-54859580D01*
X73554819Y-51261905D02*
X72554819Y-51261905D01*
X72554819Y-51261905D02*
X72554819Y-51500000D01*
X72554819Y-51500000D02*
X72602438Y-51642857D01*
X72602438Y-51642857D02*
X72697676Y-51738095D01*
X72697676Y-51738095D02*
X72792914Y-51785714D01*
X72792914Y-51785714D02*
X72983390Y-51833333D01*
X72983390Y-51833333D02*
X73126247Y-51833333D01*
X73126247Y-51833333D02*
X73316723Y-51785714D01*
X73316723Y-51785714D02*
X73411961Y-51738095D01*
X73411961Y-51738095D02*
X73507200Y-51642857D01*
X73507200Y-51642857D02*
X73554819Y-51500000D01*
X73554819Y-51500000D02*
X73554819Y-51261905D01*
X72650057Y-52214286D02*
X72602438Y-52261905D01*
X72602438Y-52261905D02*
X72554819Y-52357143D01*
X72554819Y-52357143D02*
X72554819Y-52595238D01*
X72554819Y-52595238D02*
X72602438Y-52690476D01*
X72602438Y-52690476D02*
X72650057Y-52738095D01*
X72650057Y-52738095D02*
X72745295Y-52785714D01*
X72745295Y-52785714D02*
X72840533Y-52785714D01*
X72840533Y-52785714D02*
X72983390Y-52738095D01*
X72983390Y-52738095D02*
X73554819Y-52166667D01*
X73554819Y-52166667D02*
X73554819Y-52785714D01*
X84084818Y-70733333D02*
X83608627Y-70400000D01*
X84084818Y-70161905D02*
X83084818Y-70161905D01*
X83084818Y-70161905D02*
X83084818Y-70542857D01*
X83084818Y-70542857D02*
X83132437Y-70638095D01*
X83132437Y-70638095D02*
X83180056Y-70685714D01*
X83180056Y-70685714D02*
X83275294Y-70733333D01*
X83275294Y-70733333D02*
X83418151Y-70733333D01*
X83418151Y-70733333D02*
X83513389Y-70685714D01*
X83513389Y-70685714D02*
X83561008Y-70638095D01*
X83561008Y-70638095D02*
X83608627Y-70542857D01*
X83608627Y-70542857D02*
X83608627Y-70161905D01*
X84084818Y-71685714D02*
X84084818Y-71114286D01*
X84084818Y-71400000D02*
X83084818Y-71400000D01*
X83084818Y-71400000D02*
X83227675Y-71304762D01*
X83227675Y-71304762D02*
X83322913Y-71209524D01*
X83322913Y-71209524D02*
X83370532Y-71114286D01*
D11*
%TO.C,R3*%
X73272936Y-59840000D02*
X74727064Y-59840000D01*
X73272936Y-61660000D02*
X74727064Y-61660000D01*
%TO.C,C1*%
X72090000Y-63788748D02*
X72090000Y-65211252D01*
X73910000Y-63788748D02*
X73910000Y-65211252D01*
%TO.C,J2*%
X67185000Y-55609999D02*
X68595000Y-55610000D01*
X67185000Y-64770001D02*
X68595000Y-64770000D01*
X71265000Y-63150000D02*
X71265001Y-63950000D01*
X71265001Y-63950000D02*
X71115001Y-63950000D01*
%TO.C,D1*%
X81615000Y-77785000D02*
X81615000Y-73900000D01*
X83885000Y-73900000D02*
X83885000Y-77785000D01*
X83885000Y-77785000D02*
X81615000Y-77785000D01*
%TO.C,J1*%
X64490000Y-73839999D02*
X64490000Y-69160001D01*
X68060000Y-67440000D02*
X72310000Y-67440000D01*
X68060000Y-75560000D02*
X72310000Y-75560000D01*
X70710000Y-68460000D02*
X70710001Y-69740000D01*
X70710000Y-74540000D02*
X70710001Y-73260000D01*
X70710001Y-73260000D02*
X73600000Y-73260000D01*
X72310000Y-67440000D02*
X72310000Y-68460000D01*
X72310000Y-68460000D02*
X70710000Y-68460000D01*
X72310000Y-74540000D02*
X70710000Y-74540000D01*
X72310000Y-75560000D02*
X72310000Y-74540000D01*
%TO.C,C6*%
X81938747Y-62590000D02*
X83361251Y-62590000D01*
X81938747Y-64410000D02*
X83361251Y-64410000D01*
%TO.C,R2*%
X79090000Y-78477064D02*
X79090000Y-77022936D01*
X80910000Y-78477064D02*
X80910000Y-77022936D01*
%TO.C,U3*%
X77090000Y-70940000D02*
X77090000Y-70990000D01*
X77090000Y-74010000D02*
X77090000Y-74060000D01*
X77090000Y-74060000D02*
X78910000Y-74060000D01*
X78910000Y-70940000D02*
X77090000Y-70940000D01*
X78910000Y-70990000D02*
X78910000Y-70940000D01*
X78910000Y-72890000D02*
X78910000Y-72110000D01*
X78910000Y-74060000D02*
X78910000Y-74010000D01*
X76790000Y-74340000D02*
X76310000Y-74340000D01*
X76550000Y-74010000D01*
X76790000Y-74340000D01*
G36*
X76790000Y-74340000D02*
G01*
X76310000Y-74340000D01*
X76550000Y-74010000D01*
X76790000Y-74340000D01*
G37*
%TO.C,D3*%
X76465000Y-57215000D02*
X78735000Y-57215000D01*
X76465000Y-61100000D02*
X76465000Y-57215000D01*
X78735000Y-57215000D02*
X78735000Y-61100000D01*
%TO.C,C5*%
X81938747Y-66340000D02*
X83361251Y-66340000D01*
X81938747Y-68160000D02*
X83361251Y-68160000D01*
%TO.C,R4*%
X73272936Y-56529999D02*
X74727064Y-56529999D01*
X73272936Y-58349999D02*
X74727064Y-58349999D01*
%TO.C,Q1*%
X75490000Y-62440000D02*
X75490000Y-63440000D01*
X75490000Y-64560000D02*
X75490000Y-65560000D01*
X75490000Y-65560000D02*
X77010000Y-65560000D01*
X77010000Y-62440000D02*
X75490000Y-62440000D01*
X77010000Y-62490000D02*
X77010000Y-62440000D01*
X77010000Y-64390000D02*
X77010000Y-63610000D01*
X77010000Y-65560000D02*
X77010000Y-65510000D01*
X77790000Y-63950000D02*
X77310000Y-63950000D01*
X77550000Y-63620000D01*
X77790000Y-63950000D01*
G36*
X77790000Y-63950000D02*
G01*
X77310000Y-63950000D01*
X77550000Y-63620000D01*
X77790000Y-63950000D01*
G37*
%TO.C,Q2*%
X75490000Y-66890000D02*
X75490000Y-67890000D01*
X75490000Y-69010000D02*
X75490000Y-70010000D01*
X75490000Y-70010000D02*
X77010000Y-70010000D01*
X77010000Y-66890000D02*
X75490000Y-66890000D01*
X77010000Y-66940000D02*
X77010000Y-66890000D01*
X77010000Y-68840000D02*
X77010000Y-68060000D01*
X77010000Y-70010000D02*
X77010000Y-69960000D01*
X77790000Y-68400000D02*
X77310000Y-68400000D01*
X77550000Y-68070000D01*
X77790000Y-68400000D01*
G36*
X77790000Y-68400000D02*
G01*
X77310000Y-68400000D01*
X77550000Y-68070000D01*
X77790000Y-68400000D01*
G37*
%TO.C,U5*%
X79089999Y-59100000D02*
X79090000Y-55340000D01*
X79090000Y-55340000D02*
X80349999Y-55340000D01*
X85910000Y-55340000D02*
X84650001Y-55340000D01*
X85910001Y-59100000D02*
X85910000Y-55340000D01*
X86140000Y-60620000D02*
X85810000Y-60380000D01*
X86140000Y-60140000D01*
X86140000Y-60620000D01*
G36*
X86140000Y-60620000D02*
G01*
X85810000Y-60380000D01*
X86140000Y-60140000D01*
X86140000Y-60620000D01*
G37*
%TO.C,U1*%
X86930000Y-53210000D02*
X86930000Y-54540000D01*
X86930000Y-55810000D02*
X86930000Y-104130000D01*
X88260000Y-53210000D02*
X86930000Y-53210000D01*
X89530000Y-53210000D02*
X89530000Y-55810000D01*
X89530000Y-55810000D02*
X86930000Y-55810000D01*
X92130000Y-53210000D02*
X89530000Y-53210000D01*
X92130000Y-53210000D02*
X92130000Y-104130000D01*
X92130000Y-104130000D02*
X86930000Y-104130000D01*
%TO.C,D2*%
X69865000Y-48715000D02*
X72135000Y-48715000D01*
X69865000Y-52600000D02*
X69865000Y-48715000D01*
X72135000Y-48715000D02*
X72135000Y-52600000D01*
%TO.C,R1*%
X80890000Y-71627064D02*
X80890000Y-70172936D01*
X82710000Y-71627064D02*
X82710000Y-70172936D01*
%TD*%
M02*
