%TF.GenerationSoftware,KiCad,Pcbnew,9.0.7*%
%TF.CreationDate,2026-03-24T21:52:54-06:00*%
%TF.ProjectId,Void_Player,566f6964-5f50-46c6-9179-65722e6b6963,rev?*%
%TF.SameCoordinates,Original*%
%TF.FileFunction,Copper,L2,Bot*%
%TF.FilePolarity,Positive*%
%FSLAX46Y46*%
G04 Gerber Fmt 4.6, Leading zero omitted, Abs format (unit mm)*
G04 Created by KiCad (PCBNEW 9.0.7) date 2026-03-24 21:52:54*
%MOMM*%
%LPD*%
G01*
G04 APERTURE LIST*
G04 Aperture macros list*
%AMRoundRect*
0 Rectangle with rounded corners*
0 $1 Rounding radius*
0 $2 $3 $4 $5 $6 $7 $8 $9 X,Y pos of 4 corners*
0 Add a 4 corners polygon primitive as box body*
4,1,4,$2,$3,$4,$5,$6,$7,$8,$9,$2,$3,0*
0 Add four circle primitives for the rounded corners*
1,1,$1+$1,$2,$3*
1,1,$1+$1,$4,$5*
1,1,$1+$1,$6,$7*
1,1,$1+$1,$8,$9*
0 Add four rect primitives between the rounded corners*
20,1,$1+$1,$2,$3,$4,$5,0*
20,1,$1+$1,$4,$5,$6,$7,0*
20,1,$1+$1,$6,$7,$8,$9,0*
20,1,$1+$1,$8,$9,$2,$3,0*%
G04 Aperture macros list end*
%TA.AperFunction,ComponentPad*%
%ADD10C,2.000000*%
%TD*%
%TA.AperFunction,ComponentPad*%
%ADD11R,1.700000X1.700000*%
%TD*%
%TA.AperFunction,ComponentPad*%
%ADD12C,1.700000*%
%TD*%
%TA.AperFunction,SMDPad,CuDef*%
%ADD13RoundRect,0.250000X-0.312500X-0.625000X0.312500X-0.625000X0.312500X0.625000X-0.312500X0.625000X0*%
%TD*%
%TA.AperFunction,SMDPad,CuDef*%
%ADD14RoundRect,0.250000X-0.650000X0.325000X-0.650000X-0.325000X0.650000X-0.325000X0.650000X0.325000X0*%
%TD*%
%TA.AperFunction,SMDPad,CuDef*%
%ADD15RoundRect,0.150000X0.425000X-0.150000X0.425000X0.150000X-0.425000X0.150000X-0.425000X-0.150000X0*%
%TD*%
%TA.AperFunction,SMDPad,CuDef*%
%ADD16RoundRect,0.075000X0.500000X-0.075000X0.500000X0.075000X-0.500000X0.075000X-0.500000X-0.075000X0*%
%TD*%
%TA.AperFunction,SMDPad,CuDef*%
%ADD17RoundRect,0.250000X0.750000X-0.840000X0.750000X0.840000X-0.750000X0.840000X-0.750000X-0.840000X0*%
%TD*%
%TA.AperFunction,SMDPad,CuDef*%
%ADD18RoundRect,0.250000X0.625000X-0.375000X0.625000X0.375000X-0.625000X0.375000X-0.625000X-0.375000X0*%
%TD*%
%TA.AperFunction,SMDPad,CuDef*%
%ADD19RoundRect,0.250000X1.500000X-0.250000X1.500000X0.250000X-1.500000X0.250000X-1.500000X-0.250000X0*%
%TD*%
%TA.AperFunction,SMDPad,CuDef*%
%ADD20RoundRect,0.250001X1.449999X-0.499999X1.449999X0.499999X-1.449999X0.499999X-1.449999X-0.499999X0*%
%TD*%
%TA.AperFunction,SMDPad,CuDef*%
%ADD21RoundRect,0.250000X-0.325000X-0.650000X0.325000X-0.650000X0.325000X0.650000X-0.325000X0.650000X0*%
%TD*%
%TA.AperFunction,SMDPad,CuDef*%
%ADD22RoundRect,0.250000X0.625000X-0.312500X0.625000X0.312500X-0.625000X0.312500X-0.625000X-0.312500X0*%
%TD*%
%TA.AperFunction,SMDPad,CuDef*%
%ADD23RoundRect,0.150000X-0.512500X-0.150000X0.512500X-0.150000X0.512500X0.150000X-0.512500X0.150000X0*%
%TD*%
%TA.AperFunction,SMDPad,CuDef*%
%ADD24RoundRect,0.250000X-0.625000X0.375000X-0.625000X-0.375000X0.625000X-0.375000X0.625000X0.375000X0*%
%TD*%
%TA.AperFunction,SMDPad,CuDef*%
%ADD25RoundRect,0.150000X0.587500X0.150000X-0.587500X0.150000X-0.587500X-0.150000X0.587500X-0.150000X0*%
%TD*%
%TA.AperFunction,SMDPad,CuDef*%
%ADD26RoundRect,0.375000X0.375000X-0.625000X0.375000X0.625000X-0.375000X0.625000X-0.375000X-0.625000X0*%
%TD*%
%TA.AperFunction,SMDPad,CuDef*%
%ADD27RoundRect,0.500000X1.400000X-0.500000X1.400000X0.500000X-1.400000X0.500000X-1.400000X-0.500000X0*%
%TD*%
%TA.AperFunction,ComponentPad*%
%ADD28O,1.700000X1.700000*%
%TD*%
%TA.AperFunction,ViaPad*%
%ADD29C,0.600000*%
%TD*%
%TA.AperFunction,Conductor*%
%ADD30C,0.500000*%
%TD*%
%TA.AperFunction,Conductor*%
%ADD31C,0.200000*%
%TD*%
G04 APERTURE END LIST*
D10*
%TO.P,SW4,1,1*%
%TO.N,Previous*%
X69550000Y-89050000D03*
X69550000Y-95550000D03*
%TO.P,SW4,2,2*%
%TO.N,GND*%
X65049999Y-89050000D03*
X65050000Y-95550001D03*
%TD*%
%TO.P,SW6,1,1*%
%TO.N,Vol_Down*%
X77050000Y-99500000D03*
X77050000Y-106000000D03*
%TO.P,SW6,2,2*%
%TO.N,GND*%
X72549999Y-99500000D03*
X72550000Y-106000001D03*
%TD*%
%TO.P,SW3,1,1*%
%TO.N,Next*%
X80050000Y-95550000D03*
X80050000Y-89050000D03*
%TO.P,SW3,2,2*%
%TO.N,GND*%
X84550001Y-95550000D03*
X84550000Y-89049999D03*
%TD*%
D11*
%TO.P,U2,GND,GND*%
%TO.N,GND*%
X73820000Y-49400000D03*
D12*
%TO.P,U2,SCK,SCK*%
%TO.N,SCK*%
X78900000Y-49400000D03*
%TO.P,U2,SDA,SDA*%
%TO.N,SDA*%
X81440000Y-49400000D03*
%TO.P,U2,VDD,VDD*%
%TO.N,+3.3V*%
X76360000Y-49400000D03*
%TD*%
D10*
%TO.P,SW5,1,1*%
%TO.N,Vol_Up*%
X77000000Y-78500000D03*
X77000000Y-85000000D03*
%TO.P,SW5,2,2*%
%TO.N,GND*%
X72499999Y-78500000D03*
X72500000Y-85000001D03*
%TD*%
%TO.P,SW2,1,1*%
%TO.N,Center*%
X77050000Y-89050000D03*
X77050000Y-95550000D03*
%TO.P,SW2,2,2*%
%TO.N,GND*%
X72549999Y-89050000D03*
X72550000Y-95550001D03*
%TD*%
%TO.P,SW1,1,1*%
%TO.N,Menu*%
X69500000Y-78500000D03*
X69500000Y-85000000D03*
%TO.P,SW1,2,2*%
%TO.N,GND*%
X64999999Y-78500000D03*
X65000000Y-85000001D03*
%TD*%
D13*
%TO.P,R3,1*%
%TO.N,Net-(J2-CC1)*%
X72537500Y-60750000D03*
%TO.P,R3,2*%
%TO.N,GND*%
X75462500Y-60750000D03*
%TD*%
D14*
%TO.P,C1,1*%
%TO.N,Net-(D1-A)*%
X73000000Y-63024999D03*
%TO.P,C1,2*%
%TO.N,GND*%
X73000000Y-65975001D03*
%TD*%
D15*
%TO.P,J2,A1,GND*%
%TO.N,GND*%
X70430000Y-63390000D03*
%TO.P,J2,A4,VBUS*%
%TO.N,Net-(D1-A)*%
X70430000Y-62590000D03*
D16*
%TO.P,J2,A5,CC1*%
%TO.N,Net-(J2-CC1)*%
X70429999Y-61440000D03*
%TO.P,J2,A6,D+*%
%TO.N,unconnected-(J2-D+-PadA6)*%
X70430000Y-60440000D03*
%TO.P,J2,A7,D-*%
%TO.N,unconnected-(J2-D--PadA7)*%
X70430000Y-59940000D03*
%TO.P,J2,A8*%
%TO.N,unconnected-(J2-PadA8)*%
X70429999Y-58940000D03*
D15*
%TO.P,J2,A9,VBUS*%
%TO.N,Net-(D1-A)*%
X70430000Y-57790000D03*
%TO.P,J2,A12,GND*%
%TO.N,GND*%
X70430000Y-56990000D03*
%TO.P,J2,B1,GND*%
X70430000Y-56990000D03*
%TO.P,J2,B4,VBUS*%
%TO.N,Net-(D1-A)*%
X70430000Y-57790000D03*
D16*
%TO.P,J2,B5,CC2*%
%TO.N,Net-(J2-CC2)*%
X70430000Y-58440000D03*
%TO.P,J2,B6,D+*%
%TO.N,unconnected-(J2-D+-PadB6)*%
X70430000Y-59440000D03*
%TO.P,J2,B7,D-*%
%TO.N,unconnected-(J2-D--PadB7)*%
X70430000Y-60940000D03*
%TO.P,J2,B8*%
%TO.N,unconnected-(J2-PadB8)*%
X70430000Y-61940000D03*
D15*
%TO.P,J2,B9,VBUS*%
%TO.N,Net-(D1-A)*%
X70430000Y-62590000D03*
%TO.P,J2,B12,GND*%
%TO.N,GND*%
X70430000Y-63390000D03*
D17*
%TO.P,J2,S1,SHIELD*%
X65925000Y-65300000D03*
X69855000Y-65300000D03*
X65925000Y-55080000D03*
X69855000Y-55080000D03*
%TD*%
D18*
%TO.P,D1,1,K*%
%TO.N,Net-(D1-K)*%
X82750000Y-76899999D03*
%TO.P,D1,2,A*%
%TO.N,Net-(D1-A)*%
X82750000Y-74100001D03*
%TD*%
D19*
%TO.P,J1,1,Pin_1*%
%TO.N,Net-(J1-Pin_1)*%
X71850000Y-72500000D03*
%TO.P,J1,2,Pin_2*%
%TO.N,GND*%
X71850000Y-70500000D03*
D20*
%TO.P,J1,MP*%
%TO.N,N/C*%
X66100000Y-74850000D03*
X66100000Y-68150000D03*
%TD*%
D21*
%TO.P,C6,1*%
%TO.N,RASPI_LOAD*%
X81174998Y-63500000D03*
%TO.P,C6,2*%
%TO.N,GND*%
X84125000Y-63500000D03*
%TD*%
D22*
%TO.P,R2,1*%
%TO.N,Net-(D1-K)*%
X80000000Y-79212500D03*
%TO.P,R2,2*%
%TO.N,Net-(U3-STAT)*%
X80000000Y-76287500D03*
%TD*%
D23*
%TO.P,U3,1,STAT*%
%TO.N,Net-(U3-STAT)*%
X76862500Y-73449999D03*
%TO.P,U3,2,V_{SS}*%
%TO.N,GND*%
X76862500Y-72500000D03*
%TO.P,U3,3,V_{BAT}*%
%TO.N,Net-(J1-Pin_1)*%
X76862500Y-71550001D03*
%TO.P,U3,4,V_{DD}*%
%TO.N,Net-(D1-A)*%
X79137500Y-71550001D03*
%TO.P,U3,5,PROG*%
%TO.N,Net-(U3-PROG)*%
X79137500Y-73449999D03*
%TD*%
D24*
%TO.P,D3,1,K*%
%TO.N,Net-(D3-K)*%
X77600000Y-58100001D03*
%TO.P,D3,2,A*%
%TO.N,B+*%
X77600000Y-60899999D03*
%TD*%
D21*
%TO.P,C5,1*%
%TO.N,Net-(D3-K)*%
X81174998Y-67250000D03*
%TO.P,C5,2*%
%TO.N,GND*%
X84125000Y-67250000D03*
%TD*%
D13*
%TO.P,R4,1*%
%TO.N,Net-(J2-CC2)*%
X72537500Y-57439999D03*
%TO.P,R4,2*%
%TO.N,GND*%
X75462500Y-57439999D03*
%TD*%
D25*
%TO.P,Q1,1,G*%
%TO.N,Net-(D1-A)*%
X77187500Y-63050000D03*
%TO.P,Q1,2,S*%
%TO.N,B+*%
X77187500Y-64950000D03*
%TO.P,Q1,3,D*%
%TO.N,Net-(Q1-D)*%
X75312500Y-64000000D03*
%TD*%
%TO.P,Q2,1,G*%
%TO.N,Net-(D1-A)*%
X77187500Y-67500000D03*
%TO.P,Q2,2,S*%
%TO.N,Net-(J1-Pin_1)*%
X77187500Y-69400000D03*
%TO.P,Q2,3,D*%
%TO.N,Net-(Q1-D)*%
X75312500Y-68450000D03*
%TD*%
D26*
%TO.P,U5,1,GND*%
%TO.N,GND*%
X84800000Y-60400000D03*
%TO.P,U5,2,VO*%
%TO.N,RASPI_LOAD*%
X82500000Y-60399999D03*
D27*
X82500000Y-54100001D03*
D26*
%TO.P,U5,3,VI*%
%TO.N,Net-(D3-K)*%
X80200000Y-60400000D03*
%TD*%
D11*
%TO.P,U1,1,3V3_1*%
%TO.N,+3.3V*%
X88260000Y-54540000D03*
D28*
%TO.P,U1,2,5V_2*%
%TO.N,RASPI_LOAD*%
X90800000Y-54540000D03*
%TO.P,U1,3,GPIO2/SDA1*%
%TO.N,SDA*%
X88260000Y-57080000D03*
%TO.P,U1,4,5V_4*%
%TO.N,RASPI_LOAD*%
X90800000Y-57080000D03*
%TO.P,U1,5,GPIO3/SCL*%
%TO.N,SCK*%
X88260000Y-59620000D03*
%TO.P,U1,6,GND_6*%
%TO.N,GND*%
X90800000Y-59620000D03*
%TO.P,U1,7,GPIO4/GPIO_GCLK*%
%TO.N,unconnected-(U1-GPIO4{slash}GPIO_GCLK-Pad7)*%
X88260000Y-62160000D03*
%TO.P,U1,8,GPIO14/TXD0*%
%TO.N,unconnected-(U1-GPIO14{slash}TXD0-Pad8)*%
X90800000Y-62160000D03*
%TO.P,U1,9,GND_9*%
%TO.N,GND*%
X88260000Y-64700000D03*
%TO.P,U1,10,GPIO15/RXD0*%
%TO.N,unconnected-(U1-GPIO15{slash}RXD0-Pad10)*%
X90800000Y-64700000D03*
%TO.P,U1,11,GPIO17/GPIO_GEN0*%
%TO.N,Menu*%
X88260000Y-67240000D03*
%TO.P,U1,12,GPIO18/GPIO_GEN1*%
%TO.N,unconnected-(U1-GPIO18{slash}GPIO_GEN1-Pad12)*%
X90800000Y-67240000D03*
%TO.P,U1,13,GPIO27/GPIO_GEN2*%
%TO.N,Vol_Up*%
X88260000Y-69780000D03*
%TO.P,U1,14,GND_14*%
%TO.N,GND*%
X90800000Y-69780000D03*
%TO.P,U1,15,GPIO22/GPIO_GEN3*%
%TO.N,unconnected-(U1-GPIO22{slash}GPIO_GEN3-Pad15)*%
X88260000Y-72320000D03*
%TO.P,U1,16,GPIO23/GPIO_GEN4*%
%TO.N,unconnected-(U1-GPIO23{slash}GPIO_GEN4-Pad16)*%
X90800000Y-72320000D03*
%TO.P,U1,17,3V3_17*%
%TO.N,+3.3V*%
X88260000Y-74860000D03*
%TO.P,U1,18,GPIO24/GPIO_GEN5*%
%TO.N,unconnected-(U1-GPIO24{slash}GPIO_GEN5-Pad18)*%
X90800000Y-74860000D03*
%TO.P,U1,19,GPIO10/SPI_MOSI*%
%TO.N,Previous*%
X88260000Y-77400000D03*
%TO.P,U1,20,GND_20*%
%TO.N,GND*%
X90800000Y-77400000D03*
%TO.P,U1,21,GPIO9/SPI_MISO*%
%TO.N,Center*%
X88260000Y-79940000D03*
%TO.P,U1,22,GPIO25/GPIO_GEN6*%
%TO.N,unconnected-(U1-GPIO25{slash}GPIO_GEN6-Pad22)*%
X90800000Y-79940000D03*
%TO.P,U1,23,GPIO11/SPI_SCLK*%
%TO.N,Next*%
X88260000Y-82480000D03*
%TO.P,U1,24,GPIO8/SPI_~{CE0}*%
%TO.N,unconnected-(U1-GPIO8{slash}SPI_~{CE0}-Pad24)*%
X90800000Y-82480000D03*
%TO.P,U1,25,GND_25*%
%TO.N,GND*%
X88260000Y-85020000D03*
%TO.P,U1,26,GPIO7/SPI_~{CE1}*%
%TO.N,unconnected-(U1-GPIO7{slash}SPI_~{CE1}-Pad26)*%
X90800000Y-85020000D03*
%TO.P,U1,27,ID_SD*%
%TO.N,unconnected-(U1-ID_SD-Pad27)*%
X88260000Y-87560000D03*
%TO.P,U1,28,ID_SC*%
%TO.N,unconnected-(U1-ID_SC-Pad28)*%
X90800000Y-87560000D03*
%TO.P,U1,29,GPIO5*%
%TO.N,unconnected-(U1-GPIO5-Pad29)*%
X88260000Y-90100000D03*
%TO.P,U1,30,GND_30*%
%TO.N,GND*%
X90800000Y-90100000D03*
%TO.P,U1,31,GPIO6*%
%TO.N,unconnected-(U1-GPIO6-Pad31)*%
X88260000Y-92640000D03*
%TO.P,U1,32,GPIO12*%
%TO.N,unconnected-(U1-GPIO12-Pad32)*%
X90800000Y-92640000D03*
%TO.P,U1,33,GPIO13*%
%TO.N,unconnected-(U1-GPIO13-Pad33)*%
X88260000Y-95180000D03*
%TO.P,U1,34,GND_34*%
%TO.N,GND*%
X90800000Y-95180000D03*
%TO.P,U1,35,GPIO19*%
%TO.N,Vol_Down*%
X88260000Y-97720000D03*
%TO.P,U1,36,GPIO16*%
%TO.N,unconnected-(U1-GPIO16-Pad36)*%
X90800000Y-97720000D03*
%TO.P,U1,37,GPIO26*%
%TO.N,unconnected-(U1-GPIO26-Pad37)*%
X88260000Y-100260000D03*
%TO.P,U1,38,GPIO20*%
%TO.N,unconnected-(U1-GPIO20-Pad38)*%
X90800000Y-100260000D03*
%TO.P,U1,39,GND_39*%
%TO.N,GND*%
X88260000Y-102800000D03*
%TO.P,U1,40,GPIO21*%
%TO.N,unconnected-(U1-GPIO21-Pad40)*%
X90800000Y-102800000D03*
%TD*%
D24*
%TO.P,D2,1,K*%
%TO.N,RASPI_LOAD*%
X71000000Y-49600001D03*
%TO.P,D2,2,A*%
%TO.N,Net-(D1-A)*%
X71000000Y-52399999D03*
%TD*%
D22*
%TO.P,R1,1*%
%TO.N,Net-(U3-PROG)*%
X81800000Y-72362500D03*
%TO.P,R1,2*%
%TO.N,GND*%
X81800000Y-69437500D03*
%TD*%
D29*
%TO.N,GND*%
X74600000Y-88700000D03*
X69250000Y-51500000D03*
X74700000Y-52500000D03*
X82700000Y-99500000D03*
X70800000Y-81500000D03*
X73000000Y-64500000D03*
X67750000Y-53000000D03*
X67900000Y-62800000D03*
X83500000Y-71200000D03*
X82400000Y-96300000D03*
X78000000Y-55200000D03*
X69250000Y-53000000D03*
X67900000Y-65400000D03*
X78600000Y-66300000D03*
X86000000Y-65000000D03*
X79300000Y-67600000D03*
X74800000Y-85000000D03*
X68000000Y-57900000D03*
X76300000Y-80700000D03*
X75100000Y-70100000D03*
X71400000Y-67000000D03*
X80700000Y-57600000D03*
X73500000Y-68100000D03*
%TD*%
D30*
%TO.N,Menu*%
X69500000Y-78500000D02*
X70000000Y-78500000D01*
X69500000Y-85000000D02*
X71750000Y-82750000D01*
X79500000Y-82750000D02*
X85000000Y-77250000D01*
X71750000Y-82750000D02*
X79500000Y-82750000D01*
X85000000Y-70500000D02*
X88260000Y-67240000D01*
X85000000Y-77250000D02*
X85000000Y-70500000D01*
%TO.N,Center*%
X77050000Y-89050000D02*
X77997976Y-89050000D01*
X77050000Y-95550000D02*
X77050000Y-89050000D01*
X77997976Y-89050000D02*
X87107976Y-79940000D01*
X87107976Y-79940000D02*
X88260000Y-79940000D01*
%TO.N,Next*%
X80050000Y-89050000D02*
X86620000Y-82480000D01*
X80050000Y-95550000D02*
X80050000Y-89050000D01*
X86620000Y-82480000D02*
X88260000Y-82480000D01*
%TO.N,Previous*%
X78660000Y-87000000D02*
X88260000Y-77400000D01*
X71600000Y-87000000D02*
X78660000Y-87000000D01*
X69550000Y-95550000D02*
X69550000Y-89050000D01*
X69550000Y-89050000D02*
X71600000Y-87000000D01*
%TO.N,Vol_Up*%
X88260000Y-70240000D02*
X88260000Y-69780000D01*
X86000000Y-78000000D02*
X86000000Y-72040000D01*
X86000000Y-72040000D02*
X88260000Y-69780000D01*
X79000000Y-85000000D02*
X86000000Y-78000000D01*
X77000000Y-85000000D02*
X79000000Y-85000000D01*
%TO.N,Vol_Down*%
X78830000Y-97720000D02*
X88260000Y-97720000D01*
X77050000Y-106000000D02*
X77050000Y-99500000D01*
X77050000Y-99500000D02*
X78830000Y-97720000D01*
D31*
%TO.N,Net-(D1-A)*%
X70430000Y-62590000D02*
X71090000Y-62590000D01*
X71500000Y-52899999D02*
X71000000Y-52399999D01*
X78000000Y-73800000D02*
X78700000Y-74500000D01*
D30*
X72874999Y-63150000D02*
X73000000Y-63024999D01*
D31*
X78700000Y-74500000D02*
X82350001Y-74500000D01*
X76149000Y-66461500D02*
X76149000Y-64601000D01*
X70430000Y-57790000D02*
X71116968Y-57790000D01*
X71524999Y-63024999D02*
X73000000Y-63024999D01*
X82350001Y-74500000D02*
X82750000Y-74100001D01*
D30*
X73000000Y-63024999D02*
X77162499Y-63024999D01*
D31*
X79137500Y-69450000D02*
X77187500Y-67500000D01*
X78000000Y-72687501D02*
X78000000Y-73800000D01*
X79137500Y-71550001D02*
X78000000Y-72687501D01*
X79137500Y-71550001D02*
X79137500Y-69450000D01*
X71090000Y-62590000D02*
X71524999Y-63024999D01*
X77187500Y-63562500D02*
X77187500Y-63050000D01*
X76149000Y-64601000D02*
X77187500Y-63562500D01*
X71116968Y-57790000D02*
X71500000Y-57406968D01*
D30*
X77162499Y-63024999D02*
X77187500Y-63050000D01*
D31*
X71500000Y-57406968D02*
X71500000Y-52899999D01*
X82750000Y-74100001D02*
X82750000Y-73500000D01*
X77187500Y-67500000D02*
X76149000Y-66461500D01*
D30*
%TO.N,Net-(D3-K)*%
X79899999Y-60700001D02*
X79899999Y-65975001D01*
X79899999Y-65975001D02*
X81174998Y-67250000D01*
D31*
X77600000Y-58100001D02*
X77900001Y-58100001D01*
X77900001Y-58100001D02*
X80200000Y-60400000D01*
D30*
X80200000Y-60400000D02*
X79899999Y-60700001D01*
%TO.N,RASPI_LOAD*%
X73100001Y-47500000D02*
X83000000Y-47500000D01*
X84450002Y-51750000D02*
X89000000Y-51750000D01*
X83000000Y-47500000D02*
X84500000Y-49000000D01*
X82100001Y-54100001D02*
X84450002Y-51750000D01*
X90800000Y-53550000D02*
X90800000Y-54540000D01*
X89000000Y-51750000D02*
X90800000Y-53550000D01*
X82500000Y-54100001D02*
X82500000Y-60399999D01*
D31*
X81174998Y-63500000D02*
X81174998Y-61725001D01*
D30*
X84500000Y-51700002D02*
X84450002Y-51750000D01*
X84500000Y-49000000D02*
X84500000Y-51700002D01*
X90800000Y-54540000D02*
X90800000Y-57080000D01*
X71000000Y-49600001D02*
X73100001Y-47500000D01*
D31*
X81174998Y-61725001D02*
X82500000Y-60399999D01*
%TO.N,Net-(D1-K)*%
X80000000Y-79212500D02*
X81287500Y-79212500D01*
X81287500Y-79212500D02*
X82750000Y-77750000D01*
X82750000Y-77750000D02*
X82750000Y-76899999D01*
%TO.N,B+*%
X78226000Y-61525999D02*
X78226000Y-63911500D01*
X78226000Y-63911500D02*
X77187500Y-64950000D01*
X77600000Y-60899999D02*
X78226000Y-61525999D01*
%TO.N,Net-(J1-Pin_1)*%
X77187500Y-71225001D02*
X77187500Y-69400000D01*
X72799999Y-71550001D02*
X76862500Y-71550001D01*
X71850000Y-72500000D02*
X72799999Y-71550001D01*
X76862500Y-71550001D02*
X77187500Y-71225001D01*
%TO.N,Net-(U3-PROG)*%
X80712501Y-73449999D02*
X81800000Y-72362500D01*
X79137500Y-73449999D02*
X80712501Y-73449999D01*
%TO.N,Net-(U3-STAT)*%
X78787500Y-76287500D02*
X80000000Y-76287500D01*
X76862500Y-73449999D02*
X76862500Y-74362500D01*
X76862500Y-74362500D02*
X78787500Y-76287500D01*
%TO.N,Net-(J2-CC1)*%
X71847500Y-61440000D02*
X72537500Y-60750000D01*
X70429999Y-61440000D02*
X71847500Y-61440000D01*
%TO.N,Net-(J2-CC2)*%
X70430000Y-58440000D02*
X71537499Y-58440000D01*
X72537500Y-57439999D02*
X72537500Y-58314999D01*
X71537499Y-58440000D02*
X72537500Y-57439999D01*
%TO.N,Net-(Q1-D)*%
X75312500Y-64000000D02*
X75312500Y-68450000D01*
%TD*%
%TA.AperFunction,Conductor*%
%TO.N,GND*%
G36*
X72678768Y-46670185D02*
G01*
X72724523Y-46722989D01*
X72734467Y-46792147D01*
X72705442Y-46855703D01*
X72680619Y-46877602D01*
X72621589Y-46917044D01*
X72621581Y-46917050D01*
X71100449Y-48438182D01*
X71039126Y-48471667D01*
X71012768Y-48474501D01*
X70324998Y-48474501D01*
X70324980Y-48474502D01*
X70222203Y-48485001D01*
X70222200Y-48485002D01*
X70055668Y-48540186D01*
X70055663Y-48540188D01*
X69906342Y-48632290D01*
X69782289Y-48756343D01*
X69690187Y-48905664D01*
X69690185Y-48905669D01*
X69679356Y-48938349D01*
X69635001Y-49072204D01*
X69635001Y-49072205D01*
X69635000Y-49072205D01*
X69624500Y-49174984D01*
X69624500Y-50025002D01*
X69624501Y-50025020D01*
X69635000Y-50127797D01*
X69635001Y-50127800D01*
X69690185Y-50294332D01*
X69690187Y-50294337D01*
X69705317Y-50318867D01*
X69782288Y-50443657D01*
X69906344Y-50567713D01*
X70055666Y-50659815D01*
X70222203Y-50715000D01*
X70324991Y-50725501D01*
X71675008Y-50725500D01*
X71777797Y-50715000D01*
X71944334Y-50659815D01*
X72093656Y-50567713D01*
X72217712Y-50443657D01*
X72265863Y-50365590D01*
X72317809Y-50318867D01*
X72386772Y-50307644D01*
X72450854Y-50335487D01*
X72487583Y-50387355D01*
X72526645Y-50492086D01*
X72526649Y-50492093D01*
X72612809Y-50607187D01*
X72612812Y-50607190D01*
X72727906Y-50693350D01*
X72727913Y-50693354D01*
X72862620Y-50743596D01*
X72862627Y-50743598D01*
X72922155Y-50749999D01*
X72922172Y-50750000D01*
X73570000Y-50750000D01*
X73570000Y-49833012D01*
X73627007Y-49865925D01*
X73754174Y-49900000D01*
X73885826Y-49900000D01*
X74012993Y-49865925D01*
X74070000Y-49833012D01*
X74070000Y-50750000D01*
X74717828Y-50750000D01*
X74717844Y-50749999D01*
X74777372Y-50743598D01*
X74777379Y-50743596D01*
X74912086Y-50693354D01*
X74912093Y-50693350D01*
X75027187Y-50607190D01*
X75027190Y-50607187D01*
X75113350Y-50492093D01*
X75113354Y-50492086D01*
X75162422Y-50360529D01*
X75204293Y-50304595D01*
X75269757Y-50280178D01*
X75338030Y-50295030D01*
X75366285Y-50316181D01*
X75480213Y-50430109D01*
X75652179Y-50555048D01*
X75652181Y-50555049D01*
X75652184Y-50555051D01*
X75841588Y-50651557D01*
X76043757Y-50717246D01*
X76253713Y-50750500D01*
X76253714Y-50750500D01*
X76466286Y-50750500D01*
X76466287Y-50750500D01*
X76676243Y-50717246D01*
X76878412Y-50651557D01*
X77067816Y-50555051D01*
X77154471Y-50492093D01*
X77239786Y-50430109D01*
X77239788Y-50430106D01*
X77239792Y-50430104D01*
X77390104Y-50279792D01*
X77390106Y-50279788D01*
X77390109Y-50279786D01*
X77515048Y-50107820D01*
X77515047Y-50107820D01*
X77515051Y-50107816D01*
X77519514Y-50099054D01*
X77567488Y-50048259D01*
X77635308Y-50031463D01*
X77701444Y-50053999D01*
X77740486Y-50099056D01*
X77744951Y-50107820D01*
X77869890Y-50279786D01*
X78020213Y-50430109D01*
X78192179Y-50555048D01*
X78192181Y-50555049D01*
X78192184Y-50555051D01*
X78381588Y-50651557D01*
X78583757Y-50717246D01*
X78793713Y-50750500D01*
X78793714Y-50750500D01*
X79006286Y-50750500D01*
X79006287Y-50750500D01*
X79216243Y-50717246D01*
X79418412Y-50651557D01*
X79607816Y-50555051D01*
X79694471Y-50492093D01*
X79779786Y-50430109D01*
X79779788Y-50430106D01*
X79779792Y-50430104D01*
X79930104Y-50279792D01*
X79930106Y-50279788D01*
X79930109Y-50279786D01*
X80055048Y-50107820D01*
X80055047Y-50107820D01*
X80055051Y-50107816D01*
X80059514Y-50099054D01*
X80107488Y-50048259D01*
X80175308Y-50031463D01*
X80241444Y-50053999D01*
X80280486Y-50099056D01*
X80284951Y-50107820D01*
X80409890Y-50279786D01*
X80560213Y-50430109D01*
X80732179Y-50555048D01*
X80732181Y-50555049D01*
X80732184Y-50555051D01*
X80921588Y-50651557D01*
X81123757Y-50717246D01*
X81333713Y-50750500D01*
X81333714Y-50750500D01*
X81546286Y-50750500D01*
X81546287Y-50750500D01*
X81756243Y-50717246D01*
X81958412Y-50651557D01*
X82147816Y-50555051D01*
X82234471Y-50492093D01*
X82319786Y-50430109D01*
X82319788Y-50430106D01*
X82319792Y-50430104D01*
X82470104Y-50279792D01*
X82470106Y-50279788D01*
X82470109Y-50279786D01*
X82595048Y-50107820D01*
X82595047Y-50107820D01*
X82595051Y-50107816D01*
X82691557Y-49918412D01*
X82757246Y-49716243D01*
X82790500Y-49506287D01*
X82790500Y-49293713D01*
X82757246Y-49083757D01*
X82691557Y-48881588D01*
X82595051Y-48692184D01*
X82595049Y-48692181D01*
X82595048Y-48692179D01*
X82470109Y-48520213D01*
X82412077Y-48462181D01*
X82401464Y-48442744D01*
X82386964Y-48426011D01*
X82385047Y-48412679D01*
X82378592Y-48400858D01*
X82380171Y-48378771D01*
X82377020Y-48356853D01*
X82382615Y-48344601D01*
X82383576Y-48331166D01*
X82396846Y-48313439D01*
X82406045Y-48293297D01*
X82417376Y-48286014D01*
X82425448Y-48275233D01*
X82446193Y-48267495D01*
X82464823Y-48255523D01*
X82486741Y-48252371D01*
X82490912Y-48250816D01*
X82499758Y-48250500D01*
X82637770Y-48250500D01*
X82704809Y-48270185D01*
X82725451Y-48286819D01*
X83713181Y-49274548D01*
X83746666Y-49335871D01*
X83749500Y-49362229D01*
X83749500Y-51337771D01*
X83729815Y-51404810D01*
X83713181Y-51425452D01*
X82575450Y-52563182D01*
X82514127Y-52596667D01*
X82487769Y-52599501D01*
X81041971Y-52599501D01*
X81041965Y-52599501D01*
X81041964Y-52599502D01*
X81030316Y-52600537D01*
X80922584Y-52610114D01*
X80726954Y-52666090D01*
X80691408Y-52684658D01*
X80546593Y-52760303D01*
X80546591Y-52760304D01*
X80546590Y-52760305D01*
X80388890Y-52888891D01*
X80266378Y-53039142D01*
X80260302Y-53046594D01*
X80247248Y-53071585D01*
X80166089Y-53226955D01*
X80133846Y-53339642D01*
X80114916Y-53405803D01*
X80110114Y-53422584D01*
X80110113Y-53422587D01*
X80099500Y-53541967D01*
X80099500Y-54658029D01*
X80099501Y-54658035D01*
X80110113Y-54777416D01*
X80166089Y-54973046D01*
X80166090Y-54973049D01*
X80166091Y-54973050D01*
X80260302Y-55153408D01*
X80260304Y-55153410D01*
X80388890Y-55311110D01*
X80482803Y-55387685D01*
X80546593Y-55439699D01*
X80726951Y-55533910D01*
X80922582Y-55589887D01*
X81041963Y-55600501D01*
X81625500Y-55600500D01*
X81692539Y-55620184D01*
X81738294Y-55672988D01*
X81749500Y-55724500D01*
X81749500Y-58907056D01*
X81729815Y-58974095D01*
X81680595Y-59018144D01*
X81650704Y-59032968D01*
X81542432Y-59120000D01*
X81502278Y-59152277D01*
X81485385Y-59173293D01*
X81446646Y-59221486D01*
X81389302Y-59261404D01*
X81319480Y-59263984D01*
X81259347Y-59228405D01*
X81253352Y-59221485D01*
X81197722Y-59152278D01*
X81197721Y-59152277D01*
X81049295Y-59032969D01*
X81049292Y-59032967D01*
X80878697Y-58948360D01*
X80693892Y-58902400D01*
X80672506Y-58900950D01*
X80651123Y-58899500D01*
X80651120Y-58899500D01*
X79748877Y-58899500D01*
X79748874Y-58899501D01*
X79706113Y-58902399D01*
X79706103Y-58902401D01*
X79650431Y-58916245D01*
X79580623Y-58913320D01*
X79532827Y-58883591D01*
X79011818Y-58362582D01*
X78978333Y-58301259D01*
X78975499Y-58274901D01*
X78975499Y-57674999D01*
X78975498Y-57674982D01*
X78964999Y-57572204D01*
X78964998Y-57572201D01*
X78948408Y-57522135D01*
X78909814Y-57405667D01*
X78817712Y-57256345D01*
X78693656Y-57132289D01*
X78544334Y-57040187D01*
X78377797Y-56985002D01*
X78377795Y-56985001D01*
X78275010Y-56974501D01*
X76924998Y-56974501D01*
X76924981Y-56974502D01*
X76822203Y-56985001D01*
X76822200Y-56985002D01*
X76688003Y-57029471D01*
X76618174Y-57031873D01*
X76558133Y-56996141D01*
X76526940Y-56933620D01*
X76524999Y-56911765D01*
X76524999Y-56765027D01*
X76524998Y-56765012D01*
X76514505Y-56662301D01*
X76459358Y-56495879D01*
X76459356Y-56495874D01*
X76367315Y-56346653D01*
X76243345Y-56222683D01*
X76094124Y-56130642D01*
X76094119Y-56130640D01*
X75927697Y-56075493D01*
X75927690Y-56075492D01*
X75824986Y-56064999D01*
X75712500Y-56064999D01*
X75712500Y-58814998D01*
X75824972Y-58814998D01*
X75824986Y-58814997D01*
X75927697Y-58804504D01*
X76094119Y-58749357D01*
X76094129Y-58749352D01*
X76111506Y-58738634D01*
X76178897Y-58720191D01*
X76245562Y-58741111D01*
X76286084Y-58788379D01*
X76286395Y-58788188D01*
X76287613Y-58790162D01*
X76288990Y-58791769D01*
X76290184Y-58794331D01*
X76290186Y-58794335D01*
X76382288Y-58943657D01*
X76506344Y-59067713D01*
X76655666Y-59159815D01*
X76822203Y-59215000D01*
X76924991Y-59225501D01*
X78124902Y-59225500D01*
X78191941Y-59245185D01*
X78212583Y-59261819D01*
X78543211Y-59592447D01*
X78576696Y-59653770D01*
X78571712Y-59723462D01*
X78529840Y-59779395D01*
X78464376Y-59803812D01*
X78416528Y-59797834D01*
X78377797Y-59785000D01*
X78377795Y-59784999D01*
X78275010Y-59774499D01*
X76924998Y-59774499D01*
X76924981Y-59774500D01*
X76822203Y-59784999D01*
X76822200Y-59785000D01*
X76655668Y-59840184D01*
X76655656Y-59840190D01*
X76634221Y-59853411D01*
X76566828Y-59871850D01*
X76500165Y-59850926D01*
X76465563Y-59810535D01*
X76463149Y-59812025D01*
X76367315Y-59656654D01*
X76243345Y-59532684D01*
X76094124Y-59440643D01*
X76094119Y-59440641D01*
X75927697Y-59385494D01*
X75927690Y-59385493D01*
X75824986Y-59375000D01*
X75712500Y-59375000D01*
X75712500Y-60626000D01*
X75692815Y-60693039D01*
X75640011Y-60738794D01*
X75588500Y-60750000D01*
X75462500Y-60750000D01*
X75462500Y-60876000D01*
X75442815Y-60943039D01*
X75390011Y-60988794D01*
X75338500Y-61000000D01*
X74400001Y-61000000D01*
X74400001Y-61424986D01*
X74410494Y-61527697D01*
X74465641Y-61694119D01*
X74465643Y-61694124D01*
X74557684Y-61843345D01*
X74681654Y-61967315D01*
X74807536Y-62044960D01*
X74854260Y-62096908D01*
X74865483Y-62165871D01*
X74837639Y-62229953D01*
X74779570Y-62268809D01*
X74742439Y-62274499D01*
X74336868Y-62274499D01*
X74269829Y-62254814D01*
X74248653Y-62235615D01*
X74247819Y-62236450D01*
X74118657Y-62107288D01*
X74118656Y-62107287D01*
X73985406Y-62025098D01*
X73969336Y-62015186D01*
X73969331Y-62015184D01*
X73947029Y-62007794D01*
X73802797Y-61960000D01*
X73802795Y-61959999D01*
X73700016Y-61949499D01*
X73700009Y-61949499D01*
X73599602Y-61949499D01*
X73532563Y-61929814D01*
X73486808Y-61877010D01*
X73476864Y-61807852D01*
X73494063Y-61760403D01*
X73530808Y-61700828D01*
X73534814Y-61694334D01*
X73589999Y-61527797D01*
X73600500Y-61425009D01*
X73600499Y-60075013D01*
X74400000Y-60075013D01*
X74400000Y-60500000D01*
X75212500Y-60500000D01*
X75212500Y-59375000D01*
X75100027Y-59375000D01*
X75100012Y-59375001D01*
X74997302Y-59385494D01*
X74830880Y-59440641D01*
X74830875Y-59440643D01*
X74681654Y-59532684D01*
X74557684Y-59656654D01*
X74465643Y-59805875D01*
X74465641Y-59805880D01*
X74410494Y-59972302D01*
X74410493Y-59972309D01*
X74400000Y-60075013D01*
X73600499Y-60075013D01*
X73600499Y-60074992D01*
X73589999Y-59972203D01*
X73534814Y-59805666D01*
X73442712Y-59656344D01*
X73318656Y-59532288D01*
X73225888Y-59475069D01*
X73169336Y-59440187D01*
X73169331Y-59440185D01*
X73129562Y-59427007D01*
X73002797Y-59385001D01*
X73002795Y-59385000D01*
X72900010Y-59374500D01*
X72174998Y-59374500D01*
X72174980Y-59374501D01*
X72072203Y-59385000D01*
X72072200Y-59385001D01*
X71905668Y-59440185D01*
X71905663Y-59440187D01*
X71756342Y-59532289D01*
X71717181Y-59571451D01*
X71655858Y-59604936D01*
X71586166Y-59599952D01*
X71530233Y-59558080D01*
X71505816Y-59492616D01*
X71505500Y-59483770D01*
X71505500Y-59327286D01*
X71505500Y-59327280D01*
X71490687Y-59214764D01*
X71490686Y-59214761D01*
X71489914Y-59208897D01*
X71489854Y-59208768D01*
X71489866Y-59208534D01*
X71489626Y-59206705D01*
X71489970Y-59206659D01*
X71490752Y-59192477D01*
X71489531Y-59173475D01*
X71490615Y-59165405D01*
X71490686Y-59165236D01*
X71492913Y-59148315D01*
X71492959Y-59147978D01*
X71507097Y-59116254D01*
X71521182Y-59084417D01*
X71521329Y-59084319D01*
X71521401Y-59084159D01*
X71550341Y-59065183D01*
X71579507Y-59045947D01*
X71579733Y-59045913D01*
X71579831Y-59045849D01*
X71580182Y-59045845D01*
X71608501Y-59041602D01*
X71608496Y-59041562D01*
X71610773Y-59041262D01*
X71615853Y-59040501D01*
X71616553Y-59040501D01*
X71616556Y-59040501D01*
X71769284Y-58999577D01*
X71819403Y-58970639D01*
X71906215Y-58920520D01*
X71990246Y-58836488D01*
X71996371Y-58831732D01*
X72021949Y-58821671D01*
X72046070Y-58808500D01*
X72057001Y-58807885D01*
X72061392Y-58806158D01*
X72067189Y-58807311D01*
X72085028Y-58806308D01*
X72174991Y-58815499D01*
X72175015Y-58815498D01*
X72176287Y-58815564D01*
X72176635Y-58815667D01*
X72178133Y-58815820D01*
X72178104Y-58816100D01*
X72232002Y-58832017D01*
X72305716Y-58874576D01*
X72458443Y-58915499D01*
X72458445Y-58915499D01*
X72616555Y-58915499D01*
X72616557Y-58915499D01*
X72769284Y-58874576D01*
X72843000Y-58832015D01*
X72896896Y-58816098D01*
X72896868Y-58815819D01*
X72898360Y-58815666D01*
X72898711Y-58815563D01*
X72899989Y-58815498D01*
X72900008Y-58815498D01*
X73002797Y-58804998D01*
X73169334Y-58749813D01*
X73318656Y-58657711D01*
X73442712Y-58533655D01*
X73534814Y-58384333D01*
X73589999Y-58217796D01*
X73600500Y-58115008D01*
X73600500Y-58114985D01*
X74400001Y-58114985D01*
X74410494Y-58217696D01*
X74465641Y-58384118D01*
X74465643Y-58384123D01*
X74557684Y-58533344D01*
X74681654Y-58657314D01*
X74830875Y-58749355D01*
X74830880Y-58749357D01*
X74997302Y-58804504D01*
X74997309Y-58804505D01*
X75100019Y-58814998D01*
X75212499Y-58814998D01*
X75212500Y-58814997D01*
X75212500Y-57689999D01*
X74400001Y-57689999D01*
X74400001Y-58114985D01*
X73600500Y-58114985D01*
X73600499Y-57405669D01*
X73600499Y-56765012D01*
X74400000Y-56765012D01*
X74400000Y-57189999D01*
X75212500Y-57189999D01*
X75212500Y-56064999D01*
X75100027Y-56064999D01*
X75100012Y-56065000D01*
X74997302Y-56075493D01*
X74830880Y-56130640D01*
X74830875Y-56130642D01*
X74681654Y-56222683D01*
X74557684Y-56346653D01*
X74465643Y-56495874D01*
X74465641Y-56495879D01*
X74410494Y-56662301D01*
X74410493Y-56662308D01*
X74400000Y-56765012D01*
X73600499Y-56765012D01*
X73600499Y-56764997D01*
X73600498Y-56764980D01*
X73589999Y-56662202D01*
X73589998Y-56662199D01*
X73587064Y-56653344D01*
X73534814Y-56495665D01*
X73442712Y-56346343D01*
X73318656Y-56222287D01*
X73169334Y-56130185D01*
X73002797Y-56075000D01*
X73002795Y-56074999D01*
X72900016Y-56064499D01*
X72224500Y-56064499D01*
X72157461Y-56044814D01*
X72111706Y-55992010D01*
X72100500Y-55940499D01*
X72100500Y-53412229D01*
X72120185Y-53345190D01*
X72136819Y-53324548D01*
X72217712Y-53243655D01*
X72309814Y-53094333D01*
X72364999Y-52927796D01*
X72375500Y-52825008D01*
X72375499Y-51974991D01*
X72364999Y-51872202D01*
X72309814Y-51705665D01*
X72217712Y-51556343D01*
X72093656Y-51432287D01*
X71944334Y-51340185D01*
X71777797Y-51285000D01*
X71777795Y-51284999D01*
X71675010Y-51274499D01*
X70324998Y-51274499D01*
X70324981Y-51274500D01*
X70222203Y-51284999D01*
X70222200Y-51285000D01*
X70055668Y-51340184D01*
X70055663Y-51340186D01*
X69906342Y-51432288D01*
X69782289Y-51556341D01*
X69690187Y-51705662D01*
X69690186Y-51705665D01*
X69635001Y-51872202D01*
X69635001Y-51872203D01*
X69635000Y-51872203D01*
X69624500Y-51974982D01*
X69624500Y-52825000D01*
X69624501Y-52825018D01*
X69635000Y-52927795D01*
X69635001Y-52927798D01*
X69651577Y-52977819D01*
X69690186Y-53094333D01*
X69771987Y-53226955D01*
X69782289Y-53243656D01*
X69816952Y-53278319D01*
X69850437Y-53339642D01*
X69845453Y-53409334D01*
X69803581Y-53465267D01*
X69738117Y-53489684D01*
X69729271Y-53490000D01*
X69055028Y-53490000D01*
X69055012Y-53490001D01*
X68952302Y-53500494D01*
X68785880Y-53555641D01*
X68785875Y-53555643D01*
X68722986Y-53594434D01*
X69944095Y-54815543D01*
X69977580Y-54876866D01*
X69972596Y-54946558D01*
X69944095Y-54990905D01*
X69855000Y-55080000D01*
X69944094Y-55169094D01*
X69977579Y-55230417D01*
X69972595Y-55300109D01*
X69944094Y-55344456D01*
X68722986Y-56565563D01*
X68722986Y-56565565D01*
X68785873Y-56604355D01*
X68785881Y-56604359D01*
X68933710Y-56653344D01*
X68991155Y-56693116D01*
X69017979Y-56757632D01*
X69005664Y-56826408D01*
X68982389Y-56858731D01*
X68894485Y-56946635D01*
X68818719Y-57077863D01*
X68804136Y-57132289D01*
X68779500Y-57224234D01*
X68779500Y-57375766D01*
X68799109Y-57448950D01*
X68818719Y-57522136D01*
X68829986Y-57541650D01*
X68894485Y-57653365D01*
X69001635Y-57760515D01*
X69132865Y-57836281D01*
X69262596Y-57871041D01*
X69322253Y-57907404D01*
X69352444Y-57968329D01*
X69354500Y-57979478D01*
X69354500Y-58005694D01*
X69357402Y-58042569D01*
X69381305Y-58124845D01*
X69382435Y-58130970D01*
X69379450Y-58159773D01*
X69379368Y-58188730D01*
X69375244Y-58200368D01*
X69375234Y-58200467D01*
X69375189Y-58200522D01*
X69375056Y-58200896D01*
X69370446Y-58212026D01*
X69369312Y-58214766D01*
X69354500Y-58327272D01*
X69354500Y-58552727D01*
X69370374Y-58673293D01*
X69367353Y-58673690D01*
X69367356Y-58706309D01*
X69370373Y-58706707D01*
X69354499Y-58827272D01*
X69354499Y-59052727D01*
X69370373Y-59173293D01*
X69367347Y-59173691D01*
X69367361Y-59206310D01*
X69370374Y-59206707D01*
X69369313Y-59214763D01*
X69369313Y-59214764D01*
X69367517Y-59228405D01*
X69354500Y-59327272D01*
X69354500Y-59552727D01*
X69359730Y-59592447D01*
X69368142Y-59656344D01*
X69370374Y-59673292D01*
X69367399Y-59673683D01*
X69367399Y-59706316D01*
X69370374Y-59706708D01*
X69354500Y-59827272D01*
X69354500Y-60052727D01*
X69370374Y-60173292D01*
X69367399Y-60173683D01*
X69367399Y-60206316D01*
X69370374Y-60206708D01*
X69354500Y-60327272D01*
X69354500Y-60552727D01*
X69364147Y-60626000D01*
X69367321Y-60650109D01*
X69370374Y-60673292D01*
X69367399Y-60673683D01*
X69367399Y-60706316D01*
X69370374Y-60706708D01*
X69354500Y-60827272D01*
X69354500Y-61052727D01*
X69370374Y-61173293D01*
X69367353Y-61173690D01*
X69367356Y-61206309D01*
X69370373Y-61206707D01*
X69354499Y-61327272D01*
X69354499Y-61552727D01*
X69370373Y-61673293D01*
X69367347Y-61673691D01*
X69367361Y-61706310D01*
X69370374Y-61706707D01*
X69354500Y-61827272D01*
X69354500Y-62052727D01*
X69366169Y-62141355D01*
X69369313Y-62165236D01*
X69372958Y-62174036D01*
X69375053Y-62179094D01*
X69376982Y-62197050D01*
X69383830Y-62213762D01*
X69381528Y-62239343D01*
X69382519Y-62248564D01*
X69382434Y-62249029D01*
X69381302Y-62255163D01*
X69357402Y-62337431D01*
X69354500Y-62374306D01*
X69354500Y-62400519D01*
X69352444Y-62411670D01*
X69341592Y-62433141D01*
X69334815Y-62456223D01*
X69326119Y-62463757D01*
X69320929Y-62474028D01*
X69300190Y-62486224D01*
X69282011Y-62501978D01*
X69262593Y-62508959D01*
X69132863Y-62543719D01*
X69001635Y-62619485D01*
X69001632Y-62619487D01*
X68894487Y-62726632D01*
X68894485Y-62726635D01*
X68818719Y-62857863D01*
X68779500Y-63004234D01*
X68779500Y-63155765D01*
X68818719Y-63302136D01*
X68851294Y-63358556D01*
X68894485Y-63433365D01*
X68894487Y-63433367D01*
X68982387Y-63521267D01*
X69015872Y-63582590D01*
X69010888Y-63652282D01*
X68969016Y-63708215D01*
X68933711Y-63726654D01*
X68785878Y-63775642D01*
X68785875Y-63775643D01*
X68722986Y-63814434D01*
X70031776Y-65123224D01*
X71308849Y-66400298D01*
X71344505Y-66292697D01*
X71344506Y-66292689D01*
X71352642Y-66213053D01*
X71379038Y-66148362D01*
X71436218Y-66108210D01*
X71506029Y-66105346D01*
X71566306Y-66140680D01*
X71597911Y-66202992D01*
X71600000Y-66225654D01*
X71600000Y-66349971D01*
X71600001Y-66349988D01*
X71610494Y-66452698D01*
X71665641Y-66619120D01*
X71665643Y-66619125D01*
X71757684Y-66768346D01*
X71881654Y-66892316D01*
X72030875Y-66984357D01*
X72030880Y-66984359D01*
X72197302Y-67039506D01*
X72197309Y-67039507D01*
X72300019Y-67050000D01*
X72749999Y-67050000D01*
X73250000Y-67050000D01*
X73699972Y-67050000D01*
X73699986Y-67049999D01*
X73802697Y-67039506D01*
X73969119Y-66984359D01*
X73969124Y-66984357D01*
X74118345Y-66892316D01*
X74242315Y-66768346D01*
X74334356Y-66619125D01*
X74334358Y-66619120D01*
X74389505Y-66452698D01*
X74389506Y-66452691D01*
X74399999Y-66349987D01*
X74400000Y-66349974D01*
X74400000Y-66225001D01*
X73250000Y-66225001D01*
X73250000Y-67050000D01*
X72749999Y-67050000D01*
X72750000Y-67049999D01*
X72750000Y-65725001D01*
X73250000Y-65725001D01*
X74399999Y-65725001D01*
X74399999Y-65600029D01*
X74399998Y-65600014D01*
X74389505Y-65497303D01*
X74334358Y-65330881D01*
X74334356Y-65330876D01*
X74242315Y-65181655D01*
X74118345Y-65057685D01*
X73969124Y-64965644D01*
X73969119Y-64965642D01*
X73802697Y-64910495D01*
X73802690Y-64910494D01*
X73699986Y-64900001D01*
X73250000Y-64900001D01*
X73250000Y-65725001D01*
X72750000Y-65725001D01*
X72750000Y-64900001D01*
X72300028Y-64900001D01*
X72300012Y-64900002D01*
X72197302Y-64910495D01*
X72030880Y-64965642D01*
X72030875Y-64965644D01*
X71881654Y-65057685D01*
X71757684Y-65181655D01*
X71665643Y-65330876D01*
X71665641Y-65330881D01*
X71610494Y-65497303D01*
X71610493Y-65497310D01*
X71602357Y-65576945D01*
X71575960Y-65641636D01*
X71518779Y-65681787D01*
X71448968Y-65684649D01*
X71388692Y-65649315D01*
X71357087Y-65587002D01*
X71354999Y-65564341D01*
X71354999Y-64410027D01*
X71354998Y-64410014D01*
X71347117Y-64332881D01*
X71347117Y-64332880D01*
X71270904Y-64409094D01*
X71209581Y-64442579D01*
X71139889Y-64437595D01*
X71095542Y-64409094D01*
X70430000Y-63743552D01*
X69764457Y-64409095D01*
X69703134Y-64442580D01*
X69633442Y-64437596D01*
X69589095Y-64409095D01*
X69410905Y-64230905D01*
X69377420Y-64169582D01*
X69382404Y-64099890D01*
X69410905Y-64055543D01*
X70039629Y-63426819D01*
X70100952Y-63393334D01*
X70127310Y-63390500D01*
X70732690Y-63390500D01*
X70799729Y-63410185D01*
X70820371Y-63426819D01*
X71353895Y-63960343D01*
X71372678Y-63941561D01*
X71372683Y-63941554D01*
X71456282Y-63800196D01*
X71471072Y-63749288D01*
X71508678Y-63690402D01*
X71572150Y-63661194D01*
X71641336Y-63670939D01*
X71694272Y-63716542D01*
X71695688Y-63718785D01*
X71730757Y-63775642D01*
X71757288Y-63818655D01*
X71881344Y-63942711D01*
X72030666Y-64034813D01*
X72197203Y-64089998D01*
X72299991Y-64100499D01*
X73700008Y-64100498D01*
X73802797Y-64089998D01*
X73911498Y-64053977D01*
X73981324Y-64051576D01*
X74041366Y-64087307D01*
X74072559Y-64149827D01*
X74074500Y-64171684D01*
X74074500Y-64215701D01*
X74077401Y-64252567D01*
X74077402Y-64252573D01*
X74123254Y-64410393D01*
X74123255Y-64410396D01*
X74123256Y-64410398D01*
X74157983Y-64469119D01*
X74206917Y-64551862D01*
X74206923Y-64551870D01*
X74323129Y-64668076D01*
X74323133Y-64668079D01*
X74323135Y-64668081D01*
X74464602Y-64751744D01*
X74513072Y-64765826D01*
X74622595Y-64797646D01*
X74681481Y-64835252D01*
X74710687Y-64898725D01*
X74712000Y-64916722D01*
X74712000Y-67533277D01*
X74692315Y-67600316D01*
X74639511Y-67646071D01*
X74622596Y-67652353D01*
X74464604Y-67698254D01*
X74464603Y-67698255D01*
X74323137Y-67781917D01*
X74323129Y-67781923D01*
X74206923Y-67898129D01*
X74206917Y-67898137D01*
X74123255Y-68039603D01*
X74123254Y-68039606D01*
X74077402Y-68197426D01*
X74077401Y-68197432D01*
X74074500Y-68234298D01*
X74074500Y-68665701D01*
X74077401Y-68702567D01*
X74077402Y-68702573D01*
X74123254Y-68860393D01*
X74123255Y-68860396D01*
X74123256Y-68860398D01*
X74146802Y-68900213D01*
X74206917Y-69001862D01*
X74206923Y-69001870D01*
X74323129Y-69118076D01*
X74323133Y-69118079D01*
X74323135Y-69118081D01*
X74464602Y-69201744D01*
X74506224Y-69213836D01*
X74622426Y-69247597D01*
X74622429Y-69247597D01*
X74622431Y-69247598D01*
X74659306Y-69250500D01*
X75825500Y-69250500D01*
X75892539Y-69270185D01*
X75938294Y-69322989D01*
X75949500Y-69374500D01*
X75949500Y-69615701D01*
X75952401Y-69652567D01*
X75952402Y-69652573D01*
X75998254Y-69810393D01*
X75998255Y-69810396D01*
X76081917Y-69951862D01*
X76081923Y-69951870D01*
X76198129Y-70068076D01*
X76198133Y-70068079D01*
X76198135Y-70068081D01*
X76339602Y-70151744D01*
X76389314Y-70166187D01*
X76497595Y-70197646D01*
X76556481Y-70235252D01*
X76585687Y-70298725D01*
X76587000Y-70316722D01*
X76587000Y-70625501D01*
X76567315Y-70692540D01*
X76514511Y-70738295D01*
X76463000Y-70749501D01*
X76284298Y-70749501D01*
X76247432Y-70752402D01*
X76247426Y-70752403D01*
X76089606Y-70798255D01*
X76089603Y-70798256D01*
X75948137Y-70881918D01*
X75948129Y-70881924D01*
X75916874Y-70913181D01*
X75855552Y-70946667D01*
X75829192Y-70949501D01*
X74222038Y-70949501D01*
X74154999Y-70929816D01*
X74109244Y-70877012D01*
X74098680Y-70812896D01*
X74099999Y-70799981D01*
X74100000Y-70799973D01*
X74100000Y-70750000D01*
X69600001Y-70750000D01*
X69600001Y-70799986D01*
X69610494Y-70902697D01*
X69665641Y-71069119D01*
X69665643Y-71069124D01*
X69757684Y-71218345D01*
X69881654Y-71342315D01*
X69965719Y-71394167D01*
X70012443Y-71446115D01*
X70023666Y-71515078D01*
X69995822Y-71579160D01*
X69965719Y-71605244D01*
X69881347Y-71657285D01*
X69881343Y-71657288D01*
X69757289Y-71781342D01*
X69665187Y-71930663D01*
X69665186Y-71930666D01*
X69610001Y-72097203D01*
X69610001Y-72097204D01*
X69610000Y-72097204D01*
X69599500Y-72199983D01*
X69599500Y-72800001D01*
X69599501Y-72800019D01*
X69610000Y-72902796D01*
X69610001Y-72902799D01*
X69653931Y-73035369D01*
X69665186Y-73069334D01*
X69757288Y-73218656D01*
X69881344Y-73342712D01*
X70030666Y-73434814D01*
X70197203Y-73489999D01*
X70299991Y-73500500D01*
X73400008Y-73500499D01*
X73502797Y-73489999D01*
X73669334Y-73434814D01*
X73818656Y-73342712D01*
X73942712Y-73218656D01*
X74034814Y-73069334D01*
X74089999Y-72902797D01*
X74100500Y-72800009D01*
X74100499Y-72274500D01*
X74120183Y-72207462D01*
X74172987Y-72161707D01*
X74224499Y-72150501D01*
X75576393Y-72150501D01*
X75643432Y-72170186D01*
X75689187Y-72222990D01*
X75691894Y-72238304D01*
X75702705Y-72250000D01*
X75968184Y-72250000D01*
X76031303Y-72267267D01*
X76089602Y-72301745D01*
X76131224Y-72313837D01*
X76247426Y-72347598D01*
X76247429Y-72347598D01*
X76247431Y-72347599D01*
X76284306Y-72350501D01*
X76284314Y-72350501D01*
X76738500Y-72350501D01*
X76747185Y-72353051D01*
X76756147Y-72351763D01*
X76780187Y-72362741D01*
X76805539Y-72370186D01*
X76811466Y-72377026D01*
X76819703Y-72380788D01*
X76833992Y-72403022D01*
X76851294Y-72422990D01*
X76853581Y-72433504D01*
X76857477Y-72439566D01*
X76862500Y-72474501D01*
X76862500Y-72525499D01*
X76842815Y-72592538D01*
X76790011Y-72638293D01*
X76738500Y-72649499D01*
X76284298Y-72649499D01*
X76247432Y-72652400D01*
X76247426Y-72652401D01*
X76089606Y-72698253D01*
X76089603Y-72698254D01*
X76061871Y-72714655D01*
X76031303Y-72732732D01*
X75968184Y-72750000D01*
X75702705Y-72750000D01*
X75702704Y-72750001D01*
X75702899Y-72752486D01*
X75748719Y-72910200D01*
X75748719Y-72910201D01*
X75749423Y-72911391D01*
X75749690Y-72912444D01*
X75751815Y-72917354D01*
X75751022Y-72917696D01*
X75766603Y-72979116D01*
X75750993Y-73032283D01*
X75751355Y-73032440D01*
X75750087Y-73035369D01*
X75749427Y-73037619D01*
X75748259Y-73039593D01*
X75748254Y-73039606D01*
X75702402Y-73197425D01*
X75702401Y-73197431D01*
X75699500Y-73234297D01*
X75699500Y-73665700D01*
X75702401Y-73702566D01*
X75702402Y-73702572D01*
X75748254Y-73860392D01*
X75748255Y-73860395D01*
X75831917Y-74001861D01*
X75831923Y-74001869D01*
X75948129Y-74118075D01*
X75948133Y-74118078D01*
X75948135Y-74118080D01*
X76089602Y-74201743D01*
X76104248Y-74205998D01*
X76172594Y-74225855D01*
X76231480Y-74263461D01*
X76260686Y-74326933D01*
X76261999Y-74344931D01*
X76261999Y-74441554D01*
X76261998Y-74441554D01*
X76302923Y-74594285D01*
X76322272Y-74627798D01*
X76322271Y-74627798D01*
X76322272Y-74627799D01*
X76381975Y-74731209D01*
X76381981Y-74731217D01*
X76500849Y-74850085D01*
X76500855Y-74850090D01*
X78302639Y-76651874D01*
X78302649Y-76651885D01*
X78306979Y-76656215D01*
X78306980Y-76656216D01*
X78418784Y-76768020D01*
X78503706Y-76817049D01*
X78555715Y-76847077D01*
X78623577Y-76865260D01*
X78630981Y-76868311D01*
X78652228Y-76885369D01*
X78675494Y-76899550D01*
X78684049Y-76910915D01*
X78685465Y-76912052D01*
X78685913Y-76913392D01*
X78689279Y-76917863D01*
X78690185Y-76919332D01*
X78690186Y-76919334D01*
X78782288Y-77068656D01*
X78906344Y-77192712D01*
X79055666Y-77284814D01*
X79222203Y-77339999D01*
X79324991Y-77350500D01*
X80675008Y-77350499D01*
X80777797Y-77339999D01*
X80944334Y-77284814D01*
X81093656Y-77192712D01*
X81162822Y-77123545D01*
X81224141Y-77090063D01*
X81293833Y-77095047D01*
X81349767Y-77136918D01*
X81374184Y-77202382D01*
X81374500Y-77211228D01*
X81374500Y-77324999D01*
X81374501Y-77325018D01*
X81385000Y-77427795D01*
X81385001Y-77427798D01*
X81429299Y-77561478D01*
X81440186Y-77594333D01*
X81515380Y-77716243D01*
X81532289Y-77743656D01*
X81632017Y-77843384D01*
X81665502Y-77904707D01*
X81660518Y-77974399D01*
X81632017Y-78018746D01*
X81306247Y-78344516D01*
X81244924Y-78378001D01*
X81175232Y-78373017D01*
X81130886Y-78344517D01*
X81093657Y-78307289D01*
X81093656Y-78307288D01*
X80944334Y-78215186D01*
X80777797Y-78160001D01*
X80777795Y-78160000D01*
X80675010Y-78149500D01*
X79324998Y-78149500D01*
X79324981Y-78149501D01*
X79222203Y-78160000D01*
X79222200Y-78160001D01*
X79055668Y-78215185D01*
X79055663Y-78215187D01*
X78906342Y-78307289D01*
X78782289Y-78431342D01*
X78730039Y-78516054D01*
X78678091Y-78562778D01*
X78609128Y-78574001D01*
X78545046Y-78546157D01*
X78506190Y-78488089D01*
X78500500Y-78450957D01*
X78500500Y-78381902D01*
X78463553Y-78148631D01*
X78390566Y-77924003D01*
X78298674Y-77743656D01*
X78283343Y-77713567D01*
X78144517Y-77522490D01*
X77977510Y-77355483D01*
X77786433Y-77216657D01*
X77758417Y-77202382D01*
X77575996Y-77109433D01*
X77351368Y-77036446D01*
X77118097Y-76999500D01*
X77118092Y-76999500D01*
X76881908Y-76999500D01*
X76881903Y-76999500D01*
X76648631Y-77036446D01*
X76424003Y-77109433D01*
X76213566Y-77216657D01*
X76134641Y-77274000D01*
X76022490Y-77355483D01*
X76022488Y-77355485D01*
X76022487Y-77355485D01*
X75855485Y-77522487D01*
X75855485Y-77522488D01*
X75855483Y-77522490D01*
X75804259Y-77592993D01*
X75716657Y-77713566D01*
X75609433Y-77924003D01*
X75536446Y-78148631D01*
X75499500Y-78381902D01*
X75499500Y-78618097D01*
X75536446Y-78851368D01*
X75609433Y-79075996D01*
X75693480Y-79240946D01*
X75716657Y-79286433D01*
X75855483Y-79477510D01*
X76022490Y-79644517D01*
X76213567Y-79783343D01*
X76312424Y-79833713D01*
X76424003Y-79890566D01*
X76424005Y-79890566D01*
X76424008Y-79890568D01*
X76544412Y-79929689D01*
X76648631Y-79963553D01*
X76881903Y-80000500D01*
X76881908Y-80000500D01*
X77118097Y-80000500D01*
X77351368Y-79963553D01*
X77352870Y-79963065D01*
X77575992Y-79890568D01*
X77786433Y-79783343D01*
X77977510Y-79644517D01*
X78144517Y-79477510D01*
X78283343Y-79286433D01*
X78390016Y-79077074D01*
X78437989Y-79026280D01*
X78505810Y-79009485D01*
X78571945Y-79032022D01*
X78615397Y-79086737D01*
X78624500Y-79133371D01*
X78624500Y-79575001D01*
X78624501Y-79575019D01*
X78635000Y-79677796D01*
X78635001Y-79677799D01*
X78690185Y-79844331D01*
X78690186Y-79844334D01*
X78782288Y-79993656D01*
X78906344Y-80117712D01*
X79055666Y-80209814D01*
X79222203Y-80264999D01*
X79324991Y-80275500D01*
X80613770Y-80275499D01*
X80680809Y-80295184D01*
X80726564Y-80347987D01*
X80736508Y-80417146D01*
X80707483Y-80480702D01*
X80701451Y-80487180D01*
X79225451Y-81963181D01*
X79164128Y-81996666D01*
X79137770Y-81999500D01*
X71676076Y-81999500D01*
X71647242Y-82005234D01*
X71647243Y-82005235D01*
X71531093Y-82028339D01*
X71531083Y-82028342D01*
X71451081Y-82061479D01*
X71451082Y-82061480D01*
X71394505Y-82084915D01*
X71312372Y-82139795D01*
X71271585Y-82167047D01*
X71271581Y-82167050D01*
X69939912Y-83498719D01*
X69878589Y-83532204D01*
X69832833Y-83533511D01*
X69618097Y-83499500D01*
X69618092Y-83499500D01*
X69381908Y-83499500D01*
X69381903Y-83499500D01*
X69148631Y-83536446D01*
X68924003Y-83609433D01*
X68713566Y-83716657D01*
X68630044Y-83777340D01*
X68522490Y-83855483D01*
X68522488Y-83855485D01*
X68522487Y-83855485D01*
X68355485Y-84022487D01*
X68355485Y-84022488D01*
X68355483Y-84022490D01*
X68295862Y-84104550D01*
X68216657Y-84213566D01*
X68109433Y-84424003D01*
X68036446Y-84648631D01*
X67999500Y-84881902D01*
X67999500Y-85118097D01*
X68036446Y-85351368D01*
X68109433Y-85575996D01*
X68202015Y-85757696D01*
X68216657Y-85786433D01*
X68355483Y-85977510D01*
X68522490Y-86144517D01*
X68713567Y-86283343D01*
X68762829Y-86308443D01*
X68924003Y-86390566D01*
X68924005Y-86390566D01*
X68924008Y-86390568D01*
X69005505Y-86417048D01*
X69148631Y-86463553D01*
X69381903Y-86500500D01*
X69381908Y-86500500D01*
X69618097Y-86500500D01*
X69851368Y-86463553D01*
X69852867Y-86463066D01*
X70075992Y-86390568D01*
X70286433Y-86283343D01*
X70477510Y-86144517D01*
X70644517Y-85977510D01*
X70783343Y-85786433D01*
X70889796Y-85577506D01*
X70937769Y-85526712D01*
X71005590Y-85509917D01*
X71071725Y-85532454D01*
X71110765Y-85577508D01*
X71217087Y-85786175D01*
X71277338Y-85869105D01*
X71277340Y-85869106D01*
X71976212Y-85170234D01*
X71987482Y-85212293D01*
X72059890Y-85337709D01*
X72162292Y-85440111D01*
X72287708Y-85512519D01*
X72329766Y-85523788D01*
X71640372Y-86213181D01*
X71579049Y-86246666D01*
X71552691Y-86249500D01*
X71526080Y-86249500D01*
X71381092Y-86278340D01*
X71381086Y-86278342D01*
X71244508Y-86334914D01*
X71244496Y-86334921D01*
X71195269Y-86367813D01*
X71121588Y-86417044D01*
X71121580Y-86417050D01*
X69989911Y-87548719D01*
X69928588Y-87582204D01*
X69882832Y-87583511D01*
X69668097Y-87549500D01*
X69668092Y-87549500D01*
X69431908Y-87549500D01*
X69431903Y-87549500D01*
X69198631Y-87586446D01*
X68974003Y-87659433D01*
X68763566Y-87766657D01*
X68680044Y-87827340D01*
X68572490Y-87905483D01*
X68572488Y-87905485D01*
X68572487Y-87905485D01*
X68405485Y-88072487D01*
X68405485Y-88072488D01*
X68405483Y-88072490D01*
X68401179Y-88078414D01*
X68266657Y-88263566D01*
X68159433Y-88474003D01*
X68086446Y-88698631D01*
X68049500Y-88931902D01*
X68049500Y-89168097D01*
X68086446Y-89401368D01*
X68159433Y-89625996D01*
X68239817Y-89783757D01*
X68266657Y-89836433D01*
X68405483Y-90027510D01*
X68572490Y-90194517D01*
X68748386Y-90322313D01*
X68791051Y-90377643D01*
X68799500Y-90422631D01*
X68799500Y-94177368D01*
X68779815Y-94244407D01*
X68748386Y-94277686D01*
X68572488Y-94405484D01*
X68405485Y-94572487D01*
X68405485Y-94572488D01*
X68405483Y-94572490D01*
X68345862Y-94654550D01*
X68266657Y-94763566D01*
X68159433Y-94974003D01*
X68086446Y-95198631D01*
X68049500Y-95431902D01*
X68049500Y-95668097D01*
X68086446Y-95901368D01*
X68159433Y-96125996D01*
X68246546Y-96296963D01*
X68266657Y-96336433D01*
X68405483Y-96527510D01*
X68572490Y-96694517D01*
X68763567Y-96833343D01*
X68835756Y-96870125D01*
X68974003Y-96940566D01*
X68974005Y-96940566D01*
X68974008Y-96940568D01*
X69094412Y-96979689D01*
X69198631Y-97013553D01*
X69431903Y-97050500D01*
X69431908Y-97050500D01*
X69668097Y-97050500D01*
X69901368Y-97013553D01*
X69948182Y-96998342D01*
X70125992Y-96940568D01*
X70336433Y-96833343D01*
X70527510Y-96694517D01*
X70694517Y-96527510D01*
X70833343Y-96336433D01*
X70939796Y-96127506D01*
X70987769Y-96076712D01*
X71055590Y-96059917D01*
X71121725Y-96082454D01*
X71160765Y-96127508D01*
X71267087Y-96336175D01*
X71327338Y-96419105D01*
X71327340Y-96419106D01*
X72026212Y-95720234D01*
X72037482Y-95762293D01*
X72109890Y-95887709D01*
X72212292Y-95990111D01*
X72337708Y-96062519D01*
X72379765Y-96073788D01*
X71680893Y-96772659D01*
X71763828Y-96832915D01*
X71974197Y-96940103D01*
X72198752Y-97013066D01*
X72198751Y-97013066D01*
X72431948Y-97050001D01*
X72668052Y-97050001D01*
X72901247Y-97013066D01*
X73125802Y-96940103D01*
X73336163Y-96832919D01*
X73336169Y-96832915D01*
X73419104Y-96772659D01*
X73419105Y-96772659D01*
X72720233Y-96073788D01*
X72762292Y-96062519D01*
X72887708Y-95990111D01*
X72990110Y-95887709D01*
X73062518Y-95762293D01*
X73073787Y-95720235D01*
X73772658Y-96419106D01*
X73772658Y-96419105D01*
X73832914Y-96336170D01*
X73832918Y-96336164D01*
X73940102Y-96125803D01*
X74013065Y-95901248D01*
X74050000Y-95668053D01*
X74050000Y-95431948D01*
X74013065Y-95198753D01*
X73940102Y-94974198D01*
X73832914Y-94763829D01*
X73772658Y-94680895D01*
X73772658Y-94680894D01*
X73073787Y-95379766D01*
X73062518Y-95337709D01*
X72990110Y-95212293D01*
X72887708Y-95109891D01*
X72762292Y-95037483D01*
X72720234Y-95026213D01*
X73419105Y-94327341D01*
X73419104Y-94327339D01*
X73336174Y-94267088D01*
X73125802Y-94159898D01*
X72901247Y-94086935D01*
X72901248Y-94086935D01*
X72668052Y-94050001D01*
X72431948Y-94050001D01*
X72198752Y-94086935D01*
X71974197Y-94159898D01*
X71763830Y-94267085D01*
X71680894Y-94327341D01*
X72379766Y-95026213D01*
X72337708Y-95037483D01*
X72212292Y-95109891D01*
X72109890Y-95212293D01*
X72037482Y-95337709D01*
X72026212Y-95379767D01*
X71327340Y-94680895D01*
X71267084Y-94763831D01*
X71160766Y-94972492D01*
X71112791Y-95023288D01*
X71044970Y-95040083D01*
X70978835Y-95017545D01*
X70939796Y-94972492D01*
X70849793Y-94795852D01*
X70833343Y-94763567D01*
X70694517Y-94572490D01*
X70527510Y-94405483D01*
X70476879Y-94368697D01*
X70351614Y-94277686D01*
X70308949Y-94222355D01*
X70300500Y-94177368D01*
X70300500Y-90422631D01*
X70320185Y-90355592D01*
X70351614Y-90322313D01*
X70527510Y-90194517D01*
X70694517Y-90027510D01*
X70833343Y-89836433D01*
X70939796Y-89627506D01*
X70987769Y-89576712D01*
X71055590Y-89559917D01*
X71121725Y-89582454D01*
X71160765Y-89627508D01*
X71267086Y-89836174D01*
X71327337Y-89919104D01*
X71327339Y-89919105D01*
X72026211Y-89220233D01*
X72037481Y-89262292D01*
X72109889Y-89387708D01*
X72212291Y-89490110D01*
X72337707Y-89562518D01*
X72379764Y-89573787D01*
X71680892Y-90272658D01*
X71763827Y-90332914D01*
X71974196Y-90440102D01*
X72198751Y-90513065D01*
X72198750Y-90513065D01*
X72431947Y-90550000D01*
X72668051Y-90550000D01*
X72901246Y-90513065D01*
X73125801Y-90440102D01*
X73336162Y-90332918D01*
X73336168Y-90332914D01*
X73419103Y-90272658D01*
X73419104Y-90272658D01*
X72720232Y-89573787D01*
X72762291Y-89562518D01*
X72887707Y-89490110D01*
X72990109Y-89387708D01*
X73062517Y-89262292D01*
X73073786Y-89220233D01*
X73772657Y-89919105D01*
X73772657Y-89919104D01*
X73832913Y-89836169D01*
X73832917Y-89836163D01*
X73940101Y-89625802D01*
X74013064Y-89401247D01*
X74049999Y-89168052D01*
X74049999Y-88931947D01*
X74013064Y-88698752D01*
X73940101Y-88474197D01*
X73832913Y-88263828D01*
X73772657Y-88180894D01*
X73772657Y-88180893D01*
X73073786Y-88879765D01*
X73062517Y-88837708D01*
X72990109Y-88712292D01*
X72887707Y-88609890D01*
X72762291Y-88537482D01*
X72720232Y-88526212D01*
X73459526Y-87786919D01*
X73463021Y-87790414D01*
X73486857Y-87766173D01*
X73547199Y-87750500D01*
X75928111Y-87750500D01*
X75995150Y-87770185D01*
X76040905Y-87822989D01*
X76050849Y-87892147D01*
X76021824Y-87955703D01*
X76015792Y-87962181D01*
X75905485Y-88072487D01*
X75905485Y-88072488D01*
X75905483Y-88072490D01*
X75901179Y-88078414D01*
X75766657Y-88263566D01*
X75659433Y-88474003D01*
X75586446Y-88698631D01*
X75549500Y-88931902D01*
X75549500Y-89168097D01*
X75586446Y-89401368D01*
X75659433Y-89625996D01*
X75739817Y-89783757D01*
X75766657Y-89836433D01*
X75905483Y-90027510D01*
X76072490Y-90194517D01*
X76248386Y-90322313D01*
X76291051Y-90377643D01*
X76299500Y-90422631D01*
X76299500Y-94177368D01*
X76279815Y-94244407D01*
X76248386Y-94277686D01*
X76072488Y-94405484D01*
X75905485Y-94572487D01*
X75905485Y-94572488D01*
X75905483Y-94572490D01*
X75845862Y-94654550D01*
X75766657Y-94763566D01*
X75659433Y-94974003D01*
X75586446Y-95198631D01*
X75549500Y-95431902D01*
X75549500Y-95668097D01*
X75586446Y-95901368D01*
X75659433Y-96125996D01*
X75746546Y-96296963D01*
X75766657Y-96336433D01*
X75905483Y-96527510D01*
X76072490Y-96694517D01*
X76263567Y-96833343D01*
X76335756Y-96870125D01*
X76474003Y-96940566D01*
X76474005Y-96940566D01*
X76474008Y-96940568D01*
X76594412Y-96979689D01*
X76698631Y-97013553D01*
X76931903Y-97050500D01*
X76931908Y-97050500D01*
X77168097Y-97050500D01*
X77401368Y-97013553D01*
X77448182Y-96998342D01*
X77625992Y-96940568D01*
X77836433Y-96833343D01*
X78027510Y-96694517D01*
X78194517Y-96527510D01*
X78333343Y-96336433D01*
X78439515Y-96128057D01*
X78487489Y-96077262D01*
X78555310Y-96060467D01*
X78621445Y-96083004D01*
X78660484Y-96128057D01*
X78766657Y-96336433D01*
X78905483Y-96527510D01*
X79072490Y-96694517D01*
X79142226Y-96745183D01*
X79184890Y-96800512D01*
X79190869Y-96870125D01*
X79158263Y-96931920D01*
X79097424Y-96966278D01*
X79069339Y-96969500D01*
X78756080Y-96969500D01*
X78611092Y-96998340D01*
X78611082Y-96998343D01*
X78474509Y-97054913D01*
X78474507Y-97054914D01*
X78449323Y-97071742D01*
X78433645Y-97082218D01*
X78413267Y-97095834D01*
X78351581Y-97137050D01*
X77489912Y-97998719D01*
X77428589Y-98032204D01*
X77382833Y-98033511D01*
X77168097Y-97999500D01*
X77168092Y-97999500D01*
X76931908Y-97999500D01*
X76931903Y-97999500D01*
X76698631Y-98036446D01*
X76474003Y-98109433D01*
X76263566Y-98216657D01*
X76180047Y-98277338D01*
X76072490Y-98355483D01*
X76072488Y-98355485D01*
X76072487Y-98355485D01*
X75905485Y-98522487D01*
X75905485Y-98522488D01*
X75905483Y-98522490D01*
X75849324Y-98599786D01*
X75766657Y-98713566D01*
X75659433Y-98924003D01*
X75586446Y-99148631D01*
X75549500Y-99381902D01*
X75549500Y-99618097D01*
X75586446Y-99851368D01*
X75659433Y-100075996D01*
X75766519Y-100286163D01*
X75766657Y-100286433D01*
X75905483Y-100477510D01*
X76072490Y-100644517D01*
X76180042Y-100722658D01*
X76248386Y-100772313D01*
X76291051Y-100827643D01*
X76299500Y-100872631D01*
X76299500Y-104627368D01*
X76279815Y-104694407D01*
X76248386Y-104727686D01*
X76072488Y-104855484D01*
X75905485Y-105022487D01*
X75905485Y-105022488D01*
X75905483Y-105022490D01*
X75845862Y-105104550D01*
X75766657Y-105213566D01*
X75659433Y-105424003D01*
X75586446Y-105648631D01*
X75549500Y-105881902D01*
X75549500Y-106118097D01*
X75586446Y-106351368D01*
X75659433Y-106575996D01*
X75766520Y-106786164D01*
X75766657Y-106786433D01*
X75905483Y-106977510D01*
X76072490Y-107144517D01*
X76263567Y-107283343D01*
X76362991Y-107334002D01*
X76474003Y-107390566D01*
X76474005Y-107390566D01*
X76474008Y-107390568D01*
X76562334Y-107419267D01*
X76698631Y-107463553D01*
X76931903Y-107500500D01*
X76931908Y-107500500D01*
X77168097Y-107500500D01*
X77401368Y-107463553D01*
X77402867Y-107463066D01*
X77625992Y-107390568D01*
X77836433Y-107283343D01*
X78027510Y-107144517D01*
X78194517Y-106977510D01*
X78333343Y-106786433D01*
X78440568Y-106575992D01*
X78513553Y-106351368D01*
X78524896Y-106279750D01*
X78550500Y-106118097D01*
X78550500Y-105881902D01*
X78513553Y-105648631D01*
X78461192Y-105487483D01*
X78440568Y-105424008D01*
X78440566Y-105424005D01*
X78440566Y-105424003D01*
X78384002Y-105312991D01*
X78333343Y-105213567D01*
X78194517Y-105022490D01*
X78027510Y-104855483D01*
X77976879Y-104818697D01*
X77851614Y-104727686D01*
X77808949Y-104672355D01*
X77800500Y-104627368D01*
X77800500Y-100872631D01*
X77820185Y-100805592D01*
X77851614Y-100772313D01*
X78027510Y-100644517D01*
X78194517Y-100477510D01*
X78333343Y-100286433D01*
X78440568Y-100075992D01*
X78513553Y-99851368D01*
X78521950Y-99798349D01*
X78550500Y-99618097D01*
X78550500Y-99381902D01*
X78516488Y-99167164D01*
X78525442Y-99097871D01*
X78551277Y-99060088D01*
X79104548Y-98506819D01*
X79165871Y-98473334D01*
X79192229Y-98470500D01*
X87072779Y-98470500D01*
X87139818Y-98490185D01*
X87173097Y-98521615D01*
X87229892Y-98599788D01*
X87380213Y-98750109D01*
X87552182Y-98875050D01*
X87560946Y-98879516D01*
X87611742Y-98927491D01*
X87628536Y-98995312D01*
X87605998Y-99061447D01*
X87560946Y-99100484D01*
X87552182Y-99104949D01*
X87380213Y-99229890D01*
X87229890Y-99380213D01*
X87104951Y-99552179D01*
X87008444Y-99741585D01*
X86942753Y-99943760D01*
X86921840Y-100075802D01*
X86909500Y-100153713D01*
X86909500Y-100366287D01*
X86942754Y-100576243D01*
X87006461Y-100772313D01*
X87008444Y-100778414D01*
X87104951Y-100967820D01*
X87229890Y-101139786D01*
X87380213Y-101290109D01*
X87552179Y-101415048D01*
X87552181Y-101415049D01*
X87552184Y-101415051D01*
X87561493Y-101419794D01*
X87612290Y-101467766D01*
X87629087Y-101535587D01*
X87606552Y-101601722D01*
X87561502Y-101640762D01*
X87552443Y-101645378D01*
X87380540Y-101770272D01*
X87380535Y-101770276D01*
X87230276Y-101920535D01*
X87230272Y-101920540D01*
X87105379Y-102092442D01*
X87008904Y-102281782D01*
X86943242Y-102483870D01*
X86943242Y-102483873D01*
X86932769Y-102550000D01*
X87826988Y-102550000D01*
X87794075Y-102607007D01*
X87760000Y-102734174D01*
X87760000Y-102865826D01*
X87794075Y-102992993D01*
X87826988Y-103050000D01*
X86932769Y-103050000D01*
X86943242Y-103116126D01*
X86943242Y-103116129D01*
X87008904Y-103318217D01*
X87105379Y-103507557D01*
X87230272Y-103679459D01*
X87230276Y-103679464D01*
X87380535Y-103829723D01*
X87380540Y-103829727D01*
X87552442Y-103954620D01*
X87741782Y-104051095D01*
X87943871Y-104116757D01*
X88010000Y-104127231D01*
X88010000Y-103233012D01*
X88067007Y-103265925D01*
X88194174Y-103300000D01*
X88325826Y-103300000D01*
X88452993Y-103265925D01*
X88510000Y-103233012D01*
X88510000Y-104127230D01*
X88576126Y-104116757D01*
X88576129Y-104116757D01*
X88778217Y-104051095D01*
X88967557Y-103954620D01*
X89139459Y-103829727D01*
X89139464Y-103829723D01*
X89289723Y-103679464D01*
X89289727Y-103679459D01*
X89414620Y-103507558D01*
X89419232Y-103498507D01*
X89467205Y-103447709D01*
X89535025Y-103430912D01*
X89601161Y-103453447D01*
X89640204Y-103498504D01*
X89644949Y-103507817D01*
X89769890Y-103679786D01*
X89920213Y-103830109D01*
X90092179Y-103955048D01*
X90092181Y-103955049D01*
X90092184Y-103955051D01*
X90281588Y-104051557D01*
X90483757Y-104117246D01*
X90693713Y-104150500D01*
X90693714Y-104150500D01*
X90906286Y-104150500D01*
X90906287Y-104150500D01*
X91116243Y-104117246D01*
X91318412Y-104051557D01*
X91507816Y-103955051D01*
X91529789Y-103939086D01*
X91679786Y-103830109D01*
X91679788Y-103830106D01*
X91679792Y-103830104D01*
X91830104Y-103679792D01*
X91830106Y-103679788D01*
X91830109Y-103679786D01*
X91955048Y-103507820D01*
X91955050Y-103507817D01*
X91955051Y-103507816D01*
X92051557Y-103318412D01*
X92117246Y-103116243D01*
X92150500Y-102906287D01*
X92150500Y-102693713D01*
X92117246Y-102483757D01*
X92051557Y-102281588D01*
X91955051Y-102092184D01*
X91955049Y-102092181D01*
X91955048Y-102092179D01*
X91830109Y-101920213D01*
X91679786Y-101769890D01*
X91507820Y-101644951D01*
X91499600Y-101640763D01*
X91499054Y-101640485D01*
X91448259Y-101592512D01*
X91431463Y-101524692D01*
X91453999Y-101458556D01*
X91499054Y-101419515D01*
X91507816Y-101415051D01*
X91529789Y-101399086D01*
X91679786Y-101290109D01*
X91679788Y-101290106D01*
X91679792Y-101290104D01*
X91830104Y-101139792D01*
X91830106Y-101139788D01*
X91830109Y-101139786D01*
X91955048Y-100967820D01*
X91955047Y-100967820D01*
X91955051Y-100967816D01*
X92051557Y-100778412D01*
X92117246Y-100576243D01*
X92150500Y-100366287D01*
X92150500Y-100153713D01*
X92117246Y-99943757D01*
X92051557Y-99741588D01*
X91955051Y-99552184D01*
X91955049Y-99552181D01*
X91955048Y-99552179D01*
X91830109Y-99380213D01*
X91679786Y-99229890D01*
X91507820Y-99104951D01*
X91507115Y-99104591D01*
X91499054Y-99100485D01*
X91448259Y-99052512D01*
X91431463Y-98984692D01*
X91453999Y-98918556D01*
X91499054Y-98879515D01*
X91507816Y-98875051D01*
X91529789Y-98859086D01*
X91679786Y-98750109D01*
X91679788Y-98750106D01*
X91679792Y-98750104D01*
X91830104Y-98599792D01*
X91830106Y-98599788D01*
X91830109Y-98599786D01*
X91955048Y-98427820D01*
X91955047Y-98427820D01*
X91955051Y-98427816D01*
X92051557Y-98238412D01*
X92117246Y-98036243D01*
X92150500Y-97826287D01*
X92150500Y-97613713D01*
X92117246Y-97403757D01*
X92051557Y-97201588D01*
X91955051Y-97012184D01*
X91955049Y-97012181D01*
X91955048Y-97012179D01*
X91830109Y-96840213D01*
X91679786Y-96689890D01*
X91507817Y-96564949D01*
X91498504Y-96560204D01*
X91447707Y-96512230D01*
X91430912Y-96444409D01*
X91453449Y-96378274D01*
X91498507Y-96339232D01*
X91507558Y-96334620D01*
X91679459Y-96209727D01*
X91679464Y-96209723D01*
X91829723Y-96059464D01*
X91829727Y-96059459D01*
X91954620Y-95887557D01*
X92051095Y-95698217D01*
X92116757Y-95496129D01*
X92116757Y-95496126D01*
X92127231Y-95430000D01*
X91233012Y-95430000D01*
X91265925Y-95372993D01*
X91300000Y-95245826D01*
X91300000Y-95114174D01*
X91265925Y-94987007D01*
X91233012Y-94930000D01*
X92127231Y-94930000D01*
X92116757Y-94863873D01*
X92116757Y-94863870D01*
X92051095Y-94661782D01*
X91954620Y-94472442D01*
X91829727Y-94300540D01*
X91829723Y-94300535D01*
X91679464Y-94150276D01*
X91679459Y-94150272D01*
X91507555Y-94025377D01*
X91498500Y-94020763D01*
X91447706Y-93972788D01*
X91430912Y-93904966D01*
X91453451Y-93838832D01*
X91498508Y-93799793D01*
X91507816Y-93795051D01*
X91587007Y-93737515D01*
X91679786Y-93670109D01*
X91679788Y-93670106D01*
X91679792Y-93670104D01*
X91830104Y-93519792D01*
X91830106Y-93519788D01*
X91830109Y-93519786D01*
X91955048Y-93347820D01*
X91955047Y-93347820D01*
X91955051Y-93347816D01*
X92051557Y-93158412D01*
X92117246Y-92956243D01*
X92150500Y-92746287D01*
X92150500Y-92533713D01*
X92117246Y-92323757D01*
X92051557Y-92121588D01*
X91955051Y-91932184D01*
X91955049Y-91932181D01*
X91955048Y-91932179D01*
X91830109Y-91760213D01*
X91679786Y-91609890D01*
X91507817Y-91484949D01*
X91498504Y-91480204D01*
X91447707Y-91432230D01*
X91430912Y-91364409D01*
X91453449Y-91298274D01*
X91498507Y-91259232D01*
X91507558Y-91254620D01*
X91679459Y-91129727D01*
X91679464Y-91129723D01*
X91829723Y-90979464D01*
X91829727Y-90979459D01*
X91954620Y-90807557D01*
X92051095Y-90618217D01*
X92116757Y-90416129D01*
X92116757Y-90416126D01*
X92127231Y-90350000D01*
X91233012Y-90350000D01*
X91265925Y-90292993D01*
X91300000Y-90165826D01*
X91300000Y-90034174D01*
X91265925Y-89907007D01*
X91233012Y-89850000D01*
X92127231Y-89850000D01*
X92116757Y-89783873D01*
X92116757Y-89783870D01*
X92051095Y-89581782D01*
X91954620Y-89392442D01*
X91829727Y-89220540D01*
X91829723Y-89220535D01*
X91679464Y-89070276D01*
X91679459Y-89070272D01*
X91507555Y-88945377D01*
X91498500Y-88940763D01*
X91447706Y-88892788D01*
X91430912Y-88824966D01*
X91453451Y-88758832D01*
X91498508Y-88719793D01*
X91507816Y-88715051D01*
X91600800Y-88647495D01*
X91679786Y-88590109D01*
X91679788Y-88590106D01*
X91679792Y-88590104D01*
X91830104Y-88439792D01*
X91830106Y-88439788D01*
X91830109Y-88439786D01*
X91955048Y-88267820D01*
X91955047Y-88267820D01*
X91955051Y-88267816D01*
X92051557Y-88078412D01*
X92117246Y-87876243D01*
X92150500Y-87666287D01*
X92150500Y-87453713D01*
X92117246Y-87243757D01*
X92051557Y-87041588D01*
X91955051Y-86852184D01*
X91955049Y-86852181D01*
X91955048Y-86852179D01*
X91830109Y-86680213D01*
X91679786Y-86529890D01*
X91507820Y-86404951D01*
X91507115Y-86404591D01*
X91499054Y-86400485D01*
X91448259Y-86352512D01*
X91431463Y-86284692D01*
X91453999Y-86218556D01*
X91499054Y-86179515D01*
X91507816Y-86175051D01*
X91612297Y-86099142D01*
X91679786Y-86050109D01*
X91679788Y-86050106D01*
X91679792Y-86050104D01*
X91830104Y-85899792D01*
X91830106Y-85899788D01*
X91830109Y-85899786D01*
X91955048Y-85727820D01*
X91955050Y-85727817D01*
X91955051Y-85727816D01*
X92051557Y-85538412D01*
X92117246Y-85336243D01*
X92150500Y-85126287D01*
X92150500Y-84913713D01*
X92117246Y-84703757D01*
X92051557Y-84501588D01*
X91955051Y-84312184D01*
X91955049Y-84312181D01*
X91955048Y-84312179D01*
X91830109Y-84140213D01*
X91679786Y-83989890D01*
X91507820Y-83864951D01*
X91499600Y-83860763D01*
X91499054Y-83860485D01*
X91448259Y-83812512D01*
X91431463Y-83744692D01*
X91453999Y-83678556D01*
X91499054Y-83639515D01*
X91507816Y-83635051D01*
X91593238Y-83572989D01*
X91679786Y-83510109D01*
X91679788Y-83510106D01*
X91679792Y-83510104D01*
X91830104Y-83359792D01*
X91830106Y-83359788D01*
X91830109Y-83359786D01*
X91955048Y-83187820D01*
X91955047Y-83187820D01*
X91955051Y-83187816D01*
X92051557Y-82998412D01*
X92117246Y-82796243D01*
X92150500Y-82586287D01*
X92150500Y-82373713D01*
X92117246Y-82163757D01*
X92051557Y-81961588D01*
X91955051Y-81772184D01*
X91955049Y-81772181D01*
X91955048Y-81772179D01*
X91830109Y-81600213D01*
X91679786Y-81449890D01*
X91507820Y-81324951D01*
X91507115Y-81324591D01*
X91499054Y-81320485D01*
X91448259Y-81272512D01*
X91431463Y-81204692D01*
X91453999Y-81138556D01*
X91499054Y-81099515D01*
X91507816Y-81095051D01*
X91529789Y-81079086D01*
X91679786Y-80970109D01*
X91679788Y-80970106D01*
X91679792Y-80970104D01*
X91830104Y-80819792D01*
X91830106Y-80819788D01*
X91830109Y-80819786D01*
X91955048Y-80647820D01*
X91955047Y-80647820D01*
X91955051Y-80647816D01*
X92051557Y-80458412D01*
X92117246Y-80256243D01*
X92150500Y-80046287D01*
X92150500Y-79833713D01*
X92117246Y-79623757D01*
X92051557Y-79421588D01*
X91955051Y-79232184D01*
X91955049Y-79232181D01*
X91955048Y-79232179D01*
X91830109Y-79060213D01*
X91679786Y-78909890D01*
X91507817Y-78784949D01*
X91498504Y-78780204D01*
X91447707Y-78732230D01*
X91430912Y-78664409D01*
X91453449Y-78598274D01*
X91498507Y-78559232D01*
X91507558Y-78554620D01*
X91679459Y-78429727D01*
X91679464Y-78429723D01*
X91829723Y-78279464D01*
X91829727Y-78279459D01*
X91954620Y-78107557D01*
X92051095Y-77918217D01*
X92116757Y-77716129D01*
X92116757Y-77716126D01*
X92127231Y-77650000D01*
X91233012Y-77650000D01*
X91265925Y-77592993D01*
X91300000Y-77465826D01*
X91300000Y-77334174D01*
X91265925Y-77207007D01*
X91233012Y-77150000D01*
X92127231Y-77150000D01*
X92116757Y-77083873D01*
X92116757Y-77083870D01*
X92051095Y-76881782D01*
X91954620Y-76692442D01*
X91829727Y-76520540D01*
X91829723Y-76520535D01*
X91679464Y-76370276D01*
X91679459Y-76370272D01*
X91507555Y-76245377D01*
X91498500Y-76240763D01*
X91447706Y-76192788D01*
X91430912Y-76124966D01*
X91453451Y-76058832D01*
X91498508Y-76019793D01*
X91507816Y-76015051D01*
X91587007Y-75957515D01*
X91679786Y-75890109D01*
X91679788Y-75890106D01*
X91679792Y-75890104D01*
X91830104Y-75739792D01*
X91830106Y-75739788D01*
X91830109Y-75739786D01*
X91955048Y-75567820D01*
X91955047Y-75567820D01*
X91955051Y-75567816D01*
X92051557Y-75378412D01*
X92117246Y-75176243D01*
X92150500Y-74966287D01*
X92150500Y-74753713D01*
X92117246Y-74543757D01*
X92051557Y-74341588D01*
X91955051Y-74152184D01*
X91955049Y-74152181D01*
X91955048Y-74152179D01*
X91830109Y-73980213D01*
X91679786Y-73829890D01*
X91507820Y-73704951D01*
X91507115Y-73704591D01*
X91499054Y-73700485D01*
X91448259Y-73652512D01*
X91431463Y-73584692D01*
X91453999Y-73518556D01*
X91499054Y-73479515D01*
X91507816Y-73475051D01*
X91603316Y-73405667D01*
X91679786Y-73350109D01*
X91679788Y-73350106D01*
X91679792Y-73350104D01*
X91830104Y-73199792D01*
X91830106Y-73199788D01*
X91830109Y-73199786D01*
X91951691Y-73032440D01*
X91955051Y-73027816D01*
X92051557Y-72838412D01*
X92117246Y-72636243D01*
X92150500Y-72426287D01*
X92150500Y-72213713D01*
X92117246Y-72003757D01*
X92051557Y-71801588D01*
X91955051Y-71612184D01*
X91955049Y-71612181D01*
X91955048Y-71612179D01*
X91830109Y-71440213D01*
X91679786Y-71289890D01*
X91507817Y-71164949D01*
X91498504Y-71160204D01*
X91447707Y-71112230D01*
X91430912Y-71044409D01*
X91453449Y-70978274D01*
X91498507Y-70939232D01*
X91507558Y-70934620D01*
X91679459Y-70809727D01*
X91679464Y-70809723D01*
X91829723Y-70659464D01*
X91829727Y-70659459D01*
X91954620Y-70487557D01*
X92051095Y-70298217D01*
X92116757Y-70096129D01*
X92116757Y-70096126D01*
X92127231Y-70030000D01*
X91233012Y-70030000D01*
X91265925Y-69972993D01*
X91300000Y-69845826D01*
X91300000Y-69714174D01*
X91265925Y-69587007D01*
X91233012Y-69530000D01*
X92127231Y-69530000D01*
X92116757Y-69463873D01*
X92116757Y-69463870D01*
X92051095Y-69261782D01*
X91954620Y-69072442D01*
X91829727Y-68900540D01*
X91829723Y-68900535D01*
X91679464Y-68750276D01*
X91679459Y-68750272D01*
X91507555Y-68625377D01*
X91498500Y-68620763D01*
X91447706Y-68572788D01*
X91430912Y-68504966D01*
X91453451Y-68438832D01*
X91498508Y-68399793D01*
X91507816Y-68395051D01*
X91610861Y-68320185D01*
X91679786Y-68270109D01*
X91679788Y-68270106D01*
X91679792Y-68270104D01*
X91830104Y-68119792D01*
X91830106Y-68119788D01*
X91830109Y-68119786D01*
X91953462Y-67950003D01*
X91955051Y-67947816D01*
X92051557Y-67758412D01*
X92117246Y-67556243D01*
X92150500Y-67346287D01*
X92150500Y-67133713D01*
X92117246Y-66923757D01*
X92051557Y-66721588D01*
X91955051Y-66532184D01*
X91955049Y-66532181D01*
X91955048Y-66532179D01*
X91830109Y-66360213D01*
X91679786Y-66209890D01*
X91507820Y-66084951D01*
X91507115Y-66084591D01*
X91499054Y-66080485D01*
X91448259Y-66032512D01*
X91431463Y-65964692D01*
X91453999Y-65898556D01*
X91499054Y-65859515D01*
X91507816Y-65855051D01*
X91565446Y-65813181D01*
X91679786Y-65730109D01*
X91679788Y-65730106D01*
X91679792Y-65730104D01*
X91830104Y-65579792D01*
X91830106Y-65579788D01*
X91830109Y-65579786D01*
X91955048Y-65407820D01*
X91955050Y-65407817D01*
X91955051Y-65407816D01*
X92051557Y-65218412D01*
X92117246Y-65016243D01*
X92150500Y-64806287D01*
X92150500Y-64593713D01*
X92117246Y-64383757D01*
X92051557Y-64181588D01*
X91955051Y-63992184D01*
X91955049Y-63992181D01*
X91955048Y-63992179D01*
X91830109Y-63820213D01*
X91679786Y-63669890D01*
X91507820Y-63544951D01*
X91499600Y-63540763D01*
X91499054Y-63540485D01*
X91448259Y-63492512D01*
X91431463Y-63424692D01*
X91453999Y-63358556D01*
X91499054Y-63319515D01*
X91507816Y-63315051D01*
X91597352Y-63250000D01*
X91679786Y-63190109D01*
X91679788Y-63190106D01*
X91679792Y-63190104D01*
X91830104Y-63039792D01*
X91830106Y-63039788D01*
X91830109Y-63039786D01*
X91955048Y-62867820D01*
X91955047Y-62867820D01*
X91955051Y-62867816D01*
X92051557Y-62678412D01*
X92117246Y-62476243D01*
X92150500Y-62266287D01*
X92150500Y-62053713D01*
X92117246Y-61843757D01*
X92051557Y-61641588D01*
X91955051Y-61452184D01*
X91955049Y-61452181D01*
X91955048Y-61452179D01*
X91830109Y-61280213D01*
X91679786Y-61129890D01*
X91507817Y-61004949D01*
X91498504Y-61000204D01*
X91447707Y-60952230D01*
X91430912Y-60884409D01*
X91453449Y-60818274D01*
X91498507Y-60779232D01*
X91507558Y-60774620D01*
X91679459Y-60649727D01*
X91679464Y-60649723D01*
X91829723Y-60499464D01*
X91829727Y-60499459D01*
X91954620Y-60327557D01*
X92051095Y-60138217D01*
X92116757Y-59936129D01*
X92116757Y-59936126D01*
X92127231Y-59870000D01*
X91233012Y-59870000D01*
X91265925Y-59812993D01*
X91300000Y-59685826D01*
X91300000Y-59554174D01*
X91265925Y-59427007D01*
X91233012Y-59370000D01*
X92127231Y-59370000D01*
X92116757Y-59303873D01*
X92116757Y-59303870D01*
X92051095Y-59101782D01*
X91954620Y-58912442D01*
X91829727Y-58740540D01*
X91829723Y-58740535D01*
X91679464Y-58590276D01*
X91679459Y-58590272D01*
X91507555Y-58465377D01*
X91498500Y-58460763D01*
X91447706Y-58412788D01*
X91430912Y-58344966D01*
X91453451Y-58278832D01*
X91498508Y-58239793D01*
X91507816Y-58235051D01*
X91587007Y-58177515D01*
X91679786Y-58110109D01*
X91679788Y-58110106D01*
X91679792Y-58110104D01*
X91830104Y-57959792D01*
X91830106Y-57959788D01*
X91830109Y-57959786D01*
X91955048Y-57787820D01*
X91955047Y-57787820D01*
X91955051Y-57787816D01*
X92051557Y-57598412D01*
X92117246Y-57396243D01*
X92150500Y-57186287D01*
X92150500Y-56973713D01*
X92117246Y-56763757D01*
X92051557Y-56561588D01*
X91955051Y-56372184D01*
X91955049Y-56372181D01*
X91955048Y-56372179D01*
X91830109Y-56200213D01*
X91679794Y-56049898D01*
X91679788Y-56049893D01*
X91601615Y-55993097D01*
X91598274Y-55988765D01*
X91593297Y-55986492D01*
X91577164Y-55961389D01*
X91558949Y-55937767D01*
X91557696Y-55931095D01*
X91555523Y-55927714D01*
X91550500Y-55892779D01*
X91550500Y-55727220D01*
X91570185Y-55660181D01*
X91601614Y-55626902D01*
X91679792Y-55570104D01*
X91830104Y-55419792D01*
X91830106Y-55419788D01*
X91830109Y-55419786D01*
X91955048Y-55247820D01*
X91955047Y-55247820D01*
X91955051Y-55247816D01*
X92051557Y-55058412D01*
X92117246Y-54856243D01*
X92150500Y-54646287D01*
X92150500Y-54433713D01*
X92117246Y-54223757D01*
X92051557Y-54021588D01*
X91955051Y-53832184D01*
X91955049Y-53832181D01*
X91955048Y-53832179D01*
X91830109Y-53660213D01*
X91679794Y-53509898D01*
X91679792Y-53509896D01*
X91601985Y-53453366D01*
X91575783Y-53434329D01*
X91533118Y-53378999D01*
X91527052Y-53358202D01*
X91521930Y-53332454D01*
X91521658Y-53331087D01*
X91521656Y-53331082D01*
X91465087Y-53194511D01*
X91465080Y-53194498D01*
X91382952Y-53071585D01*
X91350509Y-53039142D01*
X91278416Y-52967049D01*
X89785932Y-51474564D01*
X89752447Y-51413241D01*
X89757431Y-51343549D01*
X89799303Y-51287616D01*
X89854211Y-51264411D01*
X89910639Y-51255474D01*
X90153975Y-51176410D01*
X90381947Y-51060252D01*
X90588942Y-50909862D01*
X90769862Y-50728942D01*
X90920252Y-50521947D01*
X91036410Y-50293975D01*
X91115474Y-50050639D01*
X91155500Y-49797930D01*
X91155500Y-49542070D01*
X91115474Y-49289361D01*
X91048670Y-49083757D01*
X91036411Y-49046027D01*
X91036410Y-49046024D01*
X90979368Y-48934075D01*
X90920252Y-48818053D01*
X90875417Y-48756343D01*
X90769867Y-48611064D01*
X90769863Y-48611059D01*
X90588940Y-48430136D01*
X90588935Y-48430132D01*
X90381950Y-48279750D01*
X90381949Y-48279749D01*
X90381947Y-48279748D01*
X90308910Y-48242533D01*
X90153975Y-48163589D01*
X90153972Y-48163588D01*
X89910640Y-48084526D01*
X89784284Y-48064513D01*
X89657930Y-48044500D01*
X89402070Y-48044500D01*
X89317833Y-48057842D01*
X89149359Y-48084526D01*
X88906027Y-48163588D01*
X88906024Y-48163589D01*
X88678049Y-48279750D01*
X88471064Y-48430132D01*
X88471059Y-48430136D01*
X88290136Y-48611059D01*
X88290132Y-48611064D01*
X88139750Y-48818049D01*
X88023589Y-49046024D01*
X88023588Y-49046027D01*
X87944526Y-49289359D01*
X87927002Y-49400000D01*
X87904500Y-49542070D01*
X87904500Y-49797930D01*
X87915270Y-49865925D01*
X87944526Y-50050640D01*
X88023588Y-50293972D01*
X88023589Y-50293975D01*
X88139750Y-50521950D01*
X88290132Y-50728935D01*
X88290136Y-50728940D01*
X88349015Y-50787819D01*
X88382500Y-50849142D01*
X88377516Y-50918834D01*
X88335644Y-50974767D01*
X88270180Y-50999184D01*
X88261334Y-50999500D01*
X85374500Y-50999500D01*
X85307461Y-50979815D01*
X85261706Y-50927011D01*
X85250500Y-50875500D01*
X85250500Y-48926079D01*
X85221659Y-48781092D01*
X85221658Y-48781091D01*
X85221658Y-48781087D01*
X85188463Y-48700946D01*
X85165087Y-48644511D01*
X85165080Y-48644498D01*
X85082952Y-48521585D01*
X85033034Y-48471667D01*
X84978416Y-48417049D01*
X84605867Y-48044500D01*
X83478421Y-46917052D01*
X83478414Y-46917046D01*
X83419381Y-46877602D01*
X83374575Y-46823990D01*
X83365868Y-46754665D01*
X83396022Y-46691638D01*
X83455465Y-46654918D01*
X83488271Y-46650500D01*
X89484108Y-46650500D01*
X89546754Y-46650500D01*
X89553243Y-46650669D01*
X89634298Y-46654918D01*
X89857046Y-46666592D01*
X89869953Y-46667949D01*
X90001089Y-46688718D01*
X90167209Y-46715028D01*
X90179896Y-46717724D01*
X90470625Y-46795625D01*
X90482965Y-46799635D01*
X90763938Y-46907490D01*
X90775790Y-46912767D01*
X91043968Y-47049411D01*
X91055199Y-47055896D01*
X91307608Y-47219812D01*
X91318109Y-47227441D01*
X91552010Y-47416850D01*
X91561655Y-47425535D01*
X91774464Y-47638344D01*
X91783149Y-47647989D01*
X91972558Y-47881890D01*
X91980187Y-47892391D01*
X92144101Y-48144796D01*
X92150591Y-48156036D01*
X92287231Y-48424206D01*
X92292510Y-48436064D01*
X92400363Y-48717033D01*
X92404374Y-48729376D01*
X92482273Y-49020097D01*
X92484971Y-49032794D01*
X92532050Y-49330046D01*
X92533407Y-49342953D01*
X92549330Y-49646756D01*
X92549500Y-49653246D01*
X92549500Y-107646753D01*
X92549330Y-107653243D01*
X92533407Y-107957046D01*
X92532050Y-107969953D01*
X92484971Y-108267205D01*
X92482273Y-108279902D01*
X92404374Y-108570623D01*
X92400363Y-108582966D01*
X92292510Y-108863935D01*
X92287231Y-108875793D01*
X92150591Y-109143963D01*
X92144101Y-109155203D01*
X91980187Y-109407608D01*
X91972558Y-109418109D01*
X91783149Y-109652010D01*
X91774464Y-109661655D01*
X91561655Y-109874464D01*
X91552010Y-109883149D01*
X91318109Y-110072558D01*
X91307608Y-110080187D01*
X91055203Y-110244101D01*
X91043963Y-110250591D01*
X90775793Y-110387231D01*
X90763935Y-110392510D01*
X90482966Y-110500363D01*
X90470623Y-110504374D01*
X90179902Y-110582273D01*
X90167205Y-110584971D01*
X89869953Y-110632050D01*
X89857046Y-110633407D01*
X89553244Y-110649330D01*
X89546754Y-110649500D01*
X66553246Y-110649500D01*
X66546756Y-110649330D01*
X66242953Y-110633407D01*
X66230046Y-110632050D01*
X65932794Y-110584971D01*
X65920097Y-110582273D01*
X65629376Y-110504374D01*
X65617033Y-110500363D01*
X65336064Y-110392510D01*
X65324206Y-110387231D01*
X65056036Y-110250591D01*
X65044796Y-110244101D01*
X64792391Y-110080187D01*
X64781890Y-110072558D01*
X64547989Y-109883149D01*
X64538344Y-109874464D01*
X64325535Y-109661655D01*
X64316850Y-109652010D01*
X64127441Y-109418109D01*
X64119812Y-109407608D01*
X64047008Y-109295500D01*
X63955896Y-109155199D01*
X63949408Y-109143963D01*
X63906753Y-109060249D01*
X63812767Y-108875790D01*
X63807489Y-108863935D01*
X63755670Y-108728942D01*
X63699635Y-108582965D01*
X63695625Y-108570623D01*
X63617726Y-108279902D01*
X63615028Y-108267205D01*
X63567949Y-107969953D01*
X63566592Y-107957046D01*
X63550670Y-107653243D01*
X63550500Y-107646753D01*
X63550500Y-107542070D01*
X64904500Y-107542070D01*
X64904500Y-107797929D01*
X64944526Y-108050640D01*
X65023588Y-108293972D01*
X65023589Y-108293975D01*
X65139750Y-108521950D01*
X65290132Y-108728935D01*
X65290136Y-108728940D01*
X65471059Y-108909863D01*
X65471064Y-108909867D01*
X65651607Y-109041038D01*
X65678053Y-109060252D01*
X65827080Y-109136185D01*
X65906024Y-109176410D01*
X65906027Y-109176411D01*
X66027693Y-109215942D01*
X66149361Y-109255474D01*
X66402070Y-109295500D01*
X66402071Y-109295500D01*
X66657929Y-109295500D01*
X66657930Y-109295500D01*
X66910639Y-109255474D01*
X67153975Y-109176410D01*
X67381947Y-109060252D01*
X67588942Y-108909862D01*
X67769862Y-108728942D01*
X67920252Y-108521947D01*
X68036410Y-108293975D01*
X68115474Y-108050639D01*
X68155500Y-107797930D01*
X68155500Y-107542070D01*
X87904500Y-107542070D01*
X87904500Y-107797929D01*
X87944526Y-108050640D01*
X88023588Y-108293972D01*
X88023589Y-108293975D01*
X88139750Y-108521950D01*
X88290132Y-108728935D01*
X88290136Y-108728940D01*
X88471059Y-108909863D01*
X88471064Y-108909867D01*
X88651607Y-109041038D01*
X88678053Y-109060252D01*
X88827080Y-109136185D01*
X88906024Y-109176410D01*
X88906027Y-109176411D01*
X89027693Y-109215942D01*
X89149361Y-109255474D01*
X89402070Y-109295500D01*
X89402071Y-109295500D01*
X89657929Y-109295500D01*
X89657930Y-109295500D01*
X89910639Y-109255474D01*
X90153975Y-109176410D01*
X90381947Y-109060252D01*
X90588942Y-108909862D01*
X90769862Y-108728942D01*
X90920252Y-108521947D01*
X91036410Y-108293975D01*
X91115474Y-108050639D01*
X91155500Y-107797930D01*
X91155500Y-107542070D01*
X91115474Y-107289361D01*
X91036410Y-107046025D01*
X91036410Y-107046024D01*
X90996185Y-106967080D01*
X90920252Y-106818053D01*
X90897083Y-106786164D01*
X90769867Y-106611064D01*
X90769863Y-106611059D01*
X90588940Y-106430136D01*
X90588935Y-106430132D01*
X90381950Y-106279750D01*
X90381949Y-106279749D01*
X90381947Y-106279748D01*
X90249560Y-106212293D01*
X90153975Y-106163589D01*
X90153972Y-106163588D01*
X89910640Y-106084526D01*
X89784284Y-106064513D01*
X89657930Y-106044500D01*
X89402070Y-106044500D01*
X89317833Y-106057842D01*
X89149359Y-106084526D01*
X88906027Y-106163588D01*
X88906024Y-106163589D01*
X88678049Y-106279750D01*
X88471064Y-106430132D01*
X88471059Y-106430136D01*
X88290136Y-106611059D01*
X88290132Y-106611064D01*
X88139750Y-106818049D01*
X88023589Y-107046024D01*
X88023588Y-107046027D01*
X87944526Y-107289359D01*
X87904500Y-107542070D01*
X68155500Y-107542070D01*
X68115474Y-107289361D01*
X68113519Y-107283343D01*
X68090897Y-107213717D01*
X68036411Y-107046027D01*
X68036410Y-107046024D01*
X67996185Y-106967080D01*
X67920252Y-106818053D01*
X67897083Y-106786164D01*
X67769867Y-106611064D01*
X67769863Y-106611059D01*
X67588940Y-106430136D01*
X67588935Y-106430132D01*
X67381950Y-106279750D01*
X67381949Y-106279749D01*
X67381947Y-106279748D01*
X67249560Y-106212293D01*
X67153975Y-106163589D01*
X67153972Y-106163588D01*
X66910640Y-106084526D01*
X66784284Y-106064513D01*
X66657930Y-106044500D01*
X66402070Y-106044500D01*
X66317833Y-106057842D01*
X66149359Y-106084526D01*
X65906027Y-106163588D01*
X65906024Y-106163589D01*
X65678049Y-106279750D01*
X65471064Y-106430132D01*
X65471059Y-106430136D01*
X65290136Y-106611059D01*
X65290132Y-106611064D01*
X65139750Y-106818049D01*
X65023589Y-107046024D01*
X65023588Y-107046027D01*
X64944526Y-107289359D01*
X64904500Y-107542070D01*
X63550500Y-107542070D01*
X63550500Y-105881948D01*
X71050000Y-105881948D01*
X71050000Y-106118053D01*
X71086934Y-106351248D01*
X71159897Y-106575803D01*
X71267087Y-106786175D01*
X71327338Y-106869105D01*
X71327340Y-106869106D01*
X72026212Y-106170234D01*
X72037482Y-106212293D01*
X72109890Y-106337709D01*
X72212292Y-106440111D01*
X72337708Y-106512519D01*
X72379765Y-106523788D01*
X71680893Y-107222659D01*
X71763828Y-107282915D01*
X71974197Y-107390103D01*
X72198752Y-107463066D01*
X72198751Y-107463066D01*
X72431948Y-107500001D01*
X72668052Y-107500001D01*
X72901247Y-107463066D01*
X73125802Y-107390103D01*
X73336163Y-107282919D01*
X73336169Y-107282915D01*
X73419104Y-107222659D01*
X73419105Y-107222659D01*
X72720233Y-106523788D01*
X72762292Y-106512519D01*
X72887708Y-106440111D01*
X72990110Y-106337709D01*
X73062518Y-106212293D01*
X73073787Y-106170235D01*
X73772658Y-106869106D01*
X73772658Y-106869105D01*
X73832914Y-106786170D01*
X73832918Y-106786164D01*
X73940102Y-106575803D01*
X74013065Y-106351248D01*
X74050000Y-106118053D01*
X74050000Y-105881948D01*
X74013065Y-105648753D01*
X73940102Y-105424198D01*
X73832914Y-105213829D01*
X73772658Y-105130895D01*
X73772658Y-105130894D01*
X73073787Y-105829766D01*
X73062518Y-105787709D01*
X72990110Y-105662293D01*
X72887708Y-105559891D01*
X72762292Y-105487483D01*
X72720234Y-105476213D01*
X73419105Y-104777341D01*
X73419104Y-104777339D01*
X73336174Y-104717088D01*
X73125802Y-104609898D01*
X72901247Y-104536935D01*
X72901248Y-104536935D01*
X72668052Y-104500001D01*
X72431948Y-104500001D01*
X72198752Y-104536935D01*
X71974197Y-104609898D01*
X71763830Y-104717085D01*
X71680894Y-104777341D01*
X72379766Y-105476213D01*
X72337708Y-105487483D01*
X72212292Y-105559891D01*
X72109890Y-105662293D01*
X72037482Y-105787709D01*
X72026212Y-105829767D01*
X71327340Y-105130895D01*
X71267084Y-105213831D01*
X71159897Y-105424198D01*
X71086934Y-105648753D01*
X71050000Y-105881948D01*
X63550500Y-105881948D01*
X63550500Y-99381947D01*
X71049999Y-99381947D01*
X71049999Y-99618052D01*
X71086933Y-99851247D01*
X71159896Y-100075802D01*
X71267086Y-100286174D01*
X71327337Y-100369104D01*
X71327339Y-100369105D01*
X72026211Y-99670233D01*
X72037481Y-99712292D01*
X72109889Y-99837708D01*
X72212291Y-99940110D01*
X72337707Y-100012518D01*
X72379764Y-100023787D01*
X71680892Y-100722658D01*
X71763827Y-100782914D01*
X71974196Y-100890102D01*
X72198751Y-100963065D01*
X72198750Y-100963065D01*
X72431947Y-101000000D01*
X72668051Y-101000000D01*
X72901246Y-100963065D01*
X73125801Y-100890102D01*
X73336162Y-100782918D01*
X73336168Y-100782914D01*
X73419103Y-100722658D01*
X73419104Y-100722658D01*
X72720232Y-100023787D01*
X72762291Y-100012518D01*
X72887707Y-99940110D01*
X72990109Y-99837708D01*
X73062517Y-99712292D01*
X73073786Y-99670233D01*
X73772657Y-100369105D01*
X73772657Y-100369104D01*
X73832913Y-100286169D01*
X73832917Y-100286163D01*
X73940101Y-100075802D01*
X74013064Y-99851247D01*
X74049999Y-99618052D01*
X74049999Y-99381947D01*
X74013064Y-99148752D01*
X73940101Y-98924197D01*
X73832913Y-98713828D01*
X73772657Y-98630894D01*
X73772657Y-98630893D01*
X73073786Y-99329765D01*
X73062517Y-99287708D01*
X72990109Y-99162292D01*
X72887707Y-99059890D01*
X72762291Y-98987482D01*
X72720233Y-98976212D01*
X73419104Y-98277340D01*
X73419103Y-98277338D01*
X73336173Y-98217087D01*
X73125801Y-98109897D01*
X72901246Y-98036934D01*
X72901247Y-98036934D01*
X72668051Y-98000000D01*
X72431947Y-98000000D01*
X72198751Y-98036934D01*
X71974196Y-98109897D01*
X71763829Y-98217084D01*
X71680893Y-98277340D01*
X72379765Y-98976212D01*
X72337707Y-98987482D01*
X72212291Y-99059890D01*
X72109889Y-99162292D01*
X72037481Y-99287708D01*
X72026211Y-99329766D01*
X71327339Y-98630894D01*
X71267083Y-98713830D01*
X71159896Y-98924197D01*
X71086933Y-99148752D01*
X71049999Y-99381947D01*
X63550500Y-99381947D01*
X63550500Y-96419701D01*
X63570185Y-96352662D01*
X63622989Y-96306907D01*
X63692147Y-96296963D01*
X63755703Y-96325988D01*
X63774818Y-96346816D01*
X63827339Y-96419105D01*
X63827340Y-96419106D01*
X64526212Y-95720234D01*
X64537482Y-95762293D01*
X64609890Y-95887709D01*
X64712292Y-95990111D01*
X64837708Y-96062519D01*
X64879765Y-96073788D01*
X64180893Y-96772659D01*
X64263828Y-96832915D01*
X64474197Y-96940103D01*
X64698752Y-97013066D01*
X64698751Y-97013066D01*
X64931948Y-97050001D01*
X65168052Y-97050001D01*
X65401247Y-97013066D01*
X65625802Y-96940103D01*
X65836163Y-96832919D01*
X65836169Y-96832915D01*
X65919104Y-96772659D01*
X65919105Y-96772659D01*
X65220233Y-96073788D01*
X65262292Y-96062519D01*
X65387708Y-95990111D01*
X65490110Y-95887709D01*
X65562518Y-95762293D01*
X65573787Y-95720235D01*
X66272658Y-96419106D01*
X66272658Y-96419105D01*
X66332914Y-96336170D01*
X66332918Y-96336164D01*
X66440102Y-96125803D01*
X66513065Y-95901248D01*
X66550000Y-95668053D01*
X66550000Y-95431948D01*
X66513065Y-95198753D01*
X66440102Y-94974198D01*
X66332914Y-94763829D01*
X66272658Y-94680895D01*
X66272658Y-94680894D01*
X65573787Y-95379766D01*
X65562518Y-95337709D01*
X65490110Y-95212293D01*
X65387708Y-95109891D01*
X65262292Y-95037483D01*
X65220234Y-95026213D01*
X65919105Y-94327341D01*
X65919104Y-94327339D01*
X65836174Y-94267088D01*
X65625802Y-94159898D01*
X65401247Y-94086935D01*
X65401248Y-94086935D01*
X65168052Y-94050001D01*
X64931948Y-94050001D01*
X64698752Y-94086935D01*
X64474197Y-94159898D01*
X64263830Y-94267085D01*
X64180894Y-94327341D01*
X64879766Y-95026213D01*
X64837708Y-95037483D01*
X64712292Y-95109891D01*
X64609890Y-95212293D01*
X64537482Y-95337709D01*
X64526212Y-95379767D01*
X63827340Y-94680895D01*
X63827339Y-94680895D01*
X63774818Y-94753186D01*
X63719489Y-94795852D01*
X63649875Y-94801831D01*
X63588080Y-94769226D01*
X63553723Y-94708387D01*
X63550500Y-94680301D01*
X63550500Y-89919701D01*
X63570185Y-89852662D01*
X63622989Y-89806907D01*
X63692147Y-89796963D01*
X63755703Y-89825988D01*
X63774819Y-89846816D01*
X63827339Y-89919105D01*
X64526211Y-89220233D01*
X64537481Y-89262292D01*
X64609889Y-89387708D01*
X64712291Y-89490110D01*
X64837707Y-89562518D01*
X64879764Y-89573787D01*
X64180892Y-90272658D01*
X64263827Y-90332914D01*
X64474196Y-90440102D01*
X64698751Y-90513065D01*
X64698750Y-90513065D01*
X64931947Y-90550000D01*
X65168051Y-90550000D01*
X65401246Y-90513065D01*
X65625801Y-90440102D01*
X65836162Y-90332918D01*
X65836168Y-90332914D01*
X65919103Y-90272658D01*
X65919104Y-90272658D01*
X65220232Y-89573787D01*
X65262291Y-89562518D01*
X65387707Y-89490110D01*
X65490109Y-89387708D01*
X65562517Y-89262292D01*
X65573786Y-89220234D01*
X66272657Y-89919105D01*
X66272657Y-89919104D01*
X66332913Y-89836169D01*
X66332917Y-89836163D01*
X66440101Y-89625802D01*
X66513064Y-89401247D01*
X66549999Y-89168052D01*
X66549999Y-88931947D01*
X66513064Y-88698752D01*
X66440101Y-88474197D01*
X66332913Y-88263828D01*
X66272657Y-88180894D01*
X66272657Y-88180893D01*
X65573786Y-88879765D01*
X65562517Y-88837708D01*
X65490109Y-88712292D01*
X65387707Y-88609890D01*
X65262291Y-88537482D01*
X65220233Y-88526212D01*
X65919104Y-87827340D01*
X65919103Y-87827338D01*
X65836173Y-87767087D01*
X65625801Y-87659897D01*
X65401246Y-87586934D01*
X65401247Y-87586934D01*
X65168051Y-87550000D01*
X64931947Y-87550000D01*
X64698751Y-87586934D01*
X64474196Y-87659897D01*
X64263829Y-87767084D01*
X64180893Y-87827340D01*
X64879765Y-88526212D01*
X64837707Y-88537482D01*
X64712291Y-88609890D01*
X64609889Y-88712292D01*
X64537481Y-88837708D01*
X64526211Y-88879766D01*
X63827339Y-88180894D01*
X63827338Y-88180894D01*
X63774818Y-88253183D01*
X63719488Y-88295849D01*
X63649875Y-88301828D01*
X63588080Y-88269223D01*
X63553723Y-88208384D01*
X63550500Y-88180298D01*
X63550500Y-85938521D01*
X63570185Y-85871482D01*
X63622989Y-85825727D01*
X63692147Y-85815783D01*
X63755703Y-85844808D01*
X63774818Y-85865636D01*
X63777339Y-85869105D01*
X63777340Y-85869106D01*
X64476212Y-85170234D01*
X64487482Y-85212293D01*
X64559890Y-85337709D01*
X64662292Y-85440111D01*
X64787708Y-85512519D01*
X64829765Y-85523788D01*
X64130893Y-86222659D01*
X64213828Y-86282915D01*
X64424197Y-86390103D01*
X64648752Y-86463066D01*
X64648751Y-86463066D01*
X64881948Y-86500001D01*
X65118052Y-86500001D01*
X65351247Y-86463066D01*
X65575802Y-86390103D01*
X65786163Y-86282919D01*
X65786169Y-86282915D01*
X65869104Y-86222659D01*
X65869105Y-86222659D01*
X65170233Y-85523788D01*
X65212292Y-85512519D01*
X65337708Y-85440111D01*
X65440110Y-85337709D01*
X65512518Y-85212293D01*
X65523787Y-85170234D01*
X66222658Y-85869106D01*
X66222658Y-85869105D01*
X66282914Y-85786170D01*
X66282918Y-85786164D01*
X66390102Y-85575803D01*
X66463065Y-85351248D01*
X66500000Y-85118053D01*
X66500000Y-84881948D01*
X66463065Y-84648753D01*
X66390102Y-84424198D01*
X66282914Y-84213829D01*
X66222658Y-84130895D01*
X66222658Y-84130894D01*
X65523787Y-84829766D01*
X65512518Y-84787709D01*
X65440110Y-84662293D01*
X65337708Y-84559891D01*
X65212292Y-84487483D01*
X65170234Y-84476213D01*
X65869105Y-83777341D01*
X65869104Y-83777339D01*
X65786174Y-83717088D01*
X65575802Y-83609898D01*
X65351247Y-83536935D01*
X65351248Y-83536935D01*
X65118052Y-83500001D01*
X64881948Y-83500001D01*
X64648752Y-83536935D01*
X64424197Y-83609898D01*
X64213830Y-83717085D01*
X64130894Y-83777341D01*
X64829766Y-84476213D01*
X64787708Y-84487483D01*
X64662292Y-84559891D01*
X64559890Y-84662293D01*
X64487482Y-84787709D01*
X64476212Y-84829767D01*
X63777340Y-84130895D01*
X63777339Y-84130895D01*
X63774818Y-84134366D01*
X63749836Y-84153630D01*
X63726011Y-84174275D01*
X63722388Y-84174795D01*
X63719489Y-84177032D01*
X63688068Y-84179730D01*
X63656853Y-84184219D01*
X63653521Y-84182697D01*
X63649875Y-84183011D01*
X63621984Y-84168295D01*
X63593297Y-84155194D01*
X63591317Y-84152114D01*
X63588080Y-84150406D01*
X63572573Y-84122947D01*
X63555523Y-84096416D01*
X63554816Y-84091503D01*
X63553723Y-84089567D01*
X63550500Y-84061481D01*
X63550500Y-79438521D01*
X63570185Y-79371482D01*
X63622989Y-79325727D01*
X63692147Y-79315783D01*
X63755703Y-79344808D01*
X63774819Y-79365636D01*
X63777339Y-79369105D01*
X64476211Y-78670233D01*
X64487481Y-78712292D01*
X64559889Y-78837708D01*
X64662291Y-78940110D01*
X64787707Y-79012518D01*
X64829764Y-79023787D01*
X64130892Y-79722658D01*
X64213827Y-79782914D01*
X64424196Y-79890102D01*
X64648751Y-79963065D01*
X64648750Y-79963065D01*
X64881947Y-80000000D01*
X65118051Y-80000000D01*
X65351246Y-79963065D01*
X65575801Y-79890102D01*
X65786162Y-79782918D01*
X65786168Y-79782914D01*
X65869103Y-79722658D01*
X65869104Y-79722658D01*
X65170232Y-79023787D01*
X65212291Y-79012518D01*
X65337707Y-78940110D01*
X65440109Y-78837708D01*
X65512517Y-78712292D01*
X65523786Y-78670233D01*
X66222657Y-79369105D01*
X66222657Y-79369104D01*
X66282913Y-79286169D01*
X66282917Y-79286163D01*
X66390101Y-79075802D01*
X66463064Y-78851247D01*
X66499999Y-78618052D01*
X66499999Y-78381947D01*
X66499992Y-78381902D01*
X67999500Y-78381902D01*
X67999500Y-78618097D01*
X68036446Y-78851368D01*
X68109433Y-79075996D01*
X68193480Y-79240946D01*
X68216657Y-79286433D01*
X68355483Y-79477510D01*
X68522490Y-79644517D01*
X68713567Y-79783343D01*
X68812424Y-79833713D01*
X68924003Y-79890566D01*
X68924005Y-79890566D01*
X68924008Y-79890568D01*
X69044412Y-79929689D01*
X69148631Y-79963553D01*
X69381903Y-80000500D01*
X69381908Y-80000500D01*
X69618097Y-80000500D01*
X69851368Y-79963553D01*
X69852870Y-79963065D01*
X70075992Y-79890568D01*
X70286433Y-79783343D01*
X70477510Y-79644517D01*
X70644517Y-79477510D01*
X70783343Y-79286433D01*
X70889796Y-79077506D01*
X70937769Y-79026712D01*
X71005590Y-79009917D01*
X71071725Y-79032454D01*
X71110765Y-79077508D01*
X71217086Y-79286174D01*
X71277337Y-79369104D01*
X71277339Y-79369105D01*
X71976211Y-78670233D01*
X71987481Y-78712292D01*
X72059889Y-78837708D01*
X72162291Y-78940110D01*
X72287707Y-79012518D01*
X72329764Y-79023787D01*
X71630892Y-79722658D01*
X71713827Y-79782914D01*
X71924196Y-79890102D01*
X72148751Y-79963065D01*
X72148750Y-79963065D01*
X72381947Y-80000000D01*
X72618051Y-80000000D01*
X72851246Y-79963065D01*
X73075801Y-79890102D01*
X73286162Y-79782918D01*
X73286168Y-79782914D01*
X73369103Y-79722658D01*
X73369104Y-79722658D01*
X72670232Y-79023787D01*
X72712291Y-79012518D01*
X72837707Y-78940110D01*
X72940109Y-78837708D01*
X73012517Y-78712292D01*
X73023786Y-78670234D01*
X73722657Y-79369105D01*
X73722657Y-79369104D01*
X73782913Y-79286169D01*
X73782917Y-79286163D01*
X73890101Y-79075802D01*
X73963064Y-78851247D01*
X73999999Y-78618052D01*
X73999999Y-78381947D01*
X73963064Y-78148752D01*
X73890101Y-77924197D01*
X73782913Y-77713828D01*
X73722657Y-77630894D01*
X73722657Y-77630893D01*
X73023786Y-78329765D01*
X73012517Y-78287708D01*
X72940109Y-78162292D01*
X72837707Y-78059890D01*
X72712291Y-77987482D01*
X72670233Y-77976212D01*
X73369104Y-77277340D01*
X73369103Y-77277338D01*
X73286173Y-77217087D01*
X73075801Y-77109897D01*
X72851246Y-77036934D01*
X72851247Y-77036934D01*
X72618051Y-77000000D01*
X72381947Y-77000000D01*
X72148751Y-77036934D01*
X71924196Y-77109897D01*
X71713829Y-77217084D01*
X71630893Y-77277340D01*
X72329765Y-77976212D01*
X72287707Y-77987482D01*
X72162291Y-78059890D01*
X72059889Y-78162292D01*
X71987481Y-78287708D01*
X71976211Y-78329766D01*
X71277339Y-77630894D01*
X71217083Y-77713830D01*
X71110765Y-77922491D01*
X71062790Y-77973287D01*
X70994969Y-77990082D01*
X70928834Y-77967544D01*
X70889795Y-77922491D01*
X70798674Y-77743656D01*
X70783343Y-77713567D01*
X70644517Y-77522490D01*
X70477510Y-77355483D01*
X70286433Y-77216657D01*
X70258417Y-77202382D01*
X70075996Y-77109433D01*
X69851368Y-77036446D01*
X69618097Y-76999500D01*
X69618092Y-76999500D01*
X69381908Y-76999500D01*
X69381903Y-76999500D01*
X69148631Y-77036446D01*
X68924003Y-77109433D01*
X68713566Y-77216657D01*
X68634641Y-77274000D01*
X68522490Y-77355483D01*
X68522488Y-77355485D01*
X68522487Y-77355485D01*
X68355485Y-77522487D01*
X68355485Y-77522488D01*
X68355483Y-77522490D01*
X68304259Y-77592993D01*
X68216657Y-77713566D01*
X68109433Y-77924003D01*
X68036446Y-78148631D01*
X67999500Y-78381902D01*
X66499992Y-78381902D01*
X66463064Y-78148752D01*
X66390101Y-77924197D01*
X66282913Y-77713828D01*
X66222657Y-77630894D01*
X66222657Y-77630893D01*
X65523786Y-78329765D01*
X65512517Y-78287708D01*
X65440109Y-78162292D01*
X65337707Y-78059890D01*
X65212291Y-77987482D01*
X65170233Y-77976212D01*
X65869104Y-77277340D01*
X65869103Y-77277338D01*
X65786173Y-77217087D01*
X65575801Y-77109897D01*
X65351246Y-77036934D01*
X65351247Y-77036934D01*
X65118051Y-77000000D01*
X64881947Y-77000000D01*
X64648751Y-77036934D01*
X64424196Y-77109897D01*
X64213829Y-77217084D01*
X64130893Y-77277340D01*
X64829765Y-77976212D01*
X64787707Y-77987482D01*
X64662291Y-78059890D01*
X64559889Y-78162292D01*
X64487481Y-78287708D01*
X64476211Y-78329766D01*
X63777339Y-77630894D01*
X63777338Y-77630894D01*
X63774818Y-77634364D01*
X63719488Y-77677029D01*
X63649874Y-77683008D01*
X63588079Y-77650402D01*
X63553722Y-77589563D01*
X63550500Y-77561478D01*
X63550500Y-74299984D01*
X63899500Y-74299984D01*
X63899500Y-75400015D01*
X63910000Y-75502795D01*
X63910001Y-75502797D01*
X63931546Y-75567816D01*
X63965186Y-75669335D01*
X63965187Y-75669337D01*
X64057286Y-75818651D01*
X64057289Y-75818655D01*
X64181344Y-75942710D01*
X64181348Y-75942713D01*
X64330662Y-76034812D01*
X64330664Y-76034813D01*
X64330666Y-76034814D01*
X64497203Y-76089999D01*
X64599992Y-76100500D01*
X64599997Y-76100500D01*
X67600003Y-76100500D01*
X67600008Y-76100500D01*
X67702797Y-76089999D01*
X67869334Y-76034814D01*
X68018655Y-75942711D01*
X68142711Y-75818655D01*
X68234814Y-75669334D01*
X68289999Y-75502797D01*
X68300500Y-75400008D01*
X68300500Y-74299992D01*
X68289999Y-74197203D01*
X68234814Y-74030666D01*
X68142711Y-73881345D01*
X68018655Y-73757289D01*
X68018651Y-73757286D01*
X67869337Y-73665187D01*
X67869335Y-73665186D01*
X67772016Y-73632938D01*
X67702797Y-73610001D01*
X67702795Y-73610000D01*
X67600015Y-73599500D01*
X67600008Y-73599500D01*
X64599992Y-73599500D01*
X64599984Y-73599500D01*
X64497204Y-73610000D01*
X64497203Y-73610001D01*
X64330664Y-73665186D01*
X64330662Y-73665187D01*
X64181348Y-73757286D01*
X64181344Y-73757289D01*
X64057289Y-73881344D01*
X64057286Y-73881348D01*
X63965187Y-74030662D01*
X63965186Y-74030664D01*
X63910001Y-74197203D01*
X63910000Y-74197204D01*
X63899500Y-74299984D01*
X63550500Y-74299984D01*
X63550500Y-70200013D01*
X69600000Y-70200013D01*
X69600000Y-70250000D01*
X71600000Y-70250000D01*
X72100000Y-70250000D01*
X74099999Y-70250000D01*
X74099999Y-70200028D01*
X74099998Y-70200013D01*
X74089505Y-70097302D01*
X74034358Y-69930880D01*
X74034356Y-69930875D01*
X73942315Y-69781654D01*
X73818345Y-69657684D01*
X73669124Y-69565643D01*
X73669119Y-69565641D01*
X73502697Y-69510494D01*
X73502690Y-69510493D01*
X73399986Y-69500000D01*
X72100000Y-69500000D01*
X72100000Y-70250000D01*
X71600000Y-70250000D01*
X71600000Y-69500000D01*
X70300028Y-69500000D01*
X70300012Y-69500001D01*
X70197302Y-69510494D01*
X70030880Y-69565641D01*
X70030875Y-69565643D01*
X69881654Y-69657684D01*
X69757684Y-69781654D01*
X69665643Y-69930875D01*
X69665641Y-69930880D01*
X69610494Y-70097302D01*
X69610493Y-70097309D01*
X69600000Y-70200013D01*
X63550500Y-70200013D01*
X63550500Y-67599984D01*
X63899500Y-67599984D01*
X63899500Y-68700015D01*
X63910000Y-68802795D01*
X63910001Y-68802797D01*
X63929088Y-68860398D01*
X63965186Y-68969335D01*
X63965187Y-68969337D01*
X64057286Y-69118651D01*
X64057289Y-69118655D01*
X64181344Y-69242710D01*
X64181348Y-69242713D01*
X64330662Y-69334812D01*
X64330664Y-69334813D01*
X64330666Y-69334814D01*
X64497203Y-69389999D01*
X64599992Y-69400500D01*
X64599997Y-69400500D01*
X67600003Y-69400500D01*
X67600008Y-69400500D01*
X67702797Y-69389999D01*
X67869334Y-69334814D01*
X68018655Y-69242711D01*
X68142711Y-69118655D01*
X68234814Y-68969334D01*
X68289999Y-68802797D01*
X68300500Y-68700008D01*
X68300500Y-67599992D01*
X68289999Y-67497203D01*
X68234814Y-67330666D01*
X68208022Y-67287230D01*
X68142713Y-67181348D01*
X68142710Y-67181344D01*
X68018655Y-67057289D01*
X68018651Y-67057286D01*
X67869337Y-66965187D01*
X67869335Y-66965186D01*
X67786065Y-66937593D01*
X67702797Y-66910001D01*
X67702795Y-66910000D01*
X67600015Y-66899500D01*
X67600008Y-66899500D01*
X67275523Y-66899500D01*
X67254277Y-66893261D01*
X67232189Y-66891682D01*
X67221405Y-66883609D01*
X67208484Y-66879815D01*
X67193984Y-66863081D01*
X67176256Y-66849810D01*
X67171548Y-66837189D01*
X67162729Y-66827011D01*
X67159577Y-66805093D01*
X67152293Y-66785563D01*
X68722986Y-66785563D01*
X68722986Y-66785565D01*
X68785873Y-66824355D01*
X68785879Y-66824358D01*
X68952302Y-66879505D01*
X68952309Y-66879506D01*
X69055019Y-66889999D01*
X70654971Y-66889999D01*
X70654987Y-66889998D01*
X70757697Y-66879505D01*
X70924120Y-66824358D01*
X70987012Y-66785564D01*
X70987013Y-66785564D01*
X69855000Y-65653552D01*
X68722986Y-66785563D01*
X67152293Y-66785563D01*
X67151839Y-66784346D01*
X67154701Y-66771185D01*
X67152785Y-66757853D01*
X67161984Y-66737709D01*
X67166691Y-66716073D01*
X67179959Y-66698347D01*
X67181810Y-66694297D01*
X67187842Y-66687819D01*
X67223009Y-66652652D01*
X67267315Y-66608345D01*
X67359356Y-66459124D01*
X67359358Y-66459119D01*
X67414505Y-66292697D01*
X67414506Y-66292690D01*
X67424999Y-66189986D01*
X67424999Y-64410029D01*
X67424998Y-64410013D01*
X68355000Y-64410013D01*
X68355000Y-66189971D01*
X68355001Y-66189987D01*
X68365494Y-66292696D01*
X68365495Y-66292702D01*
X68401148Y-66400298D01*
X68401149Y-66400298D01*
X69501448Y-65300000D01*
X69501448Y-65299999D01*
X68401148Y-64199700D01*
X68365494Y-64307300D01*
X68355000Y-64410013D01*
X67424998Y-64410013D01*
X67424998Y-64410012D01*
X67414505Y-64307302D01*
X67378849Y-64199700D01*
X66101776Y-65476776D01*
X64784496Y-66794053D01*
X64778357Y-66829977D01*
X64731221Y-66881552D01*
X64666965Y-66899500D01*
X64599984Y-66899500D01*
X64497204Y-66910000D01*
X64497203Y-66910001D01*
X64330664Y-66965186D01*
X64330662Y-66965187D01*
X64181348Y-67057286D01*
X64181344Y-67057289D01*
X64057289Y-67181344D01*
X64057286Y-67181348D01*
X63965187Y-67330662D01*
X63965186Y-67330664D01*
X63910001Y-67497203D01*
X63910000Y-67497204D01*
X63899500Y-67599984D01*
X63550500Y-67599984D01*
X63550500Y-64410013D01*
X64425000Y-64410013D01*
X64425000Y-66189971D01*
X64425001Y-66189987D01*
X64435494Y-66292696D01*
X64435495Y-66292702D01*
X64471148Y-66400298D01*
X64471149Y-66400298D01*
X65571448Y-65300000D01*
X65571448Y-65299999D01*
X64471149Y-64199700D01*
X64471148Y-64199700D01*
X64435494Y-64307300D01*
X64425000Y-64410013D01*
X63550500Y-64410013D01*
X63550500Y-63814434D01*
X64792986Y-63814434D01*
X65925000Y-64946448D01*
X65925001Y-64946448D01*
X67057012Y-63814435D01*
X67057012Y-63814434D01*
X66994126Y-63775644D01*
X66994119Y-63775641D01*
X66827697Y-63720494D01*
X66827690Y-63720493D01*
X66724980Y-63710000D01*
X65125028Y-63710000D01*
X65125012Y-63710001D01*
X65022302Y-63720494D01*
X64855880Y-63775641D01*
X64855875Y-63775643D01*
X64792986Y-63814434D01*
X63550500Y-63814434D01*
X63550500Y-56565563D01*
X64792986Y-56565563D01*
X64792986Y-56565565D01*
X64855873Y-56604355D01*
X64855879Y-56604358D01*
X65022302Y-56659505D01*
X65022309Y-56659506D01*
X65125019Y-56669999D01*
X66724971Y-56669999D01*
X66724987Y-56669998D01*
X66827697Y-56659505D01*
X66994120Y-56604358D01*
X67057012Y-56565564D01*
X67057013Y-56565564D01*
X65925000Y-55433552D01*
X64792986Y-56565563D01*
X63550500Y-56565563D01*
X63550500Y-54190013D01*
X64425000Y-54190013D01*
X64425000Y-55969971D01*
X64425001Y-55969987D01*
X64435494Y-56072696D01*
X64435495Y-56072702D01*
X64471148Y-56180298D01*
X64471149Y-56180298D01*
X65571448Y-55080000D01*
X65571448Y-55079999D01*
X66278552Y-55079999D01*
X66278552Y-55080000D01*
X67378849Y-56180298D01*
X67414505Y-56072697D01*
X67414506Y-56072690D01*
X67424999Y-55969986D01*
X67424999Y-54190029D01*
X67424998Y-54190013D01*
X68355000Y-54190013D01*
X68355000Y-55969971D01*
X68355001Y-55969987D01*
X68365494Y-56072696D01*
X68365495Y-56072702D01*
X68401148Y-56180298D01*
X68401149Y-56180298D01*
X69501448Y-55080000D01*
X69501448Y-55079999D01*
X68401149Y-53979700D01*
X68401148Y-53979700D01*
X68365494Y-54087300D01*
X68355000Y-54190013D01*
X67424998Y-54190013D01*
X67424998Y-54190012D01*
X67414505Y-54087302D01*
X67378849Y-53979700D01*
X66278552Y-55079999D01*
X65571448Y-55079999D01*
X64471149Y-53979700D01*
X64471148Y-53979700D01*
X64435494Y-54087300D01*
X64425000Y-54190013D01*
X63550500Y-54190013D01*
X63550500Y-53594434D01*
X64792986Y-53594434D01*
X65925000Y-54726448D01*
X65925001Y-54726448D01*
X67057012Y-53594435D01*
X67057012Y-53594434D01*
X66994126Y-53555644D01*
X66994119Y-53555641D01*
X66827697Y-53500494D01*
X66827690Y-53500493D01*
X66724980Y-53490000D01*
X65125028Y-53490000D01*
X65125012Y-53490001D01*
X65022302Y-53500494D01*
X64855880Y-53555641D01*
X64855875Y-53555643D01*
X64792986Y-53594434D01*
X63550500Y-53594434D01*
X63550500Y-49653246D01*
X63550670Y-49646756D01*
X63556157Y-49542070D01*
X64904500Y-49542070D01*
X64904500Y-49797930D01*
X64915270Y-49865925D01*
X64944526Y-50050640D01*
X65023588Y-50293972D01*
X65023589Y-50293975D01*
X65139750Y-50521950D01*
X65290132Y-50728935D01*
X65290136Y-50728940D01*
X65471059Y-50909863D01*
X65471064Y-50909867D01*
X65651607Y-51041038D01*
X65678053Y-51060252D01*
X65827080Y-51136185D01*
X65906024Y-51176410D01*
X65906027Y-51176411D01*
X66027693Y-51215942D01*
X66149361Y-51255474D01*
X66402070Y-51295500D01*
X66402071Y-51295500D01*
X66657929Y-51295500D01*
X66657930Y-51295500D01*
X66910639Y-51255474D01*
X67153975Y-51176410D01*
X67381947Y-51060252D01*
X67588942Y-50909862D01*
X67769862Y-50728942D01*
X67920252Y-50521947D01*
X68036410Y-50293975D01*
X68115474Y-50050639D01*
X68155500Y-49797930D01*
X68155500Y-49542070D01*
X68115474Y-49289361D01*
X68048670Y-49083757D01*
X68036411Y-49046027D01*
X68036410Y-49046024D01*
X67979368Y-48934075D01*
X67920252Y-48818053D01*
X67875417Y-48756343D01*
X67769867Y-48611064D01*
X67769863Y-48611059D01*
X67588940Y-48430136D01*
X67588935Y-48430132D01*
X67381950Y-48279750D01*
X67381949Y-48279749D01*
X67381947Y-48279748D01*
X67308910Y-48242533D01*
X67153975Y-48163589D01*
X67153972Y-48163588D01*
X66910640Y-48084526D01*
X66784284Y-48064513D01*
X66657930Y-48044500D01*
X66402070Y-48044500D01*
X66317833Y-48057842D01*
X66149359Y-48084526D01*
X65906027Y-48163588D01*
X65906024Y-48163589D01*
X65678049Y-48279750D01*
X65471064Y-48430132D01*
X65471059Y-48430136D01*
X65290136Y-48611059D01*
X65290132Y-48611064D01*
X65139750Y-48818049D01*
X65023589Y-49046024D01*
X65023588Y-49046027D01*
X64944526Y-49289359D01*
X64927002Y-49400000D01*
X64904500Y-49542070D01*
X63556157Y-49542070D01*
X63556752Y-49530708D01*
X63566592Y-49342953D01*
X63567949Y-49330046D01*
X63606956Y-49083760D01*
X63615029Y-49032786D01*
X63617723Y-49020107D01*
X63695627Y-48729368D01*
X63699636Y-48717033D01*
X63807493Y-48436054D01*
X63812763Y-48424215D01*
X63949415Y-48156023D01*
X63955891Y-48144808D01*
X64119819Y-47892380D01*
X64127434Y-47881899D01*
X64316858Y-47647979D01*
X64325525Y-47638354D01*
X64538354Y-47425525D01*
X64547979Y-47416858D01*
X64781899Y-47227434D01*
X64792380Y-47219819D01*
X65044808Y-47055891D01*
X65056023Y-47049415D01*
X65324215Y-46912763D01*
X65336054Y-46907493D01*
X65617040Y-46799633D01*
X65629368Y-46795627D01*
X65920107Y-46717723D01*
X65932786Y-46715029D01*
X66230046Y-46667949D01*
X66242951Y-46666592D01*
X66546756Y-46650669D01*
X66553246Y-46650500D01*
X66615892Y-46650500D01*
X72611729Y-46650500D01*
X72678768Y-46670185D01*
G37*
%TD.AperFunction*%
%TA.AperFunction,Conductor*%
G36*
X87078028Y-83232041D02*
G01*
X87083391Y-83230955D01*
X87111198Y-83241781D01*
X87139818Y-83250185D01*
X87144751Y-83254844D01*
X87148500Y-83256304D01*
X87173097Y-83281615D01*
X87229892Y-83359788D01*
X87380213Y-83510109D01*
X87552179Y-83635048D01*
X87552181Y-83635049D01*
X87552184Y-83635051D01*
X87561493Y-83639794D01*
X87612290Y-83687766D01*
X87629087Y-83755587D01*
X87606552Y-83821722D01*
X87561502Y-83860762D01*
X87552443Y-83865378D01*
X87380540Y-83990272D01*
X87380535Y-83990276D01*
X87230276Y-84140535D01*
X87230272Y-84140540D01*
X87105379Y-84312442D01*
X87008904Y-84501782D01*
X86943242Y-84703870D01*
X86943242Y-84703873D01*
X86932769Y-84770000D01*
X87826988Y-84770000D01*
X87794075Y-84827007D01*
X87760000Y-84954174D01*
X87760000Y-85085826D01*
X87794075Y-85212993D01*
X87826988Y-85270000D01*
X86932769Y-85270000D01*
X86943242Y-85336126D01*
X86943242Y-85336129D01*
X87008904Y-85538217D01*
X87105379Y-85727557D01*
X87230272Y-85899459D01*
X87230276Y-85899464D01*
X87380535Y-86049723D01*
X87380540Y-86049727D01*
X87552444Y-86174622D01*
X87561495Y-86179234D01*
X87612292Y-86227208D01*
X87629087Y-86295029D01*
X87606550Y-86361164D01*
X87561499Y-86400202D01*
X87552182Y-86404949D01*
X87380213Y-86529890D01*
X87229890Y-86680213D01*
X87104951Y-86852179D01*
X87008444Y-87041585D01*
X86942753Y-87243760D01*
X86909500Y-87453713D01*
X86909500Y-87666286D01*
X86925320Y-87766173D01*
X86942754Y-87876243D01*
X87006518Y-88072488D01*
X87008444Y-88078414D01*
X87104951Y-88267820D01*
X87229890Y-88439786D01*
X87380213Y-88590109D01*
X87552182Y-88715050D01*
X87560946Y-88719516D01*
X87611742Y-88767491D01*
X87628536Y-88835312D01*
X87605998Y-88901447D01*
X87560946Y-88940484D01*
X87552182Y-88944949D01*
X87380213Y-89069890D01*
X87229890Y-89220213D01*
X87104951Y-89392179D01*
X87008444Y-89581585D01*
X86942753Y-89783760D01*
X86909500Y-89993713D01*
X86909500Y-90206286D01*
X86932523Y-90351651D01*
X86942754Y-90416243D01*
X86986214Y-90550000D01*
X87008444Y-90618414D01*
X87104951Y-90807820D01*
X87229890Y-90979786D01*
X87380213Y-91130109D01*
X87552182Y-91255050D01*
X87560946Y-91259516D01*
X87611742Y-91307491D01*
X87628536Y-91375312D01*
X87605998Y-91441447D01*
X87560946Y-91480484D01*
X87552182Y-91484949D01*
X87380213Y-91609890D01*
X87229890Y-91760213D01*
X87104951Y-91932179D01*
X87008444Y-92121585D01*
X86942753Y-92323760D01*
X86909500Y-92533713D01*
X86909500Y-92746286D01*
X86942753Y-92956239D01*
X87008444Y-93158414D01*
X87104951Y-93347820D01*
X87229890Y-93519786D01*
X87380213Y-93670109D01*
X87552182Y-93795050D01*
X87560946Y-93799516D01*
X87611742Y-93847491D01*
X87628536Y-93915312D01*
X87605998Y-93981447D01*
X87560946Y-94020484D01*
X87552182Y-94024949D01*
X87380213Y-94149890D01*
X87229890Y-94300213D01*
X87104951Y-94472179D01*
X87008444Y-94661585D01*
X86942753Y-94863760D01*
X86909500Y-95073713D01*
X86909500Y-95286286D01*
X86939799Y-95477591D01*
X86942754Y-95496243D01*
X86998591Y-95668092D01*
X87008444Y-95698414D01*
X87104951Y-95887820D01*
X87229890Y-96059786D01*
X87380213Y-96210109D01*
X87552182Y-96335050D01*
X87560946Y-96339516D01*
X87611742Y-96387491D01*
X87628536Y-96455312D01*
X87605998Y-96521447D01*
X87560946Y-96560484D01*
X87552182Y-96564949D01*
X87380213Y-96689890D01*
X87229892Y-96840211D01*
X87173097Y-96918385D01*
X87117767Y-96961051D01*
X87072779Y-96969500D01*
X85529810Y-96969500D01*
X85462771Y-96949815D01*
X85417016Y-96897011D01*
X85407072Y-96827853D01*
X85416363Y-96807507D01*
X85419106Y-96772658D01*
X84720234Y-96073787D01*
X84762293Y-96062518D01*
X84887709Y-95990110D01*
X84990111Y-95887708D01*
X85062519Y-95762292D01*
X85073788Y-95720233D01*
X85772659Y-96419105D01*
X85772659Y-96419104D01*
X85832915Y-96336169D01*
X85832919Y-96336163D01*
X85940103Y-96125802D01*
X86013066Y-95901247D01*
X86050001Y-95668052D01*
X86050001Y-95431947D01*
X86013066Y-95198752D01*
X85940103Y-94974197D01*
X85832915Y-94763828D01*
X85772659Y-94680894D01*
X85772659Y-94680893D01*
X85073788Y-95379765D01*
X85062519Y-95337708D01*
X84990111Y-95212292D01*
X84887709Y-95109890D01*
X84762293Y-95037482D01*
X84720235Y-95026212D01*
X85419106Y-94327340D01*
X85419105Y-94327338D01*
X85336175Y-94267087D01*
X85125803Y-94159897D01*
X84901248Y-94086934D01*
X84901249Y-94086934D01*
X84668053Y-94050000D01*
X84431949Y-94050000D01*
X84198753Y-94086934D01*
X83974198Y-94159897D01*
X83763831Y-94267084D01*
X83680895Y-94327340D01*
X84379767Y-95026212D01*
X84337709Y-95037482D01*
X84212293Y-95109890D01*
X84109891Y-95212292D01*
X84037483Y-95337708D01*
X84026213Y-95379766D01*
X83327341Y-94680894D01*
X83267085Y-94763830D01*
X83159898Y-94974197D01*
X83086935Y-95198752D01*
X83050001Y-95431947D01*
X83050001Y-95668052D01*
X83086935Y-95901247D01*
X83159898Y-96125802D01*
X83267088Y-96336174D01*
X83327339Y-96419104D01*
X83327341Y-96419105D01*
X84026213Y-95720233D01*
X84037483Y-95762292D01*
X84109891Y-95887708D01*
X84212293Y-95990110D01*
X84337709Y-96062518D01*
X84379766Y-96073787D01*
X83680894Y-96772658D01*
X83682785Y-96796677D01*
X83685742Y-96800512D01*
X83691721Y-96870125D01*
X83659116Y-96931920D01*
X83598277Y-96966277D01*
X83570191Y-96969500D01*
X81030661Y-96969500D01*
X80963622Y-96949815D01*
X80917867Y-96897011D01*
X80907923Y-96827853D01*
X80936948Y-96764297D01*
X80957771Y-96745184D01*
X81027510Y-96694517D01*
X81194517Y-96527510D01*
X81333343Y-96336433D01*
X81440568Y-96125992D01*
X81513553Y-95901368D01*
X81527880Y-95810911D01*
X81550500Y-95668097D01*
X81550500Y-95431902D01*
X81513553Y-95198631D01*
X81454535Y-95016995D01*
X81440568Y-94974008D01*
X81440566Y-94974005D01*
X81440566Y-94974003D01*
X81349793Y-94795852D01*
X81333343Y-94763567D01*
X81194517Y-94572490D01*
X81027510Y-94405483D01*
X80976879Y-94368697D01*
X80851614Y-94277686D01*
X80808949Y-94222355D01*
X80800500Y-94177368D01*
X80800500Y-90422631D01*
X80820185Y-90355592D01*
X80851614Y-90322313D01*
X81027510Y-90194517D01*
X81194517Y-90027510D01*
X81333343Y-89836433D01*
X81440568Y-89625992D01*
X81513553Y-89401368D01*
X81515717Y-89387707D01*
X81550500Y-89168097D01*
X81550500Y-88936625D01*
X81550500Y-88931946D01*
X83050000Y-88931946D01*
X83050000Y-89168051D01*
X83086934Y-89401246D01*
X83159897Y-89625801D01*
X83267087Y-89836173D01*
X83327338Y-89919103D01*
X83327340Y-89919104D01*
X84026212Y-89220232D01*
X84037482Y-89262291D01*
X84109890Y-89387707D01*
X84212292Y-89490109D01*
X84337708Y-89562517D01*
X84379765Y-89573786D01*
X83680893Y-90272657D01*
X83763828Y-90332913D01*
X83974197Y-90440101D01*
X84198752Y-90513064D01*
X84198751Y-90513064D01*
X84431948Y-90549999D01*
X84668052Y-90549999D01*
X84901247Y-90513064D01*
X85125802Y-90440101D01*
X85336163Y-90332917D01*
X85336169Y-90332913D01*
X85419104Y-90272657D01*
X85419105Y-90272657D01*
X84720233Y-89573786D01*
X84762292Y-89562517D01*
X84887708Y-89490109D01*
X84990110Y-89387707D01*
X85062518Y-89262291D01*
X85073787Y-89220233D01*
X85772658Y-89919104D01*
X85772658Y-89919103D01*
X85832914Y-89836168D01*
X85832918Y-89836162D01*
X85940102Y-89625801D01*
X86013065Y-89401246D01*
X86050000Y-89168051D01*
X86050000Y-88931946D01*
X86013065Y-88698751D01*
X85940102Y-88474196D01*
X85832914Y-88263827D01*
X85772658Y-88180893D01*
X85772658Y-88180892D01*
X85073787Y-88879764D01*
X85062518Y-88837707D01*
X84990110Y-88712291D01*
X84887708Y-88609889D01*
X84762292Y-88537481D01*
X84720234Y-88526211D01*
X85419105Y-87827339D01*
X85419104Y-87827337D01*
X85336174Y-87767086D01*
X85125802Y-87659896D01*
X84901247Y-87586933D01*
X84901248Y-87586933D01*
X84668052Y-87549999D01*
X84431948Y-87549999D01*
X84198752Y-87586933D01*
X83974197Y-87659896D01*
X83763830Y-87767083D01*
X83680894Y-87827339D01*
X84379766Y-88526211D01*
X84337708Y-88537481D01*
X84212292Y-88609889D01*
X84109890Y-88712291D01*
X84037482Y-88837707D01*
X84026212Y-88879765D01*
X83327340Y-88180893D01*
X83267084Y-88263829D01*
X83159897Y-88474196D01*
X83086934Y-88698751D01*
X83050000Y-88931946D01*
X81550500Y-88931946D01*
X81550500Y-88931908D01*
X81516424Y-88716758D01*
X81520983Y-88682375D01*
X81525442Y-88647872D01*
X81525587Y-88647659D01*
X81525609Y-88647495D01*
X81526079Y-88646940D01*
X81551277Y-88610089D01*
X86894548Y-83266819D01*
X86955871Y-83233334D01*
X86982229Y-83230500D01*
X87072779Y-83230500D01*
X87078028Y-83232041D01*
G37*
%TD.AperFunction*%
%TA.AperFunction,Conductor*%
G36*
X76196488Y-83520185D02*
G01*
X76242243Y-83572989D01*
X76252187Y-83642147D01*
X76223162Y-83705703D01*
X76202337Y-83724815D01*
X76022490Y-83855483D01*
X76022488Y-83855485D01*
X76022487Y-83855485D01*
X75855485Y-84022487D01*
X75855485Y-84022488D01*
X75855483Y-84022490D01*
X75795862Y-84104550D01*
X75716657Y-84213566D01*
X75609433Y-84424003D01*
X75536446Y-84648631D01*
X75499500Y-84881902D01*
X75499500Y-85118097D01*
X75536446Y-85351368D01*
X75609433Y-85575996D01*
X75702015Y-85757696D01*
X75716657Y-85786433D01*
X75855483Y-85977510D01*
X75855485Y-85977512D01*
X75915792Y-86037819D01*
X75949277Y-86099142D01*
X75944293Y-86168834D01*
X75902421Y-86224767D01*
X75836957Y-86249184D01*
X75828111Y-86249500D01*
X73447307Y-86249500D01*
X73380268Y-86229815D01*
X73359626Y-86213181D01*
X72670233Y-85523788D01*
X72712292Y-85512519D01*
X72837708Y-85440111D01*
X72940110Y-85337709D01*
X73012518Y-85212293D01*
X73023787Y-85170235D01*
X73722658Y-85869106D01*
X73722658Y-85869105D01*
X73782914Y-85786170D01*
X73782918Y-85786164D01*
X73890102Y-85575803D01*
X73963065Y-85351248D01*
X74000000Y-85118053D01*
X74000000Y-84881948D01*
X73963065Y-84648753D01*
X73890102Y-84424198D01*
X73782914Y-84213829D01*
X73722658Y-84130895D01*
X73722658Y-84130894D01*
X73023787Y-84829766D01*
X73012518Y-84787709D01*
X72940110Y-84662293D01*
X72837708Y-84559891D01*
X72712292Y-84487483D01*
X72670233Y-84476213D01*
X73369105Y-83777341D01*
X73369104Y-83777340D01*
X73296814Y-83724818D01*
X73254148Y-83669489D01*
X73248169Y-83599875D01*
X73280774Y-83538080D01*
X73341613Y-83503723D01*
X73369699Y-83500500D01*
X76129449Y-83500500D01*
X76196488Y-83520185D01*
G37*
%TD.AperFunction*%
%TA.AperFunction,Conductor*%
G36*
X88704809Y-52520185D02*
G01*
X88725451Y-52536819D01*
X89166451Y-52977819D01*
X89199936Y-53039142D01*
X89194952Y-53108834D01*
X89153080Y-53164767D01*
X89087616Y-53189184D01*
X89078770Y-53189500D01*
X87362129Y-53189500D01*
X87362123Y-53189501D01*
X87302516Y-53195908D01*
X87167671Y-53246202D01*
X87167664Y-53246206D01*
X87052455Y-53332452D01*
X87052452Y-53332455D01*
X86966206Y-53447664D01*
X86966202Y-53447671D01*
X86915908Y-53582517D01*
X86909501Y-53642116D01*
X86909500Y-53642135D01*
X86909500Y-55437870D01*
X86909501Y-55437876D01*
X86915908Y-55497483D01*
X86966202Y-55632328D01*
X86966206Y-55632335D01*
X87052452Y-55747544D01*
X87052455Y-55747547D01*
X87167664Y-55833793D01*
X87167671Y-55833797D01*
X87299082Y-55882810D01*
X87355016Y-55924681D01*
X87379433Y-55990145D01*
X87364582Y-56058418D01*
X87343431Y-56086673D01*
X87229889Y-56200215D01*
X87104951Y-56372179D01*
X87008444Y-56561585D01*
X86942753Y-56763760D01*
X86909500Y-56973713D01*
X86909500Y-57186286D01*
X86939510Y-57375766D01*
X86942754Y-57396243D01*
X86999927Y-57572204D01*
X87008444Y-57598414D01*
X87104951Y-57787820D01*
X87229890Y-57959786D01*
X87380213Y-58110109D01*
X87552182Y-58235050D01*
X87560946Y-58239516D01*
X87611742Y-58287491D01*
X87628536Y-58355312D01*
X87605998Y-58421447D01*
X87560946Y-58460484D01*
X87552182Y-58464949D01*
X87380213Y-58589890D01*
X87229890Y-58740213D01*
X87104951Y-58912179D01*
X87008444Y-59101585D01*
X86942753Y-59303760D01*
X86909500Y-59513713D01*
X86909500Y-59726286D01*
X86929634Y-59853411D01*
X86942754Y-59936243D01*
X86987843Y-60075013D01*
X87008444Y-60138414D01*
X87104951Y-60327820D01*
X87229890Y-60499786D01*
X87380213Y-60650109D01*
X87552182Y-60775050D01*
X87560946Y-60779516D01*
X87611742Y-60827491D01*
X87628536Y-60895312D01*
X87605998Y-60961447D01*
X87560946Y-61000484D01*
X87552182Y-61004949D01*
X87380213Y-61129890D01*
X87229890Y-61280213D01*
X87104951Y-61452179D01*
X87008444Y-61641585D01*
X86942753Y-61843760D01*
X86924372Y-61959813D01*
X86909500Y-62053713D01*
X86909500Y-62266287D01*
X86910019Y-62269564D01*
X86932526Y-62411670D01*
X86942754Y-62476243D01*
X86989296Y-62619485D01*
X87008444Y-62678414D01*
X87104951Y-62867820D01*
X87229890Y-63039786D01*
X87380213Y-63190109D01*
X87552179Y-63315048D01*
X87552181Y-63315049D01*
X87552184Y-63315051D01*
X87561493Y-63319794D01*
X87612290Y-63367766D01*
X87629087Y-63435587D01*
X87606552Y-63501722D01*
X87561502Y-63540762D01*
X87552443Y-63545378D01*
X87380540Y-63670272D01*
X87380535Y-63670276D01*
X87230276Y-63820535D01*
X87230272Y-63820540D01*
X87105379Y-63992442D01*
X87008904Y-64181782D01*
X86943242Y-64383870D01*
X86943242Y-64383873D01*
X86932769Y-64450000D01*
X87826988Y-64450000D01*
X87794075Y-64507007D01*
X87760000Y-64634174D01*
X87760000Y-64765826D01*
X87794075Y-64892993D01*
X87826988Y-64950000D01*
X86932769Y-64950000D01*
X86943242Y-65016126D01*
X86943242Y-65016129D01*
X87008904Y-65218217D01*
X87105379Y-65407557D01*
X87230272Y-65579459D01*
X87230276Y-65579464D01*
X87380535Y-65729723D01*
X87380540Y-65729727D01*
X87552444Y-65854622D01*
X87561495Y-65859234D01*
X87612292Y-65907208D01*
X87629087Y-65975029D01*
X87606550Y-66041164D01*
X87561499Y-66080202D01*
X87552182Y-66084949D01*
X87380213Y-66209890D01*
X87229890Y-66360213D01*
X87104951Y-66532179D01*
X87008444Y-66721585D01*
X86942753Y-66923760D01*
X86909500Y-67133713D01*
X86909500Y-67346292D01*
X86924616Y-67441728D01*
X86915662Y-67511021D01*
X86889824Y-67548807D01*
X84417052Y-70021578D01*
X84417049Y-70021581D01*
X84383471Y-70071834D01*
X84383472Y-70071835D01*
X84334914Y-70144508D01*
X84278343Y-70281082D01*
X84278340Y-70281092D01*
X84249500Y-70426079D01*
X84249500Y-73275958D01*
X84229815Y-73342997D01*
X84177011Y-73388752D01*
X84107853Y-73398696D01*
X84044297Y-73369671D01*
X84019961Y-73341055D01*
X83979809Y-73275958D01*
X83967712Y-73256345D01*
X83843656Y-73132289D01*
X83694334Y-73040187D01*
X83527797Y-72985002D01*
X83527795Y-72985001D01*
X83425016Y-72974501D01*
X83425009Y-72974501D01*
X83286948Y-72974501D01*
X83219909Y-72954816D01*
X83174154Y-72902012D01*
X83164453Y-72834546D01*
X83164311Y-72834532D01*
X83164369Y-72833961D01*
X83164210Y-72832854D01*
X83164845Y-72829296D01*
X83164997Y-72827800D01*
X83164999Y-72827797D01*
X83175500Y-72725009D01*
X83175499Y-71999992D01*
X83175320Y-71998244D01*
X83164999Y-71897203D01*
X83164998Y-71897200D01*
X83152124Y-71858349D01*
X83109814Y-71730666D01*
X83017712Y-71581344D01*
X82893656Y-71457288D01*
X82744334Y-71365186D01*
X82577797Y-71310001D01*
X82577795Y-71310000D01*
X82475010Y-71299500D01*
X81124998Y-71299500D01*
X81124981Y-71299501D01*
X81022203Y-71310000D01*
X81022200Y-71310001D01*
X80855668Y-71365185D01*
X80855663Y-71365187D01*
X80706342Y-71457289D01*
X80582289Y-71581342D01*
X80582288Y-71581344D01*
X80530074Y-71665998D01*
X80530039Y-71666054D01*
X80478091Y-71712778D01*
X80409128Y-71724001D01*
X80345046Y-71696157D01*
X80306190Y-71638089D01*
X80300500Y-71600957D01*
X80300500Y-71334314D01*
X80300499Y-71334299D01*
X80297598Y-71297433D01*
X80297597Y-71297427D01*
X80251745Y-71139607D01*
X80251744Y-71139604D01*
X80251744Y-71139603D01*
X80168081Y-70998136D01*
X80168079Y-70998134D01*
X80168076Y-70998130D01*
X80051870Y-70881924D01*
X80051862Y-70881918D01*
X79929786Y-70809723D01*
X79910398Y-70798257D01*
X79910397Y-70798256D01*
X79910396Y-70798256D01*
X79910395Y-70798255D01*
X79827404Y-70774144D01*
X79768519Y-70736537D01*
X79739313Y-70673065D01*
X79738000Y-70655068D01*
X79738000Y-69799986D01*
X80425001Y-69799986D01*
X80435494Y-69902697D01*
X80490641Y-70069119D01*
X80490643Y-70069124D01*
X80582684Y-70218345D01*
X80706654Y-70342315D01*
X80855875Y-70434356D01*
X80855880Y-70434358D01*
X81022302Y-70489505D01*
X81022309Y-70489506D01*
X81125019Y-70499999D01*
X81549999Y-70499999D01*
X82050000Y-70499999D01*
X82474972Y-70499999D01*
X82474986Y-70499998D01*
X82577697Y-70489505D01*
X82744119Y-70434358D01*
X82744124Y-70434356D01*
X82893345Y-70342315D01*
X83017315Y-70218345D01*
X83109356Y-70069124D01*
X83109358Y-70069119D01*
X83164505Y-69902697D01*
X83164506Y-69902690D01*
X83174999Y-69799986D01*
X83175000Y-69799973D01*
X83175000Y-69687500D01*
X82050000Y-69687500D01*
X82050000Y-70499999D01*
X81549999Y-70499999D01*
X81550000Y-70499998D01*
X81550000Y-69687500D01*
X80425001Y-69687500D01*
X80425001Y-69799986D01*
X79738000Y-69799986D01*
X79738000Y-69370945D01*
X79738000Y-69370943D01*
X79697077Y-69218216D01*
X79639594Y-69118651D01*
X79618024Y-69081290D01*
X79618021Y-69081286D01*
X79618020Y-69081284D01*
X79506216Y-68969480D01*
X79506215Y-68969479D01*
X79501885Y-68965149D01*
X79501874Y-68965139D01*
X78444444Y-67907709D01*
X78410959Y-67846386D01*
X78413049Y-67785433D01*
X78422598Y-67752569D01*
X78425500Y-67715694D01*
X78425500Y-67284306D01*
X78422598Y-67247431D01*
X78376744Y-67089602D01*
X78293081Y-66948135D01*
X78293079Y-66948133D01*
X78293076Y-66948129D01*
X78176870Y-66831923D01*
X78176862Y-66831917D01*
X78069368Y-66768346D01*
X78035398Y-66748256D01*
X78035397Y-66748255D01*
X78035396Y-66748255D01*
X78035393Y-66748254D01*
X77877573Y-66702402D01*
X77877567Y-66702401D01*
X77840701Y-66699500D01*
X77840694Y-66699500D01*
X77287598Y-66699500D01*
X77220559Y-66679815D01*
X77199917Y-66663181D01*
X76785819Y-66249083D01*
X76752334Y-66187760D01*
X76749500Y-66161402D01*
X76749500Y-65874500D01*
X76769185Y-65807461D01*
X76821989Y-65761706D01*
X76873500Y-65750500D01*
X77840686Y-65750500D01*
X77840694Y-65750500D01*
X77877569Y-65747598D01*
X77877571Y-65747597D01*
X77877573Y-65747597D01*
X77939081Y-65729727D01*
X78035398Y-65701744D01*
X78176865Y-65618081D01*
X78293081Y-65501865D01*
X78376744Y-65360398D01*
X78422598Y-65202569D01*
X78425500Y-65165694D01*
X78425500Y-64734306D01*
X78422598Y-64697431D01*
X78413050Y-64664567D01*
X78413249Y-64594697D01*
X78444445Y-64542290D01*
X78549140Y-64437595D01*
X78706520Y-64280216D01*
X78785577Y-64143285D01*
X78826501Y-63990557D01*
X78826501Y-63832442D01*
X78826501Y-63824847D01*
X78826500Y-63824829D01*
X78826500Y-61764573D01*
X78830960Y-61748453D01*
X78830489Y-61733376D01*
X78843687Y-61702458D01*
X78844139Y-61700828D01*
X78844529Y-61700175D01*
X78909814Y-61594333D01*
X78912101Y-61587429D01*
X78919138Y-61575689D01*
X78935148Y-61560914D01*
X78947545Y-61543002D01*
X78960318Y-61537687D01*
X78970486Y-61528306D01*
X78991941Y-61524532D01*
X79012056Y-61516165D01*
X79025673Y-61518600D01*
X79039299Y-61516204D01*
X79059388Y-61524629D01*
X79080834Y-61528465D01*
X79090974Y-61537877D01*
X79103732Y-61543228D01*
X79116077Y-61561178D01*
X79132044Y-61575998D01*
X79135894Y-61589990D01*
X79143326Y-61600796D01*
X79143897Y-61619077D01*
X79149499Y-61639434D01*
X79149499Y-66048919D01*
X79149499Y-66048921D01*
X79149498Y-66048921D01*
X79178339Y-66193908D01*
X79178342Y-66193918D01*
X79234912Y-66330491D01*
X79234915Y-66330497D01*
X79245032Y-66345636D01*
X79247939Y-66349988D01*
X79250195Y-66353363D01*
X79250196Y-66353368D01*
X79250198Y-66353368D01*
X79317048Y-66453418D01*
X80063179Y-67199549D01*
X80096664Y-67260872D01*
X80099498Y-67287230D01*
X80099498Y-67950001D01*
X80099499Y-67950019D01*
X80109998Y-68052796D01*
X80109999Y-68052799D01*
X80132197Y-68119786D01*
X80165184Y-68219334D01*
X80257286Y-68368656D01*
X80381342Y-68492712D01*
X80418428Y-68515587D01*
X80494907Y-68562759D01*
X80541632Y-68614707D01*
X80552855Y-68683669D01*
X80535350Y-68733394D01*
X80490645Y-68805871D01*
X80490641Y-68805880D01*
X80435494Y-68972302D01*
X80435493Y-68972309D01*
X80425000Y-69075013D01*
X80425000Y-69187500D01*
X83174999Y-69187500D01*
X83174999Y-69075028D01*
X83174998Y-69075013D01*
X83164505Y-68972302D01*
X83109358Y-68805880D01*
X83109356Y-68805875D01*
X83017315Y-68656654D01*
X82893345Y-68532684D01*
X82744124Y-68440643D01*
X82744119Y-68440641D01*
X82577697Y-68385494D01*
X82577690Y-68385493D01*
X82474986Y-68375000D01*
X82304949Y-68375000D01*
X82237910Y-68355315D01*
X82192155Y-68302511D01*
X82182211Y-68233353D01*
X82187241Y-68212002D01*
X82239997Y-68052797D01*
X82250498Y-67950009D01*
X82250498Y-67949986D01*
X83050001Y-67949986D01*
X83060494Y-68052697D01*
X83115641Y-68219119D01*
X83115643Y-68219124D01*
X83207684Y-68368345D01*
X83331654Y-68492315D01*
X83480875Y-68584356D01*
X83480880Y-68584358D01*
X83647302Y-68639505D01*
X83647309Y-68639506D01*
X83750019Y-68649999D01*
X83874999Y-68649999D01*
X84375000Y-68649999D01*
X84499972Y-68649999D01*
X84499986Y-68649998D01*
X84602697Y-68639505D01*
X84769119Y-68584358D01*
X84769124Y-68584356D01*
X84918345Y-68492315D01*
X85042315Y-68368345D01*
X85134356Y-68219124D01*
X85134358Y-68219119D01*
X85189505Y-68052697D01*
X85189506Y-68052690D01*
X85199999Y-67949986D01*
X85200000Y-67949973D01*
X85200000Y-67500000D01*
X84375000Y-67500000D01*
X84375000Y-68649999D01*
X83874999Y-68649999D01*
X83875000Y-68649998D01*
X83875000Y-67500000D01*
X83050001Y-67500000D01*
X83050001Y-67949986D01*
X82250498Y-67949986D01*
X82250497Y-67247432D01*
X82250497Y-66550013D01*
X83050000Y-66550013D01*
X83050000Y-67000000D01*
X83875000Y-67000000D01*
X84375000Y-67000000D01*
X85199999Y-67000000D01*
X85199999Y-66550028D01*
X85199998Y-66550013D01*
X85189505Y-66447302D01*
X85134358Y-66280880D01*
X85134356Y-66280875D01*
X85042315Y-66131654D01*
X84918345Y-66007684D01*
X84769124Y-65915643D01*
X84769119Y-65915641D01*
X84602697Y-65860494D01*
X84602690Y-65860493D01*
X84499986Y-65850000D01*
X84375000Y-65850000D01*
X84375000Y-67000000D01*
X83875000Y-67000000D01*
X83875000Y-65850000D01*
X83750027Y-65850000D01*
X83750012Y-65850001D01*
X83647302Y-65860494D01*
X83480880Y-65915641D01*
X83480875Y-65915643D01*
X83331654Y-66007684D01*
X83207684Y-66131654D01*
X83115643Y-66280875D01*
X83115641Y-66280880D01*
X83060494Y-66447302D01*
X83060493Y-66447309D01*
X83050000Y-66550013D01*
X82250497Y-66550013D01*
X82250497Y-66549998D01*
X82250496Y-66549981D01*
X82239997Y-66447203D01*
X82239996Y-66447200D01*
X82211171Y-66360213D01*
X82184812Y-66280666D01*
X82092710Y-66131344D01*
X81968654Y-66007288D01*
X81819332Y-65915186D01*
X81652795Y-65860001D01*
X81652793Y-65860000D01*
X81550014Y-65849500D01*
X81550007Y-65849500D01*
X80887228Y-65849500D01*
X80857787Y-65840855D01*
X80827801Y-65834332D01*
X80822785Y-65830577D01*
X80820189Y-65829815D01*
X80799547Y-65813181D01*
X80686818Y-65700452D01*
X80653333Y-65639129D01*
X80650499Y-65612771D01*
X80650499Y-65022541D01*
X80670184Y-64955502D01*
X80722988Y-64909747D01*
X80787106Y-64899184D01*
X80791767Y-64899660D01*
X80799989Y-64900500D01*
X81550006Y-64900499D01*
X81550014Y-64900498D01*
X81550017Y-64900498D01*
X81623485Y-64892993D01*
X81652795Y-64889999D01*
X81819332Y-64834814D01*
X81968654Y-64742712D01*
X82092710Y-64618656D01*
X82184812Y-64469334D01*
X82239997Y-64302797D01*
X82250498Y-64200009D01*
X82250498Y-64199986D01*
X83050001Y-64199986D01*
X83060494Y-64302697D01*
X83115641Y-64469119D01*
X83115643Y-64469124D01*
X83207684Y-64618345D01*
X83331654Y-64742315D01*
X83480875Y-64834356D01*
X83480880Y-64834358D01*
X83647302Y-64889505D01*
X83647309Y-64889506D01*
X83750019Y-64899999D01*
X83874999Y-64899999D01*
X84375000Y-64899999D01*
X84499972Y-64899999D01*
X84499986Y-64899998D01*
X84602697Y-64889505D01*
X84769119Y-64834358D01*
X84769124Y-64834356D01*
X84918345Y-64742315D01*
X85042315Y-64618345D01*
X85134356Y-64469124D01*
X85134358Y-64469119D01*
X85189505Y-64302697D01*
X85189506Y-64302690D01*
X85199999Y-64199986D01*
X85200000Y-64199973D01*
X85200000Y-63750000D01*
X84375000Y-63750000D01*
X84375000Y-64899999D01*
X83874999Y-64899999D01*
X83875000Y-64899998D01*
X83875000Y-63750000D01*
X83050001Y-63750000D01*
X83050001Y-64199986D01*
X82250498Y-64199986D01*
X82250497Y-63492788D01*
X82250497Y-62800013D01*
X83050000Y-62800013D01*
X83050000Y-63250000D01*
X83875000Y-63250000D01*
X83875000Y-62100000D01*
X83750027Y-62100000D01*
X83750012Y-62100001D01*
X83647302Y-62110494D01*
X83480880Y-62165641D01*
X83480875Y-62165643D01*
X83331654Y-62257684D01*
X83207684Y-62381654D01*
X83115643Y-62530875D01*
X83115641Y-62530880D01*
X83060494Y-62697302D01*
X83060493Y-62697309D01*
X83050000Y-62800013D01*
X82250497Y-62800013D01*
X82250497Y-62799998D01*
X82250496Y-62799981D01*
X82239997Y-62697203D01*
X82239996Y-62697200D01*
X82214244Y-62619487D01*
X82184812Y-62530666D01*
X82092710Y-62381344D01*
X81968654Y-62257288D01*
X81834400Y-62174480D01*
X81827576Y-62166893D01*
X81818295Y-62162655D01*
X81804606Y-62141355D01*
X81787677Y-62122533D01*
X81785032Y-62110897D01*
X81780521Y-62103877D01*
X81775498Y-62068942D01*
X81775498Y-62025098D01*
X81795183Y-61958059D01*
X81811815Y-61937419D01*
X81832825Y-61916408D01*
X81894147Y-61882921D01*
X81950435Y-61883752D01*
X82006111Y-61897599D01*
X82048877Y-61900499D01*
X82951122Y-61900498D01*
X82993889Y-61897599D01*
X83178693Y-61851640D01*
X83349296Y-61767029D01*
X83497722Y-61647721D01*
X83553675Y-61578112D01*
X83611014Y-61538196D01*
X83680836Y-61535616D01*
X83740969Y-61571194D01*
X83746966Y-61578114D01*
X83802635Y-61647368D01*
X83950974Y-61766607D01*
X83950977Y-61766609D01*
X84121476Y-61851168D01*
X84121477Y-61851169D01*
X84310941Y-61898287D01*
X84371248Y-61933569D01*
X84402907Y-61995855D01*
X84395866Y-62065369D01*
X84375000Y-62096807D01*
X84375000Y-63250000D01*
X85199999Y-63250000D01*
X85199999Y-62800028D01*
X85199998Y-62800013D01*
X85189505Y-62697302D01*
X85134358Y-62530880D01*
X85134356Y-62530875D01*
X85042315Y-62381654D01*
X84918345Y-62257684D01*
X84769124Y-62165643D01*
X84769119Y-62165641D01*
X84596270Y-62108365D01*
X84597213Y-62105517D01*
X84547382Y-62078498D01*
X84513715Y-62017275D01*
X84518493Y-61947569D01*
X84547123Y-61902876D01*
X84549999Y-61900000D01*
X85050000Y-61900000D01*
X85251097Y-61900000D01*
X85293824Y-61897102D01*
X85478523Y-61851168D01*
X85649022Y-61766609D01*
X85649025Y-61766607D01*
X85797366Y-61647367D01*
X85797367Y-61647366D01*
X85916607Y-61499025D01*
X85916609Y-61499022D01*
X86001168Y-61328523D01*
X86047102Y-61143824D01*
X86050000Y-61101096D01*
X86050000Y-60650000D01*
X85050000Y-60650000D01*
X85050000Y-61900000D01*
X84549999Y-61900000D01*
X84550000Y-61899999D01*
X84550000Y-60150000D01*
X85050000Y-60150000D01*
X86050000Y-60150000D01*
X86050000Y-59698903D01*
X86047102Y-59656175D01*
X86001168Y-59471476D01*
X85916609Y-59300977D01*
X85916607Y-59300974D01*
X85797367Y-59152633D01*
X85797366Y-59152632D01*
X85649025Y-59033392D01*
X85649022Y-59033390D01*
X85478523Y-58948831D01*
X85293824Y-58902897D01*
X85251097Y-58900000D01*
X85050000Y-58900000D01*
X85050000Y-60150000D01*
X84550000Y-60150000D01*
X84550000Y-58900000D01*
X84348903Y-58900000D01*
X84306175Y-58902897D01*
X84121476Y-58948831D01*
X83950977Y-59033390D01*
X83950974Y-59033392D01*
X83802633Y-59152632D01*
X83802631Y-59152634D01*
X83746966Y-59221884D01*
X83689623Y-59261803D01*
X83619801Y-59264382D01*
X83559668Y-59228803D01*
X83553673Y-59221883D01*
X83497722Y-59152277D01*
X83497721Y-59152276D01*
X83349295Y-59032968D01*
X83319405Y-59018144D01*
X83268092Y-58970722D01*
X83250500Y-58907056D01*
X83250500Y-55724500D01*
X83270185Y-55657461D01*
X83322989Y-55611706D01*
X83374500Y-55600500D01*
X83958028Y-55600500D01*
X83958036Y-55600500D01*
X84077418Y-55589887D01*
X84273049Y-55533910D01*
X84453407Y-55439699D01*
X84611109Y-55311110D01*
X84739698Y-55153408D01*
X84833909Y-54973050D01*
X84889886Y-54777419D01*
X84900500Y-54658038D01*
X84900499Y-53541965D01*
X84889886Y-53422583D01*
X84833909Y-53226952D01*
X84739698Y-53046594D01*
X84683619Y-52977819D01*
X84611109Y-52888891D01*
X84586029Y-52868442D01*
X84577373Y-52855822D01*
X84565121Y-52846650D01*
X84558013Y-52827593D01*
X84546511Y-52810822D01*
X84546052Y-52795523D01*
X84540705Y-52781185D01*
X84545027Y-52761312D01*
X84544419Y-52740983D01*
X84552527Y-52726838D01*
X84555557Y-52712912D01*
X84576701Y-52684667D01*
X84724551Y-52536816D01*
X84785874Y-52503334D01*
X84812231Y-52500500D01*
X88637770Y-52500500D01*
X88704809Y-52520185D01*
G37*
%TD.AperFunction*%
%TA.AperFunction,Conductor*%
G36*
X69720110Y-55942404D02*
G01*
X69764457Y-55970905D01*
X70519095Y-56725543D01*
X70523433Y-56733488D01*
X70530681Y-56738914D01*
X70539915Y-56763673D01*
X70552580Y-56786866D01*
X70551934Y-56795895D01*
X70555098Y-56804378D01*
X70549481Y-56830198D01*
X70547596Y-56856558D01*
X70541777Y-56865611D01*
X70540246Y-56872651D01*
X70519095Y-56900905D01*
X70466819Y-56953181D01*
X70405496Y-56986666D01*
X70379138Y-56989500D01*
X70127310Y-56989500D01*
X70060271Y-56969815D01*
X70039629Y-56953181D01*
X69410905Y-56324457D01*
X69377420Y-56263134D01*
X69382404Y-56193442D01*
X69410905Y-56149095D01*
X69589095Y-55970905D01*
X69650418Y-55937420D01*
X69720110Y-55942404D01*
G37*
%TD.AperFunction*%
%TD*%
M02*
