%TF.GenerationSoftware,KiCad,Pcbnew,9.0.7*%
%TF.CreationDate,2026-03-24T21:52:54-06:00*%
%TF.ProjectId,Void_Player,566f6964-5f50-46c6-9179-65722e6b6963,rev?*%
%TF.SameCoordinates,Original*%
%TF.FileFunction,Soldermask,Bot*%
%TF.FilePolarity,Negative*%
%FSLAX46Y46*%
G04 Gerber Fmt 4.6, Leading zero omitted, Abs format (unit mm)*
G04 Created by KiCad (PCBNEW 9.0.7) date 2026-03-24 21:52:54*
%MOMM*%
%LPD*%
G01*
G04 APERTURE LIST*
G04 Aperture macros list*
%AMRoundRect*
0 Rectangle with rounded corners*
0 $1 Rounding radius*
0 $2 $3 $4 $5 $6 $7 $8 $9 X,Y pos of 4 corners*
0 Add a 4 corners polygon primitive as box body*
4,1,4,$2,$3,$4,$5,$6,$7,$8,$9,$2,$3,0*
0 Add four circle primitives for the rounded corners*
1,1,$1+$1,$2,$3*
1,1,$1+$1,$4,$5*
1,1,$1+$1,$6,$7*
1,1,$1+$1,$8,$9*
0 Add four rect primitives between the rounded corners*
20,1,$1+$1,$2,$3,$4,$5,0*
20,1,$1+$1,$4,$5,$6,$7,0*
20,1,$1+$1,$6,$7,$8,$9,0*
20,1,$1+$1,$8,$9,$2,$3,0*%
G04 Aperture macros list end*
%ADD10C,2.000000*%
%ADD11R,1.700000X1.700000*%
%ADD12C,1.700000*%
%ADD13RoundRect,0.250000X-0.312500X-0.625000X0.312500X-0.625000X0.312500X0.625000X-0.312500X0.625000X0*%
%ADD14RoundRect,0.250000X-0.650000X0.325000X-0.650000X-0.325000X0.650000X-0.325000X0.650000X0.325000X0*%
%ADD15C,0.650000*%
%ADD16RoundRect,0.150000X0.425000X-0.150000X0.425000X0.150000X-0.425000X0.150000X-0.425000X-0.150000X0*%
%ADD17RoundRect,0.075000X0.500000X-0.075000X0.500000X0.075000X-0.500000X0.075000X-0.500000X-0.075000X0*%
%ADD18RoundRect,0.250000X0.750000X-0.840000X0.750000X0.840000X-0.750000X0.840000X-0.750000X-0.840000X0*%
%ADD19RoundRect,0.250000X0.625000X-0.375000X0.625000X0.375000X-0.625000X0.375000X-0.625000X-0.375000X0*%
%ADD20RoundRect,0.250000X1.500000X-0.250000X1.500000X0.250000X-1.500000X0.250000X-1.500000X-0.250000X0*%
%ADD21RoundRect,0.250001X1.449999X-0.499999X1.449999X0.499999X-1.449999X0.499999X-1.449999X-0.499999X0*%
%ADD22RoundRect,0.250000X-0.325000X-0.650000X0.325000X-0.650000X0.325000X0.650000X-0.325000X0.650000X0*%
%ADD23RoundRect,0.250000X0.625000X-0.312500X0.625000X0.312500X-0.625000X0.312500X-0.625000X-0.312500X0*%
%ADD24RoundRect,0.150000X-0.512500X-0.150000X0.512500X-0.150000X0.512500X0.150000X-0.512500X0.150000X0*%
%ADD25RoundRect,0.250000X-0.625000X0.375000X-0.625000X-0.375000X0.625000X-0.375000X0.625000X0.375000X0*%
%ADD26RoundRect,0.150000X0.587500X0.150000X-0.587500X0.150000X-0.587500X-0.150000X0.587500X-0.150000X0*%
%ADD27RoundRect,0.375000X0.375000X-0.625000X0.375000X0.625000X-0.375000X0.625000X-0.375000X-0.625000X0*%
%ADD28RoundRect,0.500000X1.400000X-0.500000X1.400000X0.500000X-1.400000X0.500000X-1.400000X-0.500000X0*%
%ADD29C,6.000000*%
%ADD30O,1.700000X1.700000*%
G04 APERTURE END LIST*
D10*
%TO.C,SW4*%
X69550000Y-89050000D03*
X69550000Y-95550000D03*
X65049999Y-89050000D03*
X65050000Y-95550001D03*
%TD*%
%TO.C,SW6*%
X77050000Y-99500000D03*
X77050000Y-106000000D03*
X72549999Y-99500000D03*
X72550000Y-106000001D03*
%TD*%
%TO.C,SW3*%
X80050000Y-95550000D03*
X80050000Y-89050000D03*
X84550001Y-95550000D03*
X84550000Y-89049999D03*
%TD*%
D11*
%TO.C,U2*%
X73820000Y-49400000D03*
D12*
X78900000Y-49400000D03*
X81440000Y-49400000D03*
X76360000Y-49400000D03*
%TD*%
D10*
%TO.C,SW5*%
X77000000Y-78500000D03*
X77000000Y-85000000D03*
X72499999Y-78500000D03*
X72500000Y-85000001D03*
%TD*%
%TO.C,SW2*%
X77050000Y-89050000D03*
X77050000Y-95550000D03*
X72549999Y-89050000D03*
X72550000Y-95550001D03*
%TD*%
%TO.C,SW1*%
X69500000Y-78500000D03*
X69500000Y-85000000D03*
X64999999Y-78500000D03*
X65000000Y-85000001D03*
%TD*%
D13*
%TO.C,R3*%
X72537500Y-60750000D03*
X75462500Y-60750000D03*
%TD*%
D14*
%TO.C,C1*%
X73000000Y-63024999D03*
X73000000Y-65975001D03*
%TD*%
D15*
%TO.C,J2*%
X69355000Y-63080000D03*
X69355000Y-57300000D03*
D16*
X70430000Y-63390000D03*
X70430000Y-62590000D03*
D17*
X70429999Y-61440000D03*
X70430000Y-60440000D03*
X70430000Y-59940000D03*
X70429999Y-58940000D03*
D16*
X70430000Y-57790000D03*
X70430000Y-56990000D03*
X70430000Y-56990000D03*
X70430000Y-57790000D03*
D17*
X70430000Y-58440000D03*
X70430000Y-59440000D03*
X70430000Y-60940000D03*
X70430000Y-61940000D03*
D16*
X70430000Y-62590000D03*
X70430000Y-63390000D03*
D18*
X65925000Y-65300000D03*
X69855000Y-65300000D03*
X65925000Y-55080000D03*
X69855000Y-55080000D03*
%TD*%
D19*
%TO.C,D1*%
X82750000Y-76899999D03*
X82750000Y-74100001D03*
%TD*%
D20*
%TO.C,J1*%
X71850000Y-72500000D03*
X71850000Y-70500000D03*
D21*
X66100000Y-74850000D03*
X66100000Y-68150000D03*
%TD*%
D22*
%TO.C,C6*%
X81174998Y-63500000D03*
X84125000Y-63500000D03*
%TD*%
D23*
%TO.C,R2*%
X80000000Y-79212500D03*
X80000000Y-76287500D03*
%TD*%
D24*
%TO.C,U3*%
X76862500Y-73449999D03*
X76862500Y-72500000D03*
X76862500Y-71550001D03*
X79137500Y-71550001D03*
X79137500Y-73449999D03*
%TD*%
D25*
%TO.C,D3*%
X77600000Y-58100001D03*
X77600000Y-60899999D03*
%TD*%
D22*
%TO.C,C5*%
X81174998Y-67250000D03*
X84125000Y-67250000D03*
%TD*%
D13*
%TO.C,R4*%
X72537500Y-57439999D03*
X75462500Y-57439999D03*
%TD*%
D26*
%TO.C,Q1*%
X77187500Y-63050000D03*
X77187500Y-64950000D03*
X75312500Y-64000000D03*
%TD*%
%TO.C,Q2*%
X77187500Y-67500000D03*
X77187500Y-69400000D03*
X75312500Y-68450000D03*
%TD*%
D27*
%TO.C,U5*%
X84800000Y-60400000D03*
X82500000Y-60399999D03*
D28*
X82500000Y-54100001D03*
D27*
X80200000Y-60400000D03*
%TD*%
D29*
%TO.C,U1*%
X89530000Y-107670000D03*
X89530000Y-49670000D03*
X66530000Y-107670000D03*
X66530000Y-49670000D03*
D11*
X88260000Y-54540000D03*
D30*
X90800000Y-54540000D03*
X88260000Y-57080000D03*
X90800000Y-57080000D03*
X88260000Y-59620000D03*
X90800000Y-59620000D03*
X88260000Y-62160000D03*
X90800000Y-62160000D03*
X88260000Y-64700000D03*
X90800000Y-64700000D03*
X88260000Y-67240000D03*
X90800000Y-67240000D03*
X88260000Y-69780000D03*
X90800000Y-69780000D03*
X88260000Y-72320000D03*
X90800000Y-72320000D03*
X88260000Y-74860000D03*
X90800000Y-74860000D03*
X88260000Y-77400000D03*
X90800000Y-77400000D03*
X88260000Y-79940000D03*
X90800000Y-79940000D03*
X88260000Y-82480000D03*
X90800000Y-82480000D03*
X88260000Y-85020000D03*
X90800000Y-85020000D03*
X88260000Y-87560000D03*
X90800000Y-87560000D03*
X88260000Y-90100000D03*
X90800000Y-90100000D03*
X88260000Y-92640000D03*
X90800000Y-92640000D03*
X88260000Y-95180000D03*
X90800000Y-95180000D03*
X88260000Y-97720000D03*
X90800000Y-97720000D03*
X88260000Y-100260000D03*
X90800000Y-100260000D03*
X88260000Y-102800000D03*
X90800000Y-102800000D03*
%TD*%
D25*
%TO.C,D2*%
X71000000Y-49600001D03*
X71000000Y-52399999D03*
%TD*%
D23*
%TO.C,R1*%
X81800000Y-72362500D03*
X81800000Y-69437500D03*
%TD*%
M02*
