M48
; DRILL file {KiCad 9.0.7} date 2026-03-24T21:53:23-0600
; FORMAT={-:-/ absolute / metric / decimal}
; #@! TF.CreationDate,2026-03-24T21:53:23-06:00
; #@! TF.GenerationSoftware,Kicad,Pcbnew,9.0.7
; #@! TF.FileFunction,Plated,1,2,PTH
FMAT,2
METRIC
; #@! TA.AperFunction,Plated,PTH,ViaDrill
T1C0.300
; #@! TA.AperFunction,Plated,PTH,ComponentDrill
T2C1.000
; #@! TA.AperFunction,Plated,PTH,ComponentDrill
T3C1.100
%
G90
G05
T1
X67.75Y-53.0
X67.9Y-62.8
X67.9Y-65.4
X68.0Y-57.9
X69.25Y-51.5
X69.25Y-53.0
X70.8Y-81.5
X71.4Y-67.0
X73.0Y-64.5
X73.5Y-68.1
X74.6Y-88.7
X74.7Y-52.5
X74.8Y-85.0
X75.1Y-70.1
X76.3Y-80.7
X78.0Y-55.2
X78.6Y-66.3
X79.3Y-67.6
X80.7Y-57.6
X82.4Y-96.3
X82.7Y-99.5
X83.5Y-71.2
X86.0Y-65.0
T2
X73.82Y-49.4
X76.36Y-49.4
X78.9Y-49.4
X81.44Y-49.4
X88.26Y-54.54
X88.26Y-57.08
X88.26Y-59.62
X88.26Y-62.16
X88.26Y-64.7
X88.26Y-67.24
X88.26Y-69.78
X88.26Y-72.32
X88.26Y-74.86
X88.26Y-77.4
X88.26Y-79.94
X88.26Y-82.48
X88.26Y-85.02
X88.26Y-87.56
X88.26Y-90.1
X88.26Y-92.64
X88.26Y-95.18
X88.26Y-97.72
X88.26Y-100.26
X88.26Y-102.8
X90.8Y-54.54
X90.8Y-57.08
X90.8Y-59.62
X90.8Y-62.16
X90.8Y-64.7
X90.8Y-67.24
X90.8Y-69.78
X90.8Y-72.32
X90.8Y-74.86
X90.8Y-77.4
X90.8Y-79.94
X90.8Y-82.48
X90.8Y-85.02
X90.8Y-87.56
X90.8Y-90.1
X90.8Y-92.64
X90.8Y-95.18
X90.8Y-97.72
X90.8Y-100.26
X90.8Y-102.8
T3
X65.0Y-78.5
X65.0Y-85.0
X65.05Y-89.05
X65.05Y-95.55
X69.5Y-78.5
X69.5Y-85.0
X69.55Y-89.05
X69.55Y-95.55
X72.5Y-78.5
X72.5Y-85.0
X72.55Y-89.05
X72.55Y-99.5
X72.55Y-95.55
X72.55Y-106.0
X77.0Y-78.5
X77.0Y-85.0
X77.05Y-89.05
X77.05Y-95.55
X77.05Y-99.5
X77.05Y-106.0
X80.05Y-89.05
X80.05Y-95.55
X84.55Y-89.05
X84.55Y-95.55
M30
