%TF.GenerationSoftware,KiCad,Pcbnew,9.0.7*%
%TF.CreationDate,2026-03-24T21:52:54-06:00*%
%TF.ProjectId,Void_Player,566f6964-5f50-46c6-9179-65722e6b6963,rev?*%
%TF.SameCoordinates,Original*%
%TF.FileFunction,Soldermask,Top*%
%TF.FilePolarity,Negative*%
%FSLAX46Y46*%
G04 Gerber Fmt 4.6, Leading zero omitted, Abs format (unit mm)*
G04 Created by KiCad (PCBNEW 9.0.7) date 2026-03-24 21:52:54*
%MOMM*%
%LPD*%
G01*
G04 APERTURE LIST*
%ADD10C,2.000000*%
%ADD11R,1.700000X1.700000*%
%ADD12C,1.700000*%
%ADD13C,0.650000*%
%ADD14C,6.000000*%
%ADD15O,1.700000X1.700000*%
G04 APERTURE END LIST*
D10*
%TO.C,SW4*%
X69550000Y-89050000D03*
X69550000Y-95550000D03*
X65049999Y-89050000D03*
X65050000Y-95550001D03*
%TD*%
%TO.C,SW6*%
X77050000Y-99500000D03*
X77050000Y-106000000D03*
X72549999Y-99500000D03*
X72550000Y-106000001D03*
%TD*%
%TO.C,SW3*%
X80050000Y-95550000D03*
X80050000Y-89050000D03*
X84550001Y-95550000D03*
X84550000Y-89049999D03*
%TD*%
D11*
%TO.C,U2*%
X73820000Y-49400000D03*
D12*
X78900000Y-49400000D03*
X81440000Y-49400000D03*
X76360000Y-49400000D03*
%TD*%
D10*
%TO.C,SW5*%
X77000000Y-78500000D03*
X77000000Y-85000000D03*
X72499999Y-78500000D03*
X72500000Y-85000001D03*
%TD*%
%TO.C,SW2*%
X77050000Y-89050000D03*
X77050000Y-95550000D03*
X72549999Y-89050000D03*
X72550000Y-95550001D03*
%TD*%
%TO.C,SW1*%
X69500000Y-78500000D03*
X69500000Y-85000000D03*
X64999999Y-78500000D03*
X65000000Y-85000001D03*
%TD*%
D13*
%TO.C,J2*%
X69355000Y-63080000D03*
X69355000Y-57300000D03*
%TD*%
D14*
%TO.C,U1*%
X89530000Y-107670000D03*
X89530000Y-49670000D03*
X66530000Y-107670000D03*
X66530000Y-49670000D03*
D11*
X88260000Y-54540000D03*
D15*
X90800000Y-54540000D03*
X88260000Y-57080000D03*
X90800000Y-57080000D03*
X88260000Y-59620000D03*
X90800000Y-59620000D03*
X88260000Y-62160000D03*
X90800000Y-62160000D03*
X88260000Y-64700000D03*
X90800000Y-64700000D03*
X88260000Y-67240000D03*
X90800000Y-67240000D03*
X88260000Y-69780000D03*
X90800000Y-69780000D03*
X88260000Y-72320000D03*
X90800000Y-72320000D03*
X88260000Y-74860000D03*
X90800000Y-74860000D03*
X88260000Y-77400000D03*
X90800000Y-77400000D03*
X88260000Y-79940000D03*
X90800000Y-79940000D03*
X88260000Y-82480000D03*
X90800000Y-82480000D03*
X88260000Y-85020000D03*
X90800000Y-85020000D03*
X88260000Y-87560000D03*
X90800000Y-87560000D03*
X88260000Y-90100000D03*
X90800000Y-90100000D03*
X88260000Y-92640000D03*
X90800000Y-92640000D03*
X88260000Y-95180000D03*
X90800000Y-95180000D03*
X88260000Y-97720000D03*
X90800000Y-97720000D03*
X88260000Y-100260000D03*
X90800000Y-100260000D03*
X88260000Y-102800000D03*
X90800000Y-102800000D03*
%TD*%
M02*
